<svg id="Camada_1" data-name="Camada 1" xmlns="http://www.w3.org/2000/svg" viewBox="0 0 33.79 25"><defs><style>.cls-1{fill:#FFF;}.cls-2,.cls-3{fill:none;stroke:#FFF;stroke-linecap:round;stroke-miterlimit:10;}.cls-2{stroke-width:1.47px;}.cls-3{stroke-width:1.27px;}</style></defs><path class="cls-1" d="M31,23.43l2-1-.87-1.76-2,1a3.39,3.39,0,0,1-3,0,5.4,5.4,0,0,0-4.8,0,3.39,3.39,0,0,1-3,0,5.38,5.38,0,0,0-4.79,0,3.41,3.41,0,0,1-3.05,0,5.38,5.38,0,0,0-4.79,0,3.41,3.41,0,0,1-3,0l-2-1L.75,22.45l2,1a5.38,5.38,0,0,0,4.79,0,3.41,3.41,0,0,1,3.05,0,5.38,5.38,0,0,0,4.79,0,3.39,3.39,0,0,1,3,0,5.48,5.48,0,0,0,2.4.56,5.42,5.42,0,0,0,2.4-.56,3.39,3.39,0,0,1,3,0,5.4,5.4,0,0,0,4.8,0Z"/><path class="cls-2" d="M8.14,18.16a8.63,8.63,0,0,1-1.61-2.71l-1-2.75A.91.91,0,0,1,6,11.6l5.39-3a.94.94,0,0,1,.92,0l5.47,3.3a.9.9,0,0,1,.38,1.12l-.94,2.39s-1.41,3-2.36,3.6"/><line class="cls-2" x1="11.86" y1="11.06" x2="11.86" y2="17.71"/><line class="cls-2" x1="6.65" y1="14.38" x2="9.64" y2="12.46"/><line class="cls-2" x1="17.1" y1="14.48" x2="14.11" y2="12.56"/><path class="cls-2" d="M7.29,10.6v-4A.57.57,0,0,1,7.85,6h7.89a.49.49,0,0,1,.49.49v4.33"/><path class="cls-2" d="M9.64,5.72l.84-2.07a1.26,1.26,0,0,1,1.15-.77H12a1.26,1.26,0,0,1,1.16.79L14,5.72"/><path class="cls-2" d="M11.22,2.55v-.9A.65.65,0,0,1,11.87,1h0a.64.64,0,0,1,.64.63v.91"/><path class="cls-1" d="M31,20.13l2-1-.87-1.75-2,1a3.45,3.45,0,0,1-3,0,5.4,5.4,0,0,0-4.8,0,3.45,3.45,0,0,1-3,0,5.38,5.38,0,0,0-4.79,0,3.48,3.48,0,0,1-3.05,0,5.38,5.38,0,0,0-4.79,0,3.48,3.48,0,0,1-3,0l-2-1L.75,19.15l2,1a5.38,5.38,0,0,0,4.79,0,3.41,3.41,0,0,1,3.05,0,5.38,5.38,0,0,0,4.79,0,3.39,3.39,0,0,1,3,0,5.35,5.35,0,0,0,2.4.56,5.29,5.29,0,0,0,2.4-.56,3.39,3.39,0,0,1,3,0,5.4,5.4,0,0,0,4.8,0Z"/><path class="cls-3" d="M21.81,13.64s.42,2.61,3.7,2.61a3.56,3.56,0,0,0,3.79-2.61"/><line class="cls-3" x1="25.55" y1="15.7" x2="25.55" y2="6.95"/><polyline class="cls-3" points="21.45 15.87 21.67 13.45 23.85 14.42"/><polyline class="cls-3" points="27.12 14.26 29.42 13.46 29.43 15.86"/><line class="cls-3" x1="23.85" y1="8.53" x2="27.12" y2="8.53"/><circle class="cls-3" cx="25.55" cy="6.21" r="0.74"/></svg>