<svg version="1.1" id="Layer_1" xmlns="http://www.w3.org/2000/svg" xmlns:xlink="http://www.w3.org/1999/xlink" x="0px" y="0px"
	 width="100%" viewBox="0 0 256 224" enable-background="new 0 0 256 224" xml:space="preserve">
<path fill="#264775" opacity="1.000000" stroke="none" 
	d="
M80.052818,196.958832 
	C91.464401,204.304016 103.783440,206.146881 116.709854,205.706833 
	C120.789513,205.567947 120.624863,203.111938 120.623253,200.310532 
	C120.609367,176.145630 120.628731,151.980728 120.636009,127.815819 
	C120.637268,123.649460 120.476990,119.476082 120.669601,115.318848 
	C120.837906,111.686394 119.489044,110.182564 115.758675,110.299484 
	C109.765366,110.487343 103.759850,110.409286 97.762253,110.296677 
	C93.220528,110.211403 90.385208,107.627197 90.413826,103.893150 
	C90.443085,100.076263 93.106361,97.789268 97.921318,97.707771 
	C103.585999,97.611885 109.254951,97.754501 114.918991,97.640961 
	C117.216309,97.594910 120.628616,98.585442 120.499039,94.643921 
	C120.380783,91.046463 122.676369,86.421181 116.986023,84.517593 
	C108.844757,81.794113 102.943115,76.407654 99.180824,68.696053 
	C93.674767,57.410282 96.359146,42.601509 105.420036,34.172947 
	C115.556061,24.744261 130.789810,22.950277 142.489258,29.807543 
	C153.625626,36.334770 159.608597,50.076492 156.757858,62.417538 
	C154.324493,72.951630 148.176788,80.243958 138.085037,84.201164 
	C133.869324,85.854248 131.654114,91.877777 133.642624,95.975319 
	C134.591385,97.930313 136.351257,97.640312 137.968719,97.652504 
	C143.968002,97.697739 149.968857,97.612633 155.966904,97.711693 
	C160.727890,97.790321 163.300385,100.112541 163.271942,104.031021 
	C163.243286,107.978027 160.716324,110.218323 155.908203,110.301651 
	C150.243500,110.399826 144.568954,110.518578 138.912277,110.290672 
	C134.902679,110.129135 133.261169,111.408386 133.280807,115.665016 
	C133.411514,143.995651 133.341782,172.327209 133.341522,200.658463 
	C133.341492,203.060226 133.268219,205.397247 136.701340,205.638840 
	C162.533325,207.456619 186.155319,195.610535 195.449142,169.523636 
	C198.244675,161.676849 199.491928,153.535110 198.045456,144.102676 
	C193.859802,148.188187 190.384048,151.684845 186.792633,155.058380 
	C182.830124,158.780487 179.620544,159.148956 176.765060,156.398773 
	C173.770676,153.514801 174.185364,150.127792 178.186325,146.089508 
	C185.223267,138.986954 192.282272,131.905396 199.402664,124.886688 
	C203.778061,120.573769 206.410431,120.597122 210.870255,124.992447 
	C217.991821,132.011002 225.055359,139.089218 232.086166,146.198837 
	C235.858246,150.013214 236.270294,153.372742 233.506134,156.179825 
	C230.541656,159.190323 227.159103,158.769455 223.094101,154.912460 
	C219.603622,151.600601 216.094482,148.308411 212.069031,144.512939 
	C210.469986,150.547974 211.538666,156.156433 210.617218,161.620758 
	C205.897247,189.611038 186.925323,211.248077 159.489426,216.419022 
	C138.334335,220.406204 116.466301,220.484329 95.375145,216.611465 
	C63.518898,210.761841 43.392136,184.963867 42.040211,151.832108 
	C41.955032,149.744675 42.479977,147.546036 40.501606,143.901077 
	C37.569782,147.367264 35.087040,150.420395 32.465572,153.349365 
	C31.253613,154.703476 29.891659,155.996964 28.385170,156.998138 
	C25.477644,158.930405 22.650383,158.552460 20.336632,155.908417 
	C18.000210,153.238480 18.015995,150.329193 20.465248,147.831787 
	C28.399010,139.742065 36.407833,131.724258 44.487541,123.780235 
	C47.518047,120.800613 50.827980,121.082664 53.776829,123.996025 
	C61.600670,131.725723 69.389740,139.491745 77.106133,147.328491 
	C79.813637,150.078232 80.268616,153.296677 77.426308,156.200470 
	C74.634514,159.052689 71.451279,158.870346 68.529076,156.246689 
	C64.455856,152.589615 60.473732,148.831055 56.346878,145.018219 
	C52.231930,159.575211 60.165558,184.657394 80.052818,196.958832 
M140.022751,67.483551 
	C145.503860,59.973549 145.971802,53.181206 141.491165,46.168941 
	C138.159210,40.954353 130.550064,37.622353 124.580086,38.763687 
	C116.203278,40.365158 111.030518,45.635075 109.566254,54.059532 
	C108.531601,60.012287 112.801369,68.269363 118.464447,71.267303 
	C125.804893,75.153221 132.738571,74.084183 140.022751,67.483551 
z"/>
</svg>