<svg id="Camada_1" data-name="Camada 1" xmlns="http://www.w3.org/2000/svg" viewBox="0 0 33.71 20.5"><defs><style>.cls-1{fill:none;stroke:#ffffff;stroke-linecap:round;stroke-miterlimit:10;stroke-width:1.47px;}.cls-2{fill:#ffffff;}</style></defs><path class="cls-1" d="M22.5,18.27a8.86,8.86,0,0,1-1.62-2.71l-1-2.75a.92.92,0,0,1,.42-1.11l5.39-3a.94.94,0,0,1,.92,0l5.47,3.3a.91.91,0,0,1,.38,1.12l-.94,2.39s-1.41,3-2.36,3.59"/><line class="cls-1" x1="26.22" y1="11.16" x2="26.22" y2="17.82"/><line class="cls-1" x1="20.65" y1="14.49" x2="23.64" y2="12.57"/><line class="cls-1" x1="31.46" y1="14.59" x2="28.47" y2="12.67"/><path class="cls-1" d="M21.65,10.71v-4a.56.56,0,0,1,.56-.56H30.1a.49.49,0,0,1,.49.49V11"/><path class="cls-1" d="M24,5.82l.84-2.06A1.24,1.24,0,0,1,26,3h.39a1.25,1.25,0,0,1,1.16.79l.79,2"/><path class="cls-1" d="M25.58,2.66v-.9a.65.65,0,0,1,.65-.65h0a.64.64,0,0,1,.64.64v.91"/><path class="cls-1" d="M.93,8.54H15.39A1.46,1.46,0,0,1,16.86,10h0a1.53,1.53,0,0,1-1.53,1.53H.93"/><line class="cls-1" x1="2.88" y1="16.11" x2="2.88" y2="12.09"/><line class="cls-1" x1="6.33" y1="16.11" x2="6.33" y2="12.09"/><line class="cls-1" x1="10.02" y1="16.11" x2="10.02" y2="12.09"/><line class="cls-1" x1="13.9" y1="16.11" x2="13.9" y2="12.09"/><path class="cls-2" d="M31,19.57l2-1-.88-1.75-2,1a3.39,3.39,0,0,1-3,0,5.38,5.38,0,0,0-4.79,0,3.41,3.41,0,0,1-3.05,0,5.38,5.38,0,0,0-4.79,0,3.41,3.41,0,0,1-3,0,5.38,5.38,0,0,0-4.79,0,3.39,3.39,0,0,1-3,0l-2-1L.71,18.59l2,1a5.38,5.38,0,0,0,4.79,0,3.48,3.48,0,0,1,3.05,0,5.38,5.38,0,0,0,4.79,0,3.48,3.48,0,0,1,3.05,0,5.32,5.32,0,0,0,4.79,0,3.45,3.45,0,0,1,3,0,5.4,5.4,0,0,0,4.8,0Z"/></svg>