<svg version="1.1" id="Layer_1" xmlns="http://www.w3.org/2000/svg" xmlns:xlink="http://www.w3.org/1999/xlink" x="0px" y="0px"
	 width="100%" viewBox="0 0 727 621" enable-background="new 0 0 727 621" xml:space="preserve">
<path fill="transparent" opacity="1.000000" stroke="none" 
	d="
M484.000000,622.000000 
	C322.666656,622.000000 161.833328,622.000000 1.000000,622.000000 
	C1.000000,415.000000 1.000000,208.000000 1.000000,1.000000 
	C243.333328,1.000000 485.666656,1.000000 728.000000,1.000000 
	C728.000000,208.000000 728.000000,415.000000 728.000000,622.000000 
	C646.833313,622.000000 565.666687,622.000000 484.000000,622.000000 
M533.500000,436.993256 
	C392.511749,436.993591 251.523483,436.993958 110.535217,436.994446 
	C108.702034,436.994446 106.868393,436.970093 105.035751,437.002106 
	C92.503143,437.220978 85.785500,444.502380 88.132195,456.593170 
	C91.809875,475.541565 98.288834,493.668732 109.757629,509.312103 
	C135.603668,544.566101 170.848770,562.727844 214.490891,562.891907 
	C314.814423,563.268921 415.140778,563.135315 515.464783,562.830200 
	C526.508972,562.796631 537.785706,561.309814 548.539124,558.751038 
	C576.668335,552.057495 599.668152,536.872925 617.706970,514.186951 
	C631.091125,497.354858 638.182007,477.756592 642.853760,457.147736 
	C644.785034,448.627899 642.581177,442.894379 636.387878,440.016724 
	C632.741699,438.322571 628.484558,437.152771 624.491516,437.121460 
	C594.495850,436.886261 564.497498,436.993256 533.500000,436.993256 
M475.293121,227.175171 
	C456.021393,199.624344 436.750366,172.073013 417.477722,144.522797 
	C399.731140,119.154030 382.010315,93.767143 364.219421,68.429459 
	C358.464386,60.233143 352.308807,57.695641 344.747864,60.081139 
	C337.130249,62.484516 332.988495,68.906845 332.988525,78.330788 
	C332.988647,180.780899 332.975677,283.231018 333.055939,385.681061 
	C333.058502,388.936371 333.504578,392.385254 334.637756,395.408875 
	C337.860321,404.007507 345.140594,405.572876 353.319275,405.566559 
	C418.620758,405.516205 483.922333,405.535828 549.223877,405.534637 
	C555.720703,405.534515 562.217651,405.562195 568.714294,405.533325 
	C573.733704,405.511017 578.207825,404.262848 581.566650,400.122314 
	C587.132507,393.261047 586.945496,386.548309 580.856506,377.852936 
	C545.817322,327.814880 510.791290,277.767548 475.293121,227.175171 
M278.383881,405.528625 
	C279.716675,405.523743 281.049530,405.527008 282.382233,405.512726 
	C295.861267,405.368439 301.540894,399.697021 301.541168,386.266724 
	C301.542572,315.291199 301.528687,244.315674 301.500671,173.340149 
	C301.499878,171.348343 301.315582,169.353943 301.158661,167.365341 
	C300.645111,160.856689 297.354523,156.525192 291.023407,154.679245 
	C284.879547,152.887894 279.367462,153.970322 275.239685,159.046661 
	C272.846405,161.989929 270.862244,165.305099 268.970367,168.611084 
	C228.715744,238.954956 188.491135,309.316040 148.300293,379.696411 
	C145.879990,383.934753 144.219040,388.416107 145.615189,393.488129 
	C147.775558,401.336487 153.830582,405.515564 163.452286,405.520966 
	C201.439224,405.542328 239.426147,405.529449 278.383881,405.528625 
z"/>
<path fill="#264775" opacity="1.000000" stroke="none" 
	d="
M534.000000,436.993225 
	C564.497498,436.993256 594.495850,436.886261 624.491516,437.121460 
	C628.484558,437.152771 632.741699,438.322571 636.387878,440.016724 
	C642.581177,442.894379 644.785034,448.627899 642.853760,457.147736 
	C638.182007,477.756592 631.091125,497.354858 617.706970,514.186951 
	C599.668152,536.872925 576.668335,552.057495 548.539124,558.751038 
	C537.785706,561.309814 526.508972,562.796631 515.464783,562.830200 
	C415.140778,563.135315 314.814423,563.268921 214.490891,562.891907 
	C170.848770,562.727844 135.603668,544.566101 109.757629,509.312103 
	C98.288834,493.668732 91.809875,475.541565 88.132195,456.593170 
	C85.785500,444.502380 92.503143,437.220978 105.035751,437.002106 
	C106.868393,436.970093 108.702034,436.994446 110.535217,436.994446 
	C251.523483,436.993958 392.511749,436.993591 534.000000,436.993225 
M404.499786,531.530701 
	C440.988373,531.537842 477.477875,531.393921 513.965271,531.604492 
	C538.923157,531.748535 561.100037,524.539062 580.147217,508.191925 
	C592.644592,497.466125 601.541504,484.309143 607.409058,468.671509 
	C445.976776,468.671509 284.979248,468.671509 122.692909,468.671509 
	C127.094849,476.583649 130.395233,484.297974 135.227097,490.889740 
	C155.293381,518.264832 182.322540,531.818115 216.558228,531.636597 
	C278.870483,531.306091 341.185760,531.535034 404.499786,531.530701 
z"/>
<path fill="#264775" opacity="1.000000" stroke="none" 
	d="
M475.526978,227.449280 
	C510.791290,277.767548 545.817322,327.814880 580.856506,377.852936 
	C586.945496,386.548309 587.132507,393.261047 581.566650,400.122314 
	C578.207825,404.262848 573.733704,405.511017 568.714294,405.533325 
	C562.217651,405.562195 555.720703,405.534515 549.223877,405.534637 
	C483.922333,405.535828 418.620758,405.516205 353.319275,405.566559 
	C345.140594,405.572876 337.860321,404.007507 334.637756,395.408875 
	C333.504578,392.385254 333.058502,388.936371 333.055939,385.681061 
	C332.975677,283.231018 332.988647,180.780899 332.988525,78.330788 
	C332.988495,68.906845 337.130249,62.484516 344.747864,60.081139 
	C352.308807,57.695641 358.464386,60.233143 364.219421,68.429459 
	C382.010315,93.767143 399.731140,119.154030 417.477722,144.522797 
	C436.750366,172.073013 456.021393,199.624344 475.526978,227.449280 
M369.655396,374.684967 
	C370.305908,374.789673 370.956390,374.985901 371.606934,374.986115 
	C422.812012,375.001404 474.017090,375.007233 525.222168,374.967316 
	C526.475769,374.966339 527.729004,374.443512 529.728271,374.010010 
	C530.484314,374.059174 531.240295,374.108307 532.152344,374.847168 
	C534.057800,376.651978 535.739746,376.899384 537.722717,373.996185 
	C537.399231,372.570435 537.473206,370.865356 536.695618,369.758667 
	C480.615753,289.947174 424.469391,210.182373 368.315643,130.422760 
	C367.431946,129.167572 366.389862,128.023865 364.847168,126.118584 
	C364.690460,128.239685 364.536987,129.348877 364.536774,130.458099 
	C364.520844,210.274277 364.509338,290.090454 364.575165,369.906586 
	C364.576324,371.319733 365.517212,372.732086 366.198242,374.442230 
	C366.461334,374.343903 366.724457,374.245544 367.660889,374.007721 
	C368.113342,374.058197 368.565826,374.108673 369.655396,374.684967 
z"/>
<path fill="#264775" opacity="1.000000" stroke="none" 
	d="
M277.898499,405.528931 
	C239.426147,405.529449 201.439224,405.542328 163.452286,405.520966 
	C153.830582,405.515564 147.775558,401.336487 145.615189,393.488129 
	C144.219040,388.416107 145.879990,383.934753 148.300293,379.696411 
	C188.491135,309.316040 228.715744,238.954956 268.970367,168.611084 
	C270.862244,165.305099 272.846405,161.989929 275.239685,159.046661 
	C279.367462,153.970322 284.879547,152.887894 291.023407,154.679245 
	C297.354523,156.525192 300.645111,160.856689 301.158661,167.365341 
	C301.315582,169.353943 301.499878,171.348343 301.500671,173.340149 
	C301.528687,244.315674 301.542572,315.291199 301.541168,386.266724 
	C301.540894,399.697021 295.861267,405.368439 282.382233,405.512726 
	C281.049530,405.527008 279.716675,405.523743 277.898499,405.528931 
M260.826233,374.010620 
	C262.220551,374.056213 263.614899,374.101807 265.341492,374.706726 
	C266.558472,374.524139 267.775452,374.341553 269.674957,373.791199 
	C269.836090,372.520538 269.997223,371.249908 270.684631,369.343231 
	C270.788818,368.693024 270.983917,368.042877 270.984192,367.392639 
	C270.999817,326.520569 271.006989,285.648499 270.965454,244.776459 
	C270.964172,243.523788 270.441223,242.271637 270.009216,240.189117 
	C270.060120,238.787216 270.111023,237.385330 270.621643,235.535416 
	C270.466064,234.363922 270.310486,233.192444 270.005798,231.370132 
	C269.894714,230.735245 269.783600,230.100357 269.581909,228.947830 
	C242.411255,277.398682 215.492416,325.400482 188.450302,373.622101 
	C189.719330,373.888092 190.360748,374.022552 191.154358,374.844482 
	C192.328033,374.911652 193.501190,375.026031 194.675461,375.038971 
	C215.624954,375.269958 236.574478,375.506531 257.524628,375.643524 
	C258.346863,375.648926 259.175476,374.678009 260.826233,374.010620 
z"/>
</svg>