<svg version="1.1" id="Layer_1" xmlns="http://www.w3.org/2000/svg" xmlns:xlink="http://www.w3.org/1999/xlink" x="0px" y="0px"
	 width="100%" viewBox="0 0 284 224" enable-background="new 0 0 284 224" xml:space="preserve">
<path fill="transparent" opacity="1.000000" stroke="none" 
	d="
M285.000000,83.000000 
	C285.000000,130.666672 285.000000,177.833328 285.000000,225.000000 
	C190.333328,225.000000 95.666664,225.000000 1.000000,225.000000 
	C1.000000,150.333328 1.000000,75.666664 1.000000,1.000000 
	C95.666664,1.000000 190.333328,1.000000 285.000000,1.000000 
	C285.000000,28.166666 285.000000,55.333332 285.000000,83.000000 
M56.934032,24.927526 
	C56.934032,24.927526 56.763508,24.730375 56.222313,24.857443 
	C55.638073,25.301249 55.053837,25.745054 53.682930,26.084669 
	C49.798252,24.845200 48.881035,26.502396 48.929546,30.234789 
	C49.107937,43.961403 48.999844,57.691742 48.999889,71.420677 
	C48.999989,101.960182 48.962753,132.499786 49.035816,163.039108 
	C49.048664,168.408936 50.440094,169.281647 56.398830,168.255707 
	C58.305878,169.063660 60.212925,169.871613 62.137169,171.440979 
	C63.638042,171.538177 65.138916,171.635391 67.130348,171.623184 
	C67.423637,171.773956 67.716934,171.924728 68.480629,172.540863 
	C68.909836,172.551285 69.339050,172.561707 70.517807,172.382080 
	C75.681564,173.627899 80.845329,174.873718 86.166512,176.422211 
	C86.436493,176.362488 86.706474,176.302765 87.750519,176.188950 
	C91.501808,177.144730 95.253098,178.100510 99.147240,179.376648 
	C99.423813,179.329285 99.700394,179.281906 100.614563,179.166031 
	C101.409927,179.438217 102.205292,179.710403 102.858711,180.722229 
	C101.744720,183.200836 95.545456,180.746307 97.810059,187.285583 
	C100.801941,184.893173 103.463699,182.764740 106.786423,180.596466 
	C107.194618,180.757858 107.602821,180.919266 108.499496,181.593048 
	C109.193359,181.674316 109.887222,181.755585 111.351776,181.797882 
	C116.565277,182.964371 121.778778,184.130859 127.144463,185.951843 
	C128.489029,186.059998 129.833603,186.168137 132.027557,186.286118 
	C137.350632,187.236725 142.673691,188.187332 148.124283,189.796555 
	C149.785721,191.596207 150.656876,191.121948 150.896530,188.939453 
	C150.896530,188.939453 150.823410,188.861847 151.552048,189.050568 
	C153.667099,191.968872 155.782135,194.887177 157.669464,198.604538 
	C155.030762,199.200256 152.392075,199.795990 149.133469,200.242462 
	C148.763535,200.421448 148.393600,200.600433 147.347916,200.936600 
	C146.891266,200.884689 146.434616,200.832794 145.504166,200.376801 
	C145.095810,200.348068 144.687454,200.319336 143.697617,200.467087 
	C143.128250,200.269226 142.558884,200.071365 141.829575,199.572632 
	C141.560928,199.637421 141.292297,199.702209 140.459091,199.862564 
	C139.929489,199.692856 139.399887,199.523163 138.842072,198.564285 
	C136.881088,198.456680 134.920090,198.349060 132.428299,198.388321 
	C132.285156,198.273392 132.141998,198.158463 131.904312,197.364258 
	C130.907745,197.321030 129.911163,197.277817 128.256180,197.302994 
	C127.836029,197.184982 127.415886,197.066956 126.843613,196.627869 
	C126.568153,196.692139 126.292686,196.756393 125.325058,196.878967 
	C124.217583,196.548798 123.110107,196.218628 121.851692,195.177994 
	C117.787956,192.843292 113.680328,190.865204 108.953117,193.807510 
	C108.953117,193.807510 109.009422,194.016098 108.284279,193.788696 
	C105.848389,193.287552 103.412506,192.786407 100.362907,191.962631 
	C99.231575,191.844971 98.100235,191.727310 96.277916,191.270309 
	C95.517487,191.175629 94.757065,191.080963 93.465530,190.611115 
	C92.612801,190.507797 91.760071,190.404480 90.948349,190.089294 
	C90.948349,190.089294 91.025986,189.887939 90.514809,189.394897 
	C89.818207,189.325531 89.121597,189.256180 87.731628,189.312866 
	C86.812111,189.135742 85.892601,188.958618 84.515450,188.341690 
	C83.895187,188.269638 83.274925,188.197586 81.893211,188.186691 
	C79.923615,187.755463 77.954010,187.324234 75.440269,186.367935 
	C74.435791,186.295944 73.431313,186.223953 71.936333,186.343643 
	C71.621437,186.210587 71.306549,186.077515 70.527573,185.465988 
	C70.094994,185.443985 69.662415,185.421967 68.678543,185.654236 
	C68.118324,185.466492 67.558105,185.278732 66.899551,184.377930 
	C65.861679,181.286133 64.823814,178.194351 63.738026,174.959808 
	C62.540180,175.705597 60.694557,176.854706 59.459122,177.623901 
	C60.482418,180.277863 61.224625,182.202789 61.297325,184.154144 
	C60.865772,184.055664 60.434216,183.957199 59.880333,183.204239 
	C57.691914,179.376144 54.900021,180.134094 51.273212,181.994186 
	C50.198177,181.640289 49.123146,181.286377 48.030148,181.008896 
	C48.030148,181.008896 48.075226,180.943878 47.989059,180.551743 
	C47.989059,180.551743 47.933483,180.153931 47.702145,179.635941 
	C47.360004,179.511261 47.017864,179.386581 46.641796,179.250946 
	C46.641796,179.250946 46.612778,179.272568 46.825478,178.461288 
	C47.292202,176.531448 47.940044,174.621368 48.153698,172.663895 
	C48.270756,171.591431 47.760147,169.507126 47.353573,169.461105 
	C40.285885,168.661438 40.903423,163.415497 41.025124,158.628021 
	C42.058987,117.957596 38.750885,77.222237 42.763462,36.585419 
	C42.865803,35.548992 41.171394,33.731277 39.959808,33.317303 
	C38.337177,32.762886 36.367458,33.224319 33.898376,33.408989 
	C32.610012,33.686222 31.321644,33.963459 29.367163,34.351189 
	C28.676548,36.253937 27.985933,38.156689 27.158037,40.830418 
	C27.214565,41.867855 27.271093,42.905289 27.105051,44.863293 
	C27.090956,84.625381 27.060274,124.387482 27.105610,164.149506 
	C27.108219,166.439133 27.729797,168.728027 28.099056,171.616913 
	C29.716118,174.127411 31.333179,176.637894 32.932259,179.862701 
	C33.739544,181.245590 34.546833,182.628464 35.448326,184.428314 
	C35.491119,184.791077 35.692280,184.940689 36.025890,184.959793 
	C36.025890,184.959793 36.110306,184.940277 36.233105,185.606537 
	C40.441593,188.184830 44.650082,190.763123 49.375568,193.906738 
	C56.026543,195.031784 62.712215,195.984161 69.322311,197.312607 
	C94.199829,202.312317 119.043236,207.482178 143.930252,212.433380 
	C146.285187,212.901871 148.911972,212.581238 151.317123,212.124496 
	C165.030472,209.520325 178.730164,206.838440 192.404160,204.034958 
	C203.073471,201.847488 213.698608,199.444534 224.687698,197.224991 
	C224.687698,197.224991 224.994537,197.045792 225.766098,197.235641 
	C227.514313,196.834579 229.262512,196.433517 231.680466,196.109222 
	C232.116898,196.014496 232.553329,195.919785 233.802368,195.933380 
	C237.864182,194.941864 241.925995,193.950348 246.804504,192.885757 
	C247.288651,192.641159 247.772797,192.396561 248.443283,192.355560 
	C248.665512,192.318848 248.772919,192.187759 249.475937,191.850174 
	C261.860504,185.743851 267.213043,175.551651 266.997040,161.092087 
	C267.004761,141.322433 267.044006,121.552742 267.010864,101.783165 
	C266.981323,84.179893 266.871643,66.576767 266.966400,48.073238 
	C266.975891,46.100201 267.019409,44.126629 266.988800,42.154217 
	C266.879425,35.117172 265.290527,33.710728 257.600616,34.062260 
	C257.600616,34.062260 257.131317,34.044231 256.659271,34.183613 
	C256.354736,34.343422 256.139496,34.583351 255.600464,35.155106 
	C255.600464,35.155106 255.127411,35.256252 254.825241,34.616646 
	C249.990891,31.650764 251.446503,36.700371 251.329849,37.896595 
	C250.874146,42.569168 251.064026,47.304703 251.013168,52.952034 
	C251.013412,82.962219 251.013657,112.972404 251.023438,143.831192 
	C251.348953,147.078445 251.795120,150.319397 251.965424,153.574783 
	C252.129379,156.709167 252.008163,159.858490 251.910950,163.799057 
	C251.763901,167.545288 251.616867,171.291534 251.170761,175.673080 
	C248.867355,177.490616 246.563950,179.308151 243.665451,180.769897 
	C243.070435,180.353394 242.475433,179.936890 241.880432,179.520386 
	C241.632492,180.470947 241.384567,181.421509 240.514481,182.838608 
	C233.336945,184.157761 226.159409,185.476913 218.773987,186.519196 
	C218.518295,186.647919 218.262619,186.776657 217.434631,187.201111 
	C216.610611,187.355042 215.786606,187.508972 214.750717,187.422607 
	C214.406738,187.303253 214.161972,187.425766 213.245758,188.024445 
	C210.856049,188.417313 208.466354,188.810181 205.672592,188.605011 
	C202.454834,187.192093 199.243378,185.800018 197.296310,191.252701 
	C194.859802,191.835083 192.423294,192.417480 189.312408,192.924866 
	C188.883636,193.053925 188.454880,193.182983 187.427963,193.235992 
	C186.843262,193.228638 186.258560,193.221283 184.950439,193.109665 
	C184.306595,193.356918 183.662766,193.604187 182.240997,194.154434 
	C176.087616,195.230988 169.934250,196.307541 163.108292,197.269135 
	C162.739838,197.506393 162.371368,197.743652 161.199158,198.366165 
	C160.153198,198.173004 159.107224,197.979858 158.655807,197.092270 
	C162.225754,194.022003 160.358032,190.236664 160.696564,186.249344 
	C162.208908,186.024490 163.721252,185.799637 165.879333,185.729126 
	C166.248932,185.516495 166.618515,185.303848 167.401093,184.790466 
	C167.728333,184.806396 168.055588,184.822327 169.174820,184.924377 
	C170.114914,184.626389 171.055008,184.328415 172.388870,183.730591 
	C172.388870,183.730591 172.865036,183.593979 172.865036,183.593979 
	C172.865036,183.593979 173.343781,183.721298 174.022110,183.994186 
	C175.016449,183.667862 176.010773,183.341522 177.390930,182.599060 
	C177.938187,182.503250 178.485443,182.407455 179.252701,182.557816 
	C179.611099,182.670181 179.856720,182.534134 180.480789,181.953781 
	C180.653244,181.990173 180.825714,182.026581 181.101578,182.702988 
	C188.823425,184.955490 195.124374,180.684509 201.798065,178.156418 
	C201.962311,178.094193 201.940720,177.541473 202.757767,176.984055 
	C203.781525,176.771561 204.805267,176.559052 206.043289,176.956833 
	C206.696243,176.669983 207.349197,176.383133 208.594055,175.848969 
	C209.406387,175.657379 210.218735,175.465790 211.251816,175.531937 
	C211.498642,175.387665 211.745468,175.243393 212.695480,174.812439 
	C214.876434,174.431595 217.057373,174.050766 219.891800,173.762970 
	C220.256760,173.544907 220.621719,173.326843 221.520950,172.788132 
	C222.113113,172.762253 222.705292,172.736359 224.087112,172.907867 
	C226.526718,173.924728 228.874832,174.632584 230.685715,170.888107 
	C231.411285,170.716125 232.136841,170.544144 232.968307,171.147644 
	C235.440125,175.153305 237.427063,171.185486 239.507309,170.617371 
	C241.811768,169.988052 243.945694,168.734329 246.691620,167.513412 
	C246.226517,164.999435 245.092712,161.686646 245.080261,158.369659 
	C244.950211,123.743698 244.988434,89.117035 245.037155,54.490646 
	C245.039413,52.889244 245.834335,51.288063 245.830872,49.687710 
	C245.813690,41.752026 252.113327,32.866093 242.428940,26.323883 
	C241.911667,25.974443 241.253357,25.337635 241.237732,24.817274 
	C241.046814,18.459967 235.021652,21.440910 232.308594,19.171944 
	C231.868271,19.798025 231.427933,20.424105 230.313843,21.115345 
	C229.872345,21.028936 229.430862,20.942528 228.794983,20.561724 
	C228.532181,20.676968 228.269363,20.792212 227.252609,21.241146 
	C224.223969,21.675617 221.195328,22.110090 217.934448,21.960085 
	C217.288116,22.252016 216.641769,22.543947 215.164398,23.027874 
	C207.019394,24.131401 198.874405,25.234926 190.008118,26.148933 
	C189.345093,26.377352 188.682083,26.605770 187.326370,27.096251 
	C185.876648,27.311354 184.426926,27.526455 182.774078,27.478783 
	C182.424896,27.328634 182.170975,27.443672 181.251907,28.016722 
	C180.222641,28.187353 179.193390,28.357983 177.928101,27.947508 
	C177.284119,28.245577 176.640121,28.543648 175.293488,29.009403 
	C174.100052,29.094904 172.906631,29.180405 171.085495,29.203888 
	C170.730789,29.405264 170.376083,29.606640 169.253723,30.046560 
	C167.164963,30.318174 165.076187,30.589788 162.782028,30.564049 
	C162.521866,30.701811 162.261688,30.839573 161.287781,31.237391 
	C160.536896,31.254108 159.786026,31.270828 158.823532,30.832806 
	C158.570847,31.085043 158.318176,31.337282 157.431320,31.828421 
	C156.316940,31.963728 155.202576,32.099033 153.759232,31.675035 
	C152.836777,32.018036 151.914307,32.361034 150.207962,32.948204 
	C149.134094,33.058182 148.060226,33.168159 146.912384,32.563164 
	C146.226593,32.676060 145.540817,32.788956 143.963364,32.961929 
	C141.317398,32.445210 138.671448,31.928490 136.006180,30.684126 
	C133.948151,25.243128 131.384567,28.480373 128.119720,30.370621 
	C127.080666,30.205944 126.041618,30.041267 124.899948,29.263231 
	C124.216431,29.324131 123.532906,29.385033 122.195679,29.509758 
	C121.797440,29.344229 121.399208,29.178699 120.848083,28.673582 
	C120.567795,28.752253 120.287498,28.830925 119.332954,29.052738 
	C118.883850,28.972473 118.434753,28.892206 117.818375,28.527285 
	C117.503036,28.306831 117.238945,28.371922 116.292740,28.779636 
	C114.855362,28.458469 113.417976,28.137304 111.427872,27.343979 
	C110.710381,27.326389 109.992889,27.308798 108.705086,27.511036 
	C108.133141,27.317038 107.561195,27.123039 106.401024,26.371683 
	C105.040161,26.322338 103.679306,26.272993 101.783768,26.570536 
	C101.189232,26.382217 100.594704,26.193899 99.857635,25.668987 
	C99.576645,25.727238 99.295647,25.785488 98.252686,25.923050 
	C96.501549,25.614258 94.750420,25.305466 92.619789,24.463146 
	C91.374779,24.421719 90.129768,24.380293 88.097603,24.419395 
	C87.061089,24.242981 86.024574,24.066565 84.501366,23.441788 
	C84.072144,23.447971 83.642914,23.454157 82.513969,23.635223 
	C81.343353,23.386995 80.172745,23.138765 78.843124,22.174839 
	C75.391586,19.219105 71.543343,20.364492 67.144981,21.198002 
	C66.764328,21.090321 66.383682,20.982637 65.913742,20.299738 
	C65.584465,20.005129 65.255196,19.710522 64.925919,19.415911 
	C64.616745,19.923603 64.307571,20.431293 63.410934,21.253494 
	C62.977707,21.324574 62.544483,21.395653 62.021225,20.768452 
	C61.239208,20.417040 60.457195,20.065628 59.675175,19.714216 
	C59.460373,20.480421 59.245571,21.246626 58.941814,22.383181 
	C58.941814,22.383181 58.896873,22.761402 58.343822,23.032183 
	C57.806042,23.609688 57.268261,24.187191 56.934032,24.927526 
M127.807907,190.609375 
	C126.431084,190.408005 125.054268,190.206635 123.677444,190.005264 
	C123.698677,190.666046 123.719917,191.326828 123.741158,191.987595 
	C125.024452,191.752380 126.307755,191.517166 127.807907,190.609375 
M142.436005,192.571014 
	C141.757370,193.501740 141.078751,194.432480 140.400116,195.363205 
	C140.920486,195.586166 141.440857,195.809113 141.961243,196.032074 
	C142.247955,195.052994 142.534668,194.073929 142.436005,192.571014 
M93.567078,187.296188 
	C93.294983,187.011169 93.022881,186.726135 92.750778,186.441116 
	C92.632820,186.553909 92.406113,186.758560 92.412613,186.766251 
	C92.666519,187.066849 92.941673,187.349487 93.567078,187.296188 
M242.482880,177.588257 
	C242.482880,177.588257 242.416397,177.477005 242.482880,177.588257 
M89.483353,181.587662 
	C89.483353,181.587662 89.417259,181.476944 89.483353,181.587662 
z"/>
<path fill="#ffffff" opacity="1.000000" stroke="none" 
	d="
M168.382828,184.838257 
	C168.055588,184.822327 167.728333,184.806396 166.875305,184.910141 
	C165.977539,185.211472 165.605560,185.393127 165.233597,185.574783 
	C163.721252,185.799637 162.208908,186.024490 160.029831,186.378540 
	C158.240204,186.674225 157.117310,186.840683 155.810760,186.758423 
	C154.748520,186.920990 153.869934,187.332291 152.679916,187.875092 
	C151.921661,188.035370 151.474823,188.064133 150.769592,187.791412 
	C148.573578,187.126587 146.625061,186.812851 144.700256,186.390945 
	C138.111954,184.946808 131.554153,183.354675 124.943733,182.022263 
	C114.345886,179.886108 103.673248,178.106049 93.111237,175.811691 
	C83.849487,173.799789 74.571030,171.680237 65.557579,168.801590 
	C62.004848,167.666931 59.150383,164.345978 56.265358,161.878296 
	C56.954826,161.059677 57.690845,160.391342 57.707310,159.705719 
	C57.872421,152.830200 58.038170,145.950851 57.979317,139.074493 
	C57.690880,105.372169 57.376167,71.669792 56.875362,37.970345 
	C56.850437,36.293011 54.997940,34.642838 54.147034,32.679001 
	C57.865036,27.533035 61.975163,23.396288 68.428436,21.802906 
	C69.532066,21.896051 70.264725,22.019251 71.063187,22.473316 
	C72.127640,22.746872 73.126282,22.689562 74.534683,22.648457 
	C76.297005,22.739954 77.649567,22.815245 79.002129,22.890537 
	C80.172745,23.138765 81.343353,23.386995 83.109146,23.762554 
	C84.132233,23.889973 84.560150,23.890060 84.988060,23.890148 
	C86.024574,24.066565 87.061089,24.242981 88.783897,24.580318 
	C90.646553,24.826387 91.822922,24.911531 92.999283,24.996674 
	C94.750420,25.305466 96.501549,25.614258 98.865692,26.011211 
	C99.652519,26.068110 99.826340,26.036844 100.000168,26.005581 
	C100.594704,26.193899 101.189232,26.382217 102.364120,26.660011 
	C104.292725,26.809338 105.640991,26.869188 106.989250,26.929039 
	C107.561195,27.123039 108.133141,27.317038 109.265137,27.640097 
	C110.543655,27.784819 111.262123,27.800480 111.980598,27.816139 
	C113.417976,28.137304 114.855362,28.458469 116.892151,28.850250 
	C117.656250,28.884558 117.820946,28.848249 117.985649,28.811941 
	C118.434753,28.892206 118.883850,28.972473 119.910797,29.081131 
	C120.659416,29.077406 120.830193,29.045288 121.000969,29.013168 
	C121.399208,29.178699 121.797440,29.344229 122.751450,29.653038 
	C123.872330,29.823074 124.437447,29.849833 125.002563,29.876589 
	C126.041618,30.041267 127.080666,30.205944 128.807526,30.535164 
	C131.672043,30.937061 133.848770,31.174416 136.025482,31.411768 
	C138.671448,31.928490 141.317398,32.445210 144.635651,33.119873 
	C145.867401,33.277920 146.426880,33.278027 146.986359,33.278133 
	C148.060226,33.168159 149.134094,33.058182 150.919373,32.894882 
	C152.449905,32.639156 153.269058,32.436749 154.088196,32.234344 
	C155.202576,32.099033 156.316940,31.963728 158.023132,31.737709 
	C158.754990,31.527184 158.895065,31.407366 159.035141,31.287548 
	C159.786026,31.270828 160.536896,31.254108 161.902313,31.173531 
	C162.673721,31.026915 162.830582,30.944159 162.987427,30.861403 
	C165.076187,30.589788 167.164963,30.318174 169.954407,29.973078 
	C171.007782,29.688366 171.360489,29.477137 171.713196,29.265907 
	C172.906631,29.180405 174.100052,29.094904 175.920944,28.994785 
	C177.086975,28.829651 177.625549,28.679131 178.164124,28.528610 
	C179.193390,28.357983 180.222641,28.187353 181.879822,27.975796 
	C182.664215,27.870432 182.820709,27.805994 182.977203,27.741556 
	C184.426926,27.526455 185.876648,27.311354 188.030640,27.016186 
	C189.399734,26.736900 190.064560,26.537678 190.729401,26.338455 
	C198.874405,25.234926 207.019394,24.131401 215.856415,22.998686 
	C217.087845,22.827852 217.627258,22.686205 218.166687,22.544559 
	C221.195328,22.110090 224.223969,21.675617 227.878632,21.125652 
	C228.666229,20.958815 228.827789,20.907467 228.989365,20.856117 
	C229.430862,20.942528 229.872345,21.028936 230.911316,21.315220 
	C239.535965,24.123384 242.824112,28.588781 242.825211,36.957886 
	C242.830414,76.728615 242.826736,116.499336 242.826035,156.270065 
	C242.825882,164.196960 240.467239,167.534760 232.862411,170.372162 
	C232.136841,170.544144 231.411285,170.716125 229.951752,170.976410 
	C227.244339,171.613297 225.270889,172.161896 223.297455,172.710480 
	C222.705292,172.736359 222.113113,172.762253 220.929199,172.918854 
	C219.971085,173.256348 219.604706,173.463135 219.238327,173.669937 
	C217.057373,174.050766 214.876434,174.431595 212.086975,174.908432 
	C211.329346,175.094360 211.180206,175.184296 211.031067,175.274216 
	C210.218735,175.465790 209.406387,175.657379 208.024048,175.894806 
	C206.912369,176.075958 206.370697,176.211258 205.829025,176.346558 
	C204.805267,176.559052 203.781525,176.771561 201.989960,177.066635 
	C194.480835,178.787140 187.739517,180.425064 180.998199,182.062988 
	C180.825714,182.026581 180.653244,181.990173 179.981186,182.004898 
	C179.331955,182.141235 179.182327,182.226440 179.032700,182.311646 
	C178.485443,182.407455 177.938187,182.503250 176.813766,182.779984 
	C175.272324,183.214371 174.308060,183.467834 173.343781,183.721298 
	C173.343781,183.721298 172.865036,183.593979 172.865036,183.593979 
	C172.865036,183.593979 172.388870,183.730591 171.810577,183.845581 
	C170.282471,184.253143 169.332657,184.545700 168.382828,184.838257 
M153.095886,175.749741 
	C153.411987,175.816696 153.728104,175.883667 154.778152,175.721497 
	C156.872574,175.244064 158.963074,174.748550 161.062042,174.291992 
	C182.711777,169.582886 204.362885,164.880051 226.572144,160.660355 
	C228.179199,160.669815 229.786240,160.679291 231.393280,160.688751 
	C231.355148,159.996902 231.317017,159.305069 231.211182,158.097641 
	C231.342499,157.782333 231.473801,157.467041 232.323685,156.726608 
	C232.884415,154.377533 233.927353,152.029770 233.933716,149.679184 
	C234.033325,112.906235 234.001694,76.132919 233.986328,39.359688 
	C233.985703,37.870010 234.171417,36.264400 233.690338,34.920399 
	C233.102448,33.278000 231.901535,32.038872 230.227264,34.516739 
	C226.129944,34.470165 221.957718,33.896667 217.948059,34.466694 
	C198.877136,37.177868 179.809891,39.963215 160.825058,43.211483 
	C151.269684,44.846386 152.898239,42.775490 152.783768,52.528782 
	C152.674332,61.852688 152.772415,71.178909 152.757721,80.504074 
	C152.709183,111.306778 152.650894,142.109467 152.073395,173.034683 
	C152.329865,173.716232 152.586334,174.397781 152.972122,175.153763 
	C152.972122,175.153763 152.893158,175.280334 153.095886,175.749741 
M142.944138,174.242874 
	C142.959152,173.498917 142.974152,172.754944 143.835709,172.000031 
	C147.677795,172.265961 146.987228,169.471878 146.988892,167.239655 
	C147.006699,143.247238 147.000458,119.254799 147.000565,95.262360 
	C147.000626,81.266777 146.988174,67.271164 147.012268,53.275627 
	C147.016159,51.013531 147.199829,48.738598 143.904114,48.265320 
	C143.046982,47.495056 142.189850,46.724796 140.968826,45.254230 
	C139.938873,44.847363 138.941544,44.230297 137.874146,44.064587 
	C115.391006,40.574211 92.905846,37.095703 70.407135,33.707455 
	C62.980347,32.588997 62.743313,32.829456 62.736553,40.282436 
	C62.702126,78.234711 62.707478,116.187027 62.716877,154.139328 
	C62.717239,155.605331 62.901539,157.071304 63.015827,158.770676 
	C69.520218,160.210373 75.824379,161.580673 82.116753,163.003220 
	C101.056602,167.285049 119.991867,171.587189 139.268875,176.377869 
	C140.454712,176.557419 141.640549,176.736969 143.463028,176.910492 
	C143.827057,176.517868 144.191086,176.125229 144.555115,175.732605 
	C144.021072,175.484207 143.487015,175.235794 142.944138,174.242874 
z"/>
<path fill="#ffffff" opacity="1.000000" stroke="none" 
	d="
M188.026108,193.312042 
	C188.454880,193.182983 188.883636,193.053925 189.931427,193.246338 
	C196.701111,193.045258 202.851776,192.522720 209.000549,192.396179 
	C209.384903,196.417480 206.277023,195.980301 204.293564,197.037918 
	C202.372681,198.062180 200.755081,199.655212 198.577332,201.003510 
	C189.561890,202.057037 180.497574,201.774719 172.550262,204.616379 
	C167.149612,206.547424 161.093460,205.841843 157.042145,207.975845 
	C151.212433,211.046585 146.477142,210.764526 140.955521,209.489822 
	C132.267807,207.484222 123.597351,205.398712 114.882133,203.520828 
	C112.479828,203.003189 109.881264,203.392883 107.481064,202.869537 
	C95.741081,200.309784 84.091606,197.304993 72.302200,195.012604 
	C64.628426,193.520493 56.769890,192.978592 48.980057,191.627136 
	C44.680759,189.142258 40.395535,187.041260 36.110306,184.940277 
	C36.110306,184.940277 36.025890,184.959793 35.986717,184.729172 
	C35.819645,184.250992 35.621834,184.088593 35.354118,184.011353 
	C34.546833,182.628464 33.739544,181.245590 32.957653,179.069687 
	C32.320122,173.517670 31.657194,168.758667 31.389452,163.989502 
	C32.855606,162.212036 34.851479,160.449631 34.860855,158.676697 
	C35.044827,123.887932 35.056644,89.097549 34.827854,54.309322 
	C34.816162,52.531796 32.332405,50.770523 30.956350,48.679626 
	C30.270496,47.897232 29.627911,47.436886 28.976398,46.612965 
	C28.958715,45.522095 28.949957,44.794804 29.236603,43.840290 
	C31.126854,41.095428 30.922863,36.506214 36.041992,38.319584 
	C36.943233,39.112621 37.801388,39.583637 38.731304,40.472027 
	C38.770081,42.579586 38.737099,44.269775 38.338493,45.964268 
	C37.450714,46.598198 36.481289,47.230709 36.485332,47.856945 
	C36.501198,50.316612 37.002468,52.774086 37.005405,55.232754 
	C37.045494,88.789871 37.007874,122.347115 37.103165,155.904007 
	C37.108051,157.624588 38.140717,159.342255 38.768410,161.498596 
	C38.430553,167.609970 39.795399,172.738739 43.393082,177.540771 
	C44.874870,178.938568 46.475048,179.941223 48.075226,180.943878 
	C48.075226,180.943878 48.030148,181.008896 48.033081,181.342102 
	C48.988785,182.593292 49.788372,183.966385 50.921726,184.347839 
	C55.080433,185.747604 59.353115,186.807098 63.576832,188.015869 
	C66.560089,188.869659 70.120659,191.231018 72.390335,190.326599 
	C77.256645,188.387451 81.377159,189.579498 85.839050,190.715698 
	C86.769966,190.952744 87.928909,190.294327 89.325104,190.026886 
	C90.120293,189.966125 90.573135,189.927032 91.025986,189.887939 
	C91.025986,189.887939 90.948349,190.089294 91.011848,190.495178 
	C92.049110,190.929459 93.022873,190.957870 93.996635,190.986282 
	C94.757065,191.080963 95.517487,191.175629 96.728722,191.721619 
	C98.445221,192.210388 99.710922,192.247818 100.976616,192.285263 
	C103.412506,192.786407 105.848389,193.287552 108.710327,194.258530 
	C112.086044,195.816772 114.960373,197.237854 118.000610,197.926376 
	C124.965034,199.503632 132.421799,198.708603 138.901993,202.798004 
	C140.463806,203.783615 143.010361,203.695969 145.010239,203.420593 
	C157.372742,201.718277 169.675720,199.520050 182.073044,198.173065 
	C185.774246,197.770920 187.485535,196.723450 188.026108,193.312042 
z"/>
<path fill="#ffffff" opacity="1.000000" stroke="none" 
	d="
M258.052734,34.190083 
	C265.290527,33.710728 266.879425,35.117172 266.988800,42.154217 
	C267.019409,44.126629 266.975891,46.100201 266.472107,48.532509 
	C261.656097,48.964890 263.057098,52.268471 263.052612,54.403549 
	C262.979248,89.601845 262.996765,124.800339 262.647522,160.150452 
	C260.821625,160.538803 259.342102,160.775482 257.863403,160.542206 
	C257.865601,125.336998 257.856720,90.601723 257.876587,55.866463 
	C257.880707,48.640972 257.991241,41.415543 258.052734,34.190083 
z"/>
<path fill="#ffffff" opacity="1.000000" stroke="none" 
	d="
M257.862549,161.012161 
	C259.342102,160.775482 260.821625,160.538803 262.708771,160.497650 
	C264.347870,161.134033 265.579407,161.574905 266.810913,162.015762 
	C267.213043,175.551651 261.860504,185.743851 249.030243,191.920074 
	C248.584534,191.989975 248.256927,192.151947 248.256927,192.151947 
	C247.772797,192.396561 247.288651,192.641159 246.116928,192.643539 
	C240.729248,191.531235 236.343353,191.802795 232.989761,195.825058 
	C232.553329,195.919785 232.116898,196.014496 231.114349,195.796173 
	C228.696991,196.003998 226.845764,196.524887 224.994537,197.045776 
	C224.994537,197.045792 224.687698,197.224991 224.090988,197.108475 
	C220.613083,196.850525 217.619186,196.142380 214.874634,196.688080 
	C209.510895,197.754593 204.286407,199.521484 199.004272,200.998413 
	C200.755081,199.655212 202.372681,198.062180 204.293564,197.037918 
	C206.277023,195.980301 209.384903,196.417480 209.420776,192.392609 
	C211.311386,191.792908 212.815384,191.732544 214.242630,191.369995 
	C223.695541,188.968811 233.048325,186.084167 242.597351,184.175812 
	C252.109772,182.274780 255.547897,179.758041 255.916519,169.438766 
	C256.614563,166.382645 257.238556,163.697403 257.862549,161.012161 
z"/>
<path fill="#ffffff" opacity="1.000000" stroke="none" 
	d="
M198.577332,201.003510 
	C204.286407,199.521484 209.510895,197.754593 214.874634,196.688080 
	C217.619186,196.142380 220.613083,196.850525 223.918823,197.064636 
	C213.698608,199.444534 203.073471,201.847488 192.404160,204.034958 
	C178.730164,206.838440 165.030472,209.520325 151.317123,212.124496 
	C148.911972,212.581238 146.285187,212.901871 143.930252,212.433380 
	C119.043236,207.482178 94.199829,202.312317 69.322311,197.312607 
	C62.712215,195.984161 56.026543,195.031784 49.158054,193.292206 
	C48.958405,192.455444 48.976265,192.233215 48.994129,192.010986 
	C56.769890,192.978592 64.628426,193.520493 72.302200,195.012604 
	C84.091606,197.304993 95.741081,200.309784 107.481064,202.869537 
	C109.881264,203.392883 112.479828,203.003189 114.882133,203.520828 
	C123.597351,205.398712 132.267807,207.484222 140.955521,209.489822 
	C146.477142,210.764526 151.212433,211.046585 157.042145,207.975845 
	C161.093460,205.841843 167.149612,206.547424 172.550262,204.616379 
	C180.497574,201.774719 189.561890,202.057037 198.577332,201.003510 
z"/>
<path fill="#ffffff" opacity="1.000000" stroke="none" 
	d="
M266.903992,161.553925 
	C265.579407,161.574905 264.347870,161.134033 263.055115,160.345978 
	C262.996765,124.800339 262.979248,89.601845 263.052612,54.403549 
	C263.057098,52.268471 261.656097,48.964890 266.387573,48.982677 
	C266.871643,66.576767 266.981323,84.179893 267.010864,101.783165 
	C267.044006,121.552742 267.004761,141.322433 266.903992,161.553925 
z"/>
<path fill="transparent" opacity="1.000000" stroke="none" 
	d="
M232.915359,170.759903 
	C240.467239,167.534760 242.825882,164.196960 242.826035,156.270065 
	C242.826736,116.499336 242.830414,76.728615 242.825211,36.957886 
	C242.824112,28.588781 239.535965,24.123384 231.248199,21.282642 
	C231.427933,20.424105 231.868271,19.798025 232.308594,19.171942 
	C235.021652,21.440910 241.046814,18.459967 241.237732,24.817274 
	C241.253357,25.337635 241.911667,25.974443 242.428940,26.323883 
	C252.113327,32.866093 245.813690,41.752026 245.830872,49.687710 
	C245.834335,51.288063 245.039413,52.889244 245.037155,54.490646 
	C244.988434,89.117035 244.950211,123.743698 245.080261,158.369659 
	C245.092712,161.686646 246.226517,164.999435 246.691620,167.513412 
	C243.945694,168.734329 241.811768,169.988052 239.507309,170.617371 
	C237.427063,171.185486 235.440125,175.153305 232.915359,170.759903 
z"/>
<path fill="#ffffff" opacity="1.000000" stroke="none" 
	d="
M257.863403,160.542206 
	C257.238556,163.697403 256.614563,166.382645 255.667160,169.476440 
	C255.174805,169.892532 255.005859,169.900070 254.814606,169.463470 
	C254.841141,166.339264 254.889984,163.659195 255.018402,160.518280 
	C255.041397,154.379013 254.984802,148.700562 255.023285,142.560303 
	C255.131638,134.960129 255.172562,127.821693 255.153076,120.683426 
	C255.089645,97.448265 255.004120,74.213158 255.008865,50.536430 
	C255.035065,47.400040 254.979507,44.705246 254.998444,41.756470 
	C255.022034,41.333519 254.971130,41.164558 254.919067,40.670929 
	C254.987717,38.649590 255.057571,36.952919 255.127411,35.256252 
	C255.127411,35.256252 255.600464,35.155106 256.072388,35.034882 
	C256.739990,34.624519 256.935638,34.334377 257.131317,34.044235 
	C257.131317,34.044231 257.600616,34.062260 257.826691,34.126171 
	C257.991241,41.415543 257.880707,48.640972 257.876587,55.866463 
	C257.856720,90.601723 257.865601,125.336998 257.863403,160.542206 
z"/>
<path fill="#ffffff" opacity="1.000000" stroke="none" 
	d="
M43.511467,177.145645 
	C39.795399,172.738739 38.430553,167.609970 38.871140,161.034821 
	C38.911369,136.197449 38.951138,112.261131 38.922562,88.324898 
	C38.905701,74.203186 38.780560,60.081604 38.704117,45.959965 
	C38.737099,44.269775 38.770081,42.579586 38.854527,40.099880 
	C38.026886,38.305580 37.147785,37.300793 36.572937,36.073547 
	C36.100380,34.983913 35.323574,34.116737 34.546768,33.249565 
	C36.367458,33.224319 38.337177,32.762886 39.959808,33.317303 
	C41.171394,33.731277 42.865803,35.548992 42.763462,36.585419 
	C38.750885,77.222237 42.058987,117.957596 41.025124,158.628021 
	C40.903423,163.415497 40.285885,168.661438 47.353573,169.461105 
	C47.760147,169.507126 48.270756,171.591431 48.153698,172.663895 
	C47.940044,174.621368 47.292202,176.531448 46.417217,178.767883 
	C45.176460,178.431549 44.343964,177.788605 43.511467,177.145645 
z"/>
<path fill="#ffffff" opacity="1.000000" stroke="none" 
	d="
M254.927094,50.978035 
	C255.004120,74.213158 255.089645,97.448265 255.153076,120.683426 
	C255.172562,127.821693 255.131638,134.960129 254.631699,142.553299 
	C253.101318,142.999619 252.057617,142.991104 251.013901,142.982590 
	C251.013657,112.972404 251.013412,82.962219 251.351685,52.449135 
	C252.769165,51.623501 253.848145,51.300770 254.927094,50.978035 
z"/>
<path fill="#ffffff" opacity="1.000000" stroke="none" 
	d="
M55.873768,168.134415 
	C50.440094,169.281647 49.048664,168.408936 49.035816,163.039108 
	C48.962753,132.499786 48.999989,101.960182 48.999889,71.420677 
	C48.999844,57.691742 49.107937,43.961403 48.929546,30.234789 
	C48.881035,26.502396 49.798252,24.845200 54.035240,26.348850 
	C54.387550,26.613033 54.320995,27.039928 54.080078,27.207237 
	C53.539684,27.867870 53.240208,28.361193 52.603630,29.071949 
	C51.863857,32.069698 51.116146,34.849308 51.110451,37.630436 
	C51.029652,77.091301 51.017403,116.552467 51.119392,156.013214 
	C51.125950,158.551636 52.202629,161.087296 52.855797,163.962433 
	C53.911320,165.578552 54.892544,166.856476 55.873768,168.134415 
z"/>
<path fill="#ffffff" opacity="1.000000" stroke="none" 
	d="
M56.136299,168.195068 
	C54.892544,166.856476 53.911320,165.578552 52.909645,163.566910 
	C53.210159,161.869614 53.531120,160.906036 54.133522,159.967590 
	C54.603054,160.002914 54.791153,160.013077 55.001961,160.319397 
	C55.342430,161.083908 55.660191,161.552231 55.977955,162.020569 
	C59.150383,164.345978 62.004848,167.666931 65.557579,168.801590 
	C74.571030,171.680237 83.849487,173.799789 93.111237,175.811691 
	C103.673248,178.106049 114.345886,179.886108 124.943733,182.022263 
	C131.554153,183.354675 138.111954,184.946808 144.700256,186.390945 
	C146.625061,186.812851 148.573578,187.126587 150.716736,187.983185 
	C150.922256,188.476440 150.823410,188.861847 150.823410,188.861847 
	C150.823410,188.861847 150.896530,188.939453 150.530975,188.863983 
	C149.442551,188.904999 148.719650,189.021469 147.996765,189.137939 
	C142.673691,188.187332 137.350632,187.236725 131.339996,186.115295 
	C129.432373,185.728760 128.212326,185.513046 126.992279,185.297348 
	C121.778778,184.130859 116.565277,182.964371 110.714455,181.566681 
	C109.388428,181.250534 108.699722,181.165588 108.011017,181.080658 
	C107.602821,180.919266 107.194618,180.757858 106.183624,180.432648 
	C104.720764,180.173431 103.860718,180.078003 103.000664,179.982574 
	C102.205292,179.710403 101.409927,179.438217 100.066452,179.080261 
	C99.347031,179.015091 99.175705,179.035690 99.004387,179.056305 
	C95.253098,178.100510 91.501808,177.144730 87.131805,176.105621 
	C86.345093,176.054703 86.177094,176.087112 86.009094,176.119537 
	C80.845329,174.873718 75.681564,173.627899 69.901337,172.262924 
	C68.859978,172.121017 68.435104,172.098251 68.010223,172.075500 
	C67.716934,171.924728 67.423637,171.773956 66.563652,171.447784 
	C64.704628,171.074768 63.412300,170.877167 62.119972,170.679565 
	C60.212925,169.871613 58.305878,169.063660 56.136299,168.195068 
z"/>
<path fill="#ffffff" opacity="1.000000" stroke="none" 
	d="
M28.941198,44.067509 
	C28.949957,44.794804 28.958715,45.522095 28.963165,47.084206 
	C28.970396,85.622696 28.981934,123.326378 28.987345,161.354401 
	C28.984386,162.110901 28.987555,162.543060 28.978294,163.404297 
	C28.665016,166.228012 28.364164,168.622635 28.063313,171.017273 
	C27.729797,168.728027 27.108219,166.439133 27.105610,164.149506 
	C27.060274,124.387482 27.090956,84.625381 27.486633,44.407463 
	C28.225878,43.990261 28.583538,44.028885 28.941198,44.067509 
z"/>
<path fill="#ffffff" opacity="1.000000" stroke="none" 
	d="
M187.727036,193.274017 
	C187.485535,196.723450 185.774246,197.770920 182.073044,198.173065 
	C169.675720,199.520050 157.372742,201.718277 145.010239,203.420593 
	C143.010361,203.695969 140.463806,203.783615 138.901993,202.798004 
	C132.421799,198.708603 124.965034,199.503632 118.000610,197.926376 
	C114.960373,197.237854 112.086044,195.816772 109.072899,194.372223 
	C109.009422,194.016098 108.953117,193.807510 109.369934,193.835541 
	C113.858719,194.538544 117.930679,195.213501 122.002640,195.888458 
	C123.110107,196.218628 124.217583,196.548798 125.904648,196.966568 
	C126.654739,197.019089 126.825241,196.984024 126.995735,196.948944 
	C127.415886,197.066956 127.836029,197.184982 128.827301,197.493469 
	C130.265228,197.803802 131.132034,197.923676 131.998856,198.043533 
	C132.141998,198.158463 132.285156,198.273392 133.033478,198.480225 
	C135.382523,198.832565 137.126404,199.093018 138.870285,199.353470 
	C139.399887,199.523163 139.929489,199.692856 140.974915,199.913025 
	C141.656998,199.933517 141.823257,199.903519 141.989517,199.873505 
	C142.558884,200.071365 143.128250,200.269226 144.215149,200.602692 
	C145.147766,200.752487 145.562866,200.766678 145.977966,200.780884 
	C146.434616,200.832794 146.891266,200.884689 147.996750,200.914459 
	C149.014847,200.725433 149.384109,200.558578 149.753372,200.391724 
	C152.392075,199.795990 155.030762,199.200256 157.805878,198.167114 
	C157.942307,197.729691 158.061264,197.786697 158.061264,197.786713 
	C159.107224,197.979858 160.153198,198.173004 161.934174,198.209641 
	C163.039764,197.830124 163.410324,197.607117 163.780869,197.384094 
	C169.934250,196.307541 176.087616,195.230988 182.986420,194.046936 
	C184.379181,193.697617 185.026520,193.455780 185.673859,193.213943 
	C186.258560,193.221283 186.843262,193.228638 187.727036,193.274017 
z"/>
<path fill="#ffffff" opacity="1.000000" stroke="none" 
	d="
M254.836914,169.907608 
	C255.005859,169.900070 255.174805,169.892532 255.593124,169.847321 
	C255.547897,179.758041 252.109772,182.274780 242.597351,184.175812 
	C233.048325,186.084167 223.695541,188.968811 214.242630,191.369995 
	C212.815384,191.732544 211.311386,191.792908 209.422668,191.996628 
	C202.851776,192.522720 196.701111,193.045258 190.268616,193.283844 
	C192.423294,192.417480 194.859802,191.835083 197.981659,191.135986 
	C201.136902,190.413879 203.606766,189.808472 206.076645,189.203064 
	C208.466354,188.810181 210.856049,188.417313 213.877289,187.947327 
	C214.508820,187.870224 214.962585,187.662888 214.962585,187.662903 
	C215.786606,187.508972 216.610611,187.355042 217.973083,187.102173 
	C218.668320,186.934189 218.825104,186.865128 218.981873,186.796051 
	C226.159409,185.476913 233.336945,184.157761 241.169754,182.552277 
	C242.636871,181.885849 243.448715,181.505768 244.260559,181.125687 
	C246.563950,179.308151 248.867355,177.490616 251.558624,175.260162 
	C252.909973,173.200699 253.873444,171.554153 254.836914,169.907608 
z"/>
<path fill="#ffffff" opacity="1.000000" stroke="none" 
	d="
M88.982765,190.048569 
	C87.928909,190.294327 86.769966,190.952744 85.839050,190.715698 
	C81.377159,189.579498 77.256645,188.387451 72.390335,190.326599 
	C70.120659,191.231018 66.560089,188.869659 63.576832,188.015869 
	C59.353115,186.807098 55.080433,185.747604 50.921726,184.347839 
	C49.788372,183.966385 48.988785,182.593292 48.042068,181.303894 
	C49.123146,181.286377 50.198177,181.640289 51.812363,182.406815 
	C54.901897,183.165863 57.452282,183.512299 60.002663,183.858719 
	C60.434216,183.957199 60.865772,184.055664 61.896889,184.407715 
	C63.996929,184.804520 65.497406,184.947754 66.997887,185.090973 
	C67.558105,185.278732 68.118324,185.466492 69.190628,185.754303 
	C70.132355,185.884415 70.562004,185.914429 70.991653,185.944458 
	C71.306549,186.077515 71.621437,186.210587 72.464432,186.504425 
	C73.989830,186.741150 74.987114,186.817078 75.984406,186.893005 
	C77.954010,187.324234 79.923615,187.755463 82.498566,188.383484 
	C83.726982,188.647354 84.350029,188.714432 84.973083,188.781494 
	C85.892601,188.958618 86.812111,189.135742 88.202003,189.475647 
	C88.775848,189.775146 88.879311,189.911865 88.982765,190.048569 
z"/>
<path fill="#ffffff" opacity="1.000000" stroke="none" 
	d="
M251.018677,143.406891 
	C252.057617,142.991104 253.101318,142.999619 254.536621,143.015106 
	C254.984802,148.700562 255.041397,154.379013 254.711548,160.563293 
	C253.554153,161.713181 252.783203,162.357224 252.012238,163.001251 
	C252.008163,159.858490 252.129379,156.709167 251.965424,153.574783 
	C251.795120,150.319397 251.348953,147.078445 251.018677,143.406891 
z"/>
<path fill="#ffffff" opacity="1.000000" stroke="none" 
	d="
M255.008881,50.536430 
	C253.848145,51.300770 252.769165,51.623501 251.352051,51.981533 
	C251.064026,47.304703 250.874146,42.569168 251.329849,37.896595 
	C251.446503,36.700371 249.990891,31.650764 254.976334,34.936447 
	C255.057571,36.952919 254.987717,38.649590 254.761749,40.764877 
	C254.711731,41.459152 254.817841,41.734806 254.923950,42.010460 
	C254.979507,44.705246 255.035065,47.400040 255.008881,50.536430 
z"/>
<path fill="transparent" opacity="1.000000" stroke="none" 
	d="
M158.358536,197.439484 
	C158.061264,197.786697 157.942307,197.729691 157.919739,197.767578 
	C155.782135,194.887177 153.667099,191.968872 151.187729,188.956207 
	C150.823410,188.861847 150.922256,188.476440 150.975128,188.284668 
	C151.474823,188.064133 151.921661,188.035370 152.997437,187.927490 
	C154.415726,187.567978 155.205063,187.287552 155.994415,187.007141 
	C157.117310,186.840683 158.240204,186.674225 159.695801,186.580688 
	C160.358032,190.236664 162.225754,194.022003 158.358536,197.439484 
z"/>
<path fill="transparent" opacity="1.000000" stroke="none" 
	d="
M181.049896,182.382996 
	C187.739517,180.425064 194.480835,178.787140 201.613983,177.183365 
	C201.940720,177.541473 201.962311,178.094193 201.798065,178.156418 
	C195.124374,180.684509 188.823425,184.955490 181.049896,182.382996 
z"/>
<path fill="#ffffff" opacity="1.000000" stroke="none" 
	d="
M48.980057,191.627121 
	C48.976265,192.233215 48.958405,192.455444 48.899555,193.009537 
	C44.650082,190.763123 40.441593,188.184830 36.171707,185.273407 
	C40.395535,187.041260 44.680759,189.142258 48.980057,191.627121 
z"/>
<path fill="#ffffff" opacity="1.000000" stroke="none" 
	d="
M52.940731,28.854515 
	C53.240208,28.361193 53.539684,27.867870 54.423294,27.190659 
	C55.592785,26.247972 56.178146,25.489174 56.763508,24.730375 
	C56.763508,24.730375 56.934032,24.927526 57.189514,24.863853 
	C57.928951,24.120588 58.412914,23.440994 58.896873,22.761402 
	C58.896873,22.761402 58.941814,22.383181 59.304592,22.173298 
	C60.481998,21.797853 61.296627,21.632292 62.111256,21.466732 
	C62.544483,21.395653 62.977707,21.324574 64.038025,21.159300 
	C65.111092,21.001722 65.557060,20.938339 66.003029,20.874956 
	C66.383682,20.982637 66.764328,21.090321 67.525261,21.330242 
	C67.905540,21.462481 68.057465,21.832956 68.057465,21.832956 
	C61.975163,23.396288 57.865036,27.533035 53.898174,32.680687 
	C53.498699,32.983387 53.000885,32.982098 52.992737,32.569756 
	C52.969967,31.056448 52.955349,29.955481 52.940731,28.854515 
z"/>
<path fill="#ffffff" opacity="1.000000" stroke="none" 
	d="
M29.236603,43.840290 
	C28.583538,44.028885 28.225878,43.990261 27.597919,43.947182 
	C27.271093,42.905289 27.214565,41.867855 27.550846,40.353939 
	C28.640196,37.998539 29.336737,36.119614 30.033276,34.240692 
	C31.321644,33.963459 32.610012,33.686222 34.222572,33.329277 
	C35.323574,34.116737 36.100380,34.983913 36.444244,36.249199 
	C36.007172,37.097393 36.003036,37.547482 35.998905,37.997566 
	C30.922863,36.506214 31.126854,41.095428 29.236603,43.840290 
z"/>
<path fill="#ffffff" opacity="1.000000" stroke="none" 
	d="
M251.961609,163.400162 
	C252.783203,162.357224 253.554153,161.713181 254.631973,161.024124 
	C254.889984,163.659195 254.841141,166.339264 254.814590,169.463470 
	C253.873444,171.554153 252.909973,173.200699 251.708160,174.942505 
	C251.616867,171.291534 251.763901,167.545288 251.961609,163.400162 
z"/>
<path fill="transparent" opacity="1.000000" stroke="none" 
	d="
M66.948715,184.734451 
	C65.497406,184.947754 63.996929,184.804520 62.231636,184.394501 
	C61.224625,182.202789 60.482418,180.277863 59.459122,177.623901 
	C60.694557,176.854706 62.540180,175.705597 63.738026,174.959808 
	C64.823814,178.194351 65.861679,181.286133 66.948715,184.734451 
z"/>
<path fill="#ffffff" opacity="1.000000" stroke="none" 
	d="
M28.081184,171.317093 
	C28.364164,168.622635 28.665016,166.228012 29.277145,163.431000 
	C30.057039,163.352310 30.525656,163.675980 30.994270,163.999664 
	C31.657194,168.758667 32.320122,173.517670 32.966644,178.712524 
	C31.333179,176.637894 29.716118,174.127411 28.081184,171.317093 
z"/>
<path fill="transparent" opacity="1.000000" stroke="none" 
	d="
M102.929688,180.352402 
	C103.860718,180.078003 104.720764,180.173431 105.853142,180.452576 
	C103.463699,182.764740 100.801941,184.893173 97.810059,187.285583 
	C95.545456,180.746307 101.744720,183.200836 102.929688,180.352402 
z"/>
<path fill="#ffffff" opacity="1.000000" stroke="none" 
	d="
M233.396057,195.879211 
	C236.343353,191.802795 240.729248,191.531235 245.708588,192.680084 
	C241.925995,193.950348 237.864182,194.941864 233.396057,195.879211 
z"/>
<path fill="transparent" opacity="1.000000" stroke="none" 
	d="
M121.927170,195.533218 
	C117.930679,195.213501 113.858719,194.538544 109.389961,193.729401 
	C113.680328,190.865204 117.787956,192.843292 121.927170,195.533218 
z"/>
<path fill="transparent" opacity="1.000000" stroke="none" 
	d="
M136.015839,31.047947 
	C133.848770,31.174416 131.672043,30.937061 129.200302,30.485079 
	C131.384567,28.480373 133.948151,25.243128 136.015839,31.047947 
z"/>
<path fill="transparent" opacity="1.000000" stroke="none" 
	d="
M68.428436,21.802906 
	C68.057465,21.832956 67.905540,21.462481 67.820129,21.281384 
	C71.543343,20.364492 75.391586,19.219105 78.922623,22.532688 
	C77.649567,22.815245 76.297005,22.739954 74.267784,22.456263 
	C72.726547,22.212723 71.861961,22.177586 70.997383,22.142448 
	C70.264725,22.019251 69.532066,21.896051 68.428436,21.802906 
z"/>
<path fill="transparent" opacity="1.000000" stroke="none" 
	d="
M205.874619,188.904022 
	C203.606766,189.808472 201.136902,190.413879 198.332275,190.970276 
	C199.243378,185.800018 202.454834,187.192093 205.874619,188.904022 
z"/>
<path fill="transparent" opacity="1.000000" stroke="none" 
	d="
M59.941498,183.531479 
	C57.452282,183.512299 54.901897,183.165863 52.146423,182.489502 
	C54.900021,180.134094 57.691914,179.376144 59.941498,183.531479 
z"/>
<path fill="transparent" opacity="1.000000" stroke="none" 
	d="
M29.700218,34.295940 
	C29.336737,36.119614 28.640196,37.998539 27.619488,39.968449 
	C27.985933,38.156689 28.676548,36.253937 29.700218,34.295940 
z"/>
<path fill="transparent" opacity="1.000000" stroke="none" 
	d="
M127.699478,190.945663 
	C126.307755,191.517166 125.024452,191.752380 123.741158,191.987595 
	C123.719917,191.326828 123.698677,190.666046 123.677444,190.005264 
	C125.054268,190.206635 126.431084,190.408005 127.699478,190.945663 
z"/>
<path fill="transparent" opacity="1.000000" stroke="none" 
	d="
M223.692291,172.809174 
	C225.270889,172.161896 227.244339,171.613297 229.601746,171.113113 
	C228.874832,174.632584 226.526718,173.924728 223.692291,172.809174 
z"/>
<path fill="transparent" opacity="1.000000" stroke="none" 
	d="
M225.380310,197.140717 
	C226.845764,196.524887 228.696991,196.003998 230.779480,195.757782 
	C229.262512,196.433517 227.514313,196.834579 225.380310,197.140717 
z"/>
<path fill="transparent" opacity="1.000000" stroke="none" 
	d="
M138.856171,198.958878 
	C137.126404,199.093018 135.382523,198.832565 133.298874,198.406784 
	C134.920090,198.349060 136.881088,198.456680 138.856171,198.958878 
z"/>
<path fill="transparent" opacity="1.000000" stroke="none" 
	d="
M43.393082,177.540771 
	C44.343964,177.788605 45.176460,178.431549 46.310867,179.173523 
	C46.612778,179.272568 46.641796,179.250946 46.781570,179.507294 
	C47.258728,179.893753 47.596104,180.023849 47.933479,180.153931 
	C47.933483,180.153931 47.989059,180.551743 48.032143,180.747803 
	C46.475048,179.941223 44.874870,178.938568 43.393082,177.540771 
z"/>
<path fill="transparent" opacity="1.000000" stroke="none" 
	d="
M62.066238,21.117592 
	C61.296627,21.632292 60.481998,21.797853 59.349068,21.988123 
	C59.245571,21.246626 59.460373,20.480421 59.675179,19.714216 
	C60.457195,20.065628 61.239208,20.417040 62.066238,21.117592 
z"/>
<path fill="transparent" opacity="1.000000" stroke="none" 
	d="
M142.628693,192.832932 
	C142.534668,194.073929 142.247955,195.052994 141.961243,196.032074 
	C141.440857,195.809113 140.920486,195.586166 140.400116,195.363205 
	C141.078751,194.432480 141.757370,193.501740 142.628693,192.832932 
z"/>
<path fill="transparent" opacity="1.000000" stroke="none" 
	d="
M127.068375,185.624588 
	C128.212326,185.513046 129.432373,185.728760 130.915298,186.110367 
	C129.833603,186.168137 128.489029,186.059998 127.068375,185.624588 
z"/>
<path fill="transparent" opacity="1.000000" stroke="none" 
	d="
M243.963013,180.947784 
	C243.448715,181.505768 242.636871,181.885849 241.480835,182.319000 
	C241.384567,181.421509 241.632492,180.470947 241.880432,179.520386 
	C242.475433,179.936890 243.070435,180.353394 243.963013,180.947784 
z"/>
<path fill="transparent" opacity="1.000000" stroke="none" 
	d="
M62.128571,171.060272 
	C63.412300,170.877167 64.704628,171.074768 66.318375,171.502472 
	C65.138916,171.635391 63.638042,171.538177 62.128571,171.060272 
z"/>
<path fill="transparent" opacity="1.000000" stroke="none" 
	d="
M93.731079,190.798706 
	C93.022873,190.957870 92.049110,190.929459 90.991348,190.601105 
	C91.760071,190.404480 92.612801,190.507797 93.731079,190.798706 
z"/>
<path fill="transparent" opacity="1.000000" stroke="none" 
	d="
M100.669762,192.123947 
	C99.710922,192.247818 98.445221,192.210388 97.074219,191.891296 
	C98.100235,191.727310 99.231575,191.844971 100.669762,192.123947 
z"/>
<path fill="transparent" opacity="1.000000" stroke="none" 
	d="
M131.951584,197.703888 
	C131.132034,197.923676 130.265228,197.803802 129.156494,197.459259 
	C129.911163,197.277817 130.907745,197.321030 131.951584,197.703888 
z"/>
<path fill="transparent" opacity="1.000000" stroke="none" 
	d="
M148.060516,189.467255 
	C148.719650,189.021469 149.442551,188.904999 150.531372,188.810669 
	C150.656876,191.121948 149.785721,191.596207 148.060516,189.467255 
z"/>
<path fill="transparent" opacity="1.000000" stroke="none" 
	d="
M153.923706,31.954689 
	C153.269058,32.436749 152.449905,32.639156 151.311310,32.772800 
	C151.914307,32.361034 152.836777,32.018036 153.923706,31.954689 
z"/>
<path fill="transparent" opacity="1.000000" stroke="none" 
	d="
M92.809540,24.729912 
	C91.822922,24.911531 90.646553,24.826387 89.177475,24.540054 
	C90.129768,24.380293 91.374779,24.421719 92.809540,24.729912 
z"/>
<path fill="transparent" opacity="1.000000" stroke="none" 
	d="
M173.682953,183.857742 
	C174.308060,183.467834 175.272324,183.214371 176.620850,182.988052 
	C176.010773,183.341522 175.016449,183.667862 173.682953,183.857742 
z"/>
<path fill="transparent" opacity="1.000000" stroke="none" 
	d="
M56.492912,24.793909 
	C56.178146,25.489174 55.592785,26.247972 54.664207,27.023350 
	C54.320995,27.039928 54.387550,26.613033 54.428574,26.400946 
	C55.053837,25.745054 55.638073,25.301249 56.492912,24.793909 
z"/>
<path fill="transparent" opacity="1.000000" stroke="none" 
	d="
M58.620346,22.896793 
	C58.412914,23.440994 57.928951,24.120588 57.087738,24.782440 
	C57.268261,24.187191 57.806042,23.609688 58.620346,22.896793 
z"/>
<path fill="transparent" opacity="1.000000" stroke="none" 
	d="
M178.046112,28.238060 
	C177.625549,28.679131 177.086975,28.829651 176.272278,28.910944 
	C176.640121,28.543648 177.284119,28.245577 178.046112,28.238060 
z"/>
<path fill="transparent" opacity="1.000000" stroke="none" 
	d="
M124.951256,29.569910 
	C124.437447,29.849833 123.872330,29.823074 123.078300,29.621124 
	C123.532906,29.385033 124.216431,29.324131 124.951256,29.569910 
z"/>
<path fill="transparent" opacity="1.000000" stroke="none" 
	d="
M205.936157,176.651703 
	C206.370697,176.211258 206.912369,176.075958 207.728088,176.018463 
	C207.349197,176.383133 206.696243,176.669983 205.936157,176.651703 
z"/>
<path fill="transparent" opacity="1.000000" stroke="none" 
	d="
M218.050568,22.252321 
	C217.627258,22.686205 217.087845,22.827852 216.271927,22.902687 
	C216.641769,22.543947 217.288116,22.252016 218.050568,22.252321 
z"/>
<path fill="transparent" opacity="1.000000" stroke="none" 
	d="
M93.390564,187.465332 
	C92.941673,187.349487 92.666519,187.066849 92.412613,186.766251 
	C92.406113,186.758560 92.632820,186.553909 92.750778,186.441116 
	C93.022881,186.726135 93.294983,187.011169 93.390564,187.465332 
z"/>
<path fill="transparent" opacity="1.000000" stroke="none" 
	d="
M65.958389,20.587347 
	C65.557060,20.938339 65.111092,21.001722 64.331764,21.002045 
	C64.307571,20.431293 64.616745,19.923603 64.925919,19.415913 
	C65.255196,19.710522 65.584465,20.005129 65.958389,20.587347 
z"/>
<path fill="transparent" opacity="1.000000" stroke="none" 
	d="
M146.949371,32.920647 
	C146.426880,33.278027 145.867401,33.277920 145.081482,33.089832 
	C145.540817,32.788956 146.226593,32.676060 146.949371,32.920647 
z"/>
<path fill="transparent" opacity="1.000000" stroke="none" 
	d="
M106.695137,26.650360 
	C105.640991,26.869188 104.292725,26.809338 102.631454,26.486568 
	C103.679306,26.272993 105.040161,26.322338 106.695137,26.650360 
z"/>
<path fill="transparent" opacity="1.000000" stroke="none" 
	d="
M168.778824,184.881317 
	C169.332657,184.545700 170.282471,184.253143 171.613708,183.995499 
	C171.055008,184.328415 170.114914,184.626389 168.778824,184.881317 
z"/>
<path fill="transparent" opacity="1.000000" stroke="none" 
	d="
M75.712341,186.630463 
	C74.987114,186.817078 73.989830,186.741150 72.709686,186.408600 
	C73.431313,186.223953 74.435791,186.295944 75.712341,186.630463 
z"/>
<path fill="transparent" opacity="1.000000" stroke="none" 
	d="
M111.704239,27.580059 
	C111.262123,27.800480 110.543655,27.784819 109.550293,27.530182 
	C109.992889,27.308798 110.710381,27.326389 111.704239,27.580059 
z"/>
<path fill="transparent" opacity="1.000000" stroke="none" 
	d="
M190.368759,26.243694 
	C190.064560,26.537678 189.399734,26.736900 188.376984,26.885155 
	C188.682083,26.605770 189.345093,26.377352 190.368759,26.243694 
z"/>
<path fill="transparent" opacity="1.000000" stroke="none" 
	d="
M89.325104,190.026886 
	C88.879311,189.911865 88.775848,189.775146 88.548691,189.412628 
	C89.121597,189.256180 89.818207,189.325531 90.770401,189.641418 
	C90.573135,189.927032 90.120293,189.966125 89.325104,190.026886 
z"/>
<path fill="transparent" opacity="1.000000" stroke="none" 
	d="
M84.744263,188.561584 
	C84.350029,188.714432 83.726982,188.647354 82.879295,188.352905 
	C83.274925,188.197586 83.895187,188.269638 84.744263,188.561584 
z"/>
<path fill="transparent" opacity="1.000000" stroke="none" 
	d="
M108.255257,181.336853 
	C108.699722,181.165588 109.388428,181.250534 110.329109,181.586166 
	C109.887222,181.755585 109.193359,181.674316 108.255257,181.336853 
z"/>
<path fill="transparent" opacity="1.000000" stroke="none" 
	d="
M185.312149,193.161804 
	C185.026520,193.455780 184.379181,193.697617 183.375381,193.895447 
	C183.662766,193.604187 184.306595,193.356918 185.312149,193.161804 
z"/>
<path fill="#F9FBFA" opacity="1.000000" stroke="none" 
	d="
M84.744713,23.665968 
	C84.560150,23.890060 84.132233,23.889973 83.459007,23.675114 
	C83.642914,23.454157 84.072144,23.447971 84.744713,23.665968 
z"/>
<path fill="#293950" opacity="1.000000" stroke="none" 
	d="
M248.350098,192.253754 
	C248.256927,192.151947 248.584534,191.989975 248.675018,191.976135 
	C248.772919,192.187759 248.665512,192.318848 248.350098,192.253754 
z"/>
<path fill="#F9FBFA" opacity="1.000000" stroke="none" 
	d="
M99.928902,25.837284 
	C99.826340,26.036844 99.652519,26.068110 99.246681,25.971558 
	C99.295647,25.785488 99.576645,25.727238 99.928902,25.837284 
z"/>
<path fill="#F9FBFA" opacity="1.000000" stroke="none" 
	d="
M126.919678,196.788406 
	C126.825241,196.984024 126.654739,197.019089 126.250732,196.937408 
	C126.292686,196.756393 126.568153,196.692139 126.919678,196.788406 
z"/>
<path fill="#F9FBFA" opacity="1.000000" stroke="none" 
	d="
M228.892181,20.708920 
	C228.827789,20.907467 228.666229,20.958815 228.255615,20.958809 
	C228.269363,20.792212 228.532181,20.676968 228.892181,20.708920 
z"/>
<path fill="#F9FBFA" opacity="1.000000" stroke="none" 
	d="
M163.444580,197.326630 
	C163.410324,197.607117 163.039764,197.830124 162.336060,198.017014 
	C162.371368,197.743652 162.739838,197.506393 163.444580,197.326630 
z"/>
<path fill="#F9FBFA" opacity="1.000000" stroke="none" 
	d="
M141.909546,199.723083 
	C141.823257,199.903519 141.656998,199.933517 141.257202,199.865250 
	C141.292297,199.702209 141.560928,199.637421 141.909546,199.723083 
z"/>
<path fill="#F9FBFA" opacity="1.000000" stroke="none" 
	d="
M145.741058,200.578827 
	C145.562866,200.766678 145.147766,200.752487 144.505890,200.514435 
	C144.687454,200.319336 145.095810,200.348068 145.741058,200.578827 
z"/>
<path fill="#F9FBFA" opacity="1.000000" stroke="none" 
	d="
M149.443420,200.317093 
	C149.384109,200.558578 149.014847,200.725433 148.334625,200.835876 
	C148.393600,200.600433 148.763535,200.421448 149.443420,200.317093 
z"/>
<path fill="#F9FBFA" opacity="1.000000" stroke="none" 
	d="
M120.924530,28.843376 
	C120.830193,29.045288 120.659416,29.077406 120.247925,29.009560 
	C120.287498,28.830925 120.567795,28.752253 120.924530,28.843376 
z"/>
<path fill="#F9FBFA" opacity="1.000000" stroke="none" 
	d="
M256.895294,34.113922 
	C256.935638,34.334377 256.739990,34.624519 256.278931,34.909031 
	C256.139496,34.583351 256.354736,34.343422 256.895294,34.113922 
z"/>
<path fill="#F9FBFA" opacity="1.000000" stroke="none" 
	d="
M162.884735,30.712727 
	C162.830582,30.944159 162.673721,31.026915 162.259186,31.043503 
	C162.261688,30.839573 162.521866,30.701811 162.884735,30.712727 
z"/>
<path fill="#F9FBFA" opacity="1.000000" stroke="none" 
	d="
M158.929337,31.060177 
	C158.895065,31.407366 158.754990,31.527184 158.340210,31.618259 
	C158.318176,31.337282 158.570847,31.085043 158.929337,31.060177 
z"/>
<path fill="#F9FBFA" opacity="1.000000" stroke="none" 
	d="
M68.245422,172.308182 
	C68.435104,172.098251 68.859978,172.121017 69.526558,172.357956 
	C69.339050,172.561707 68.909836,172.551285 68.245422,172.308182 
z"/>
<path fill="#F9FBFA" opacity="1.000000" stroke="none" 
	d="
M219.565063,173.716461 
	C219.604706,173.463135 219.971085,173.256348 220.662079,173.079163 
	C220.621719,173.326843 220.256760,173.544907 219.565063,173.716461 
z"/>
<path fill="#F9FBFA" opacity="1.000000" stroke="none" 
	d="
M171.399353,29.234898 
	C171.360489,29.477137 171.007782,29.688366 170.338226,29.853806 
	C170.376083,29.606640 170.730789,29.405264 171.399353,29.234898 
z"/>
<path fill="#F9FBFA" opacity="1.000000" stroke="none" 
	d="
M211.141449,175.403076 
	C211.180206,175.184296 211.329346,175.094360 211.735397,175.051773 
	C211.745468,175.243393 211.498642,175.387665 211.141449,175.403076 
z"/>
<path fill="#F9FBFA" opacity="1.000000" stroke="none" 
	d="
M86.087799,176.270874 
	C86.177094,176.087112 86.345093,176.054703 86.744766,176.132660 
	C86.706474,176.302765 86.436493,176.362488 86.087799,176.270874 
z"/>
<path fill="#F9FBFA" opacity="1.000000" stroke="none" 
	d="
M242.449646,177.532623 
	C242.416397,177.477005 242.482880,177.588257 242.449646,177.532623 
z"/>
<path fill="#F9FBFA" opacity="1.000000" stroke="none" 
	d="
M214.856659,187.542755 
	C214.962585,187.662888 214.508820,187.870224 214.262619,187.830170 
	C214.161972,187.425766 214.406738,187.303253 214.856659,187.542755 
z"/>
<path fill="transparent" opacity="1.000000" stroke="none" 
	d="
M47.817810,179.894928 
	C47.596104,180.023849 47.258728,179.893753 46.798538,179.512772 
	C47.017864,179.386581 47.360004,179.511261 47.817810,179.894928 
z"/>
<path fill="transparent" opacity="1.000000" stroke="none" 
	d="
M99.075813,179.216476 
	C99.175705,179.035690 99.347031,179.015091 99.747658,179.114502 
	C99.700394,179.281906 99.423813,179.329285 99.075813,179.216476 
z"/>
<path fill="transparent" opacity="1.000000" stroke="none" 
	d="
M117.902008,28.669613 
	C117.820946,28.848249 117.656250,28.884558 117.258835,28.821711 
	C117.238945,28.371922 117.503036,28.306831 117.902008,28.669613 
z"/>
<path fill="transparent" opacity="1.000000" stroke="none" 
	d="
M182.875641,27.610168 
	C182.820709,27.805994 182.664215,27.870432 182.260025,27.879385 
	C182.170975,27.443672 182.424896,27.328634 182.875641,27.610168 
z"/>
<path fill="transparent" opacity="1.000000" stroke="none" 
	d="
M89.450302,181.532303 
	C89.417259,181.476944 89.483353,181.587662 89.450302,181.532303 
z"/>
<path fill="transparent" opacity="1.000000" stroke="none" 
	d="
M179.142700,182.434723 
	C179.182327,182.226440 179.331955,182.141235 179.735596,182.102844 
	C179.856720,182.534134 179.611099,182.670181 179.142700,182.434723 
z"/>
<path fill="transparent" opacity="1.000000" stroke="none" 
	d="
M35.401222,184.219833 
	C35.621834,184.088593 35.819645,184.250992 35.999672,184.687836 
	C35.692280,184.940689 35.491119,184.791077 35.401222,184.219833 
z"/>
<path fill="transparent" opacity="1.000000" stroke="none" 
	d="
M70.759613,185.705231 
	C70.562004,185.914429 70.132355,185.884415 69.466270,185.627167 
	C69.662415,185.421967 70.094994,185.443985 70.759613,185.705231 
z"/>
<path fill="transparent" opacity="1.000000" stroke="none" 
	d="
M165.556458,185.651947 
	C165.605560,185.393127 165.977539,185.211472 166.668808,185.060516 
	C166.618515,185.303848 166.248932,185.516495 165.556458,185.651947 
z"/>
<path fill="transparent" opacity="1.000000" stroke="none" 
	d="
M218.877930,186.657623 
	C218.825104,186.865128 218.668320,186.934189 218.259232,186.954315 
	C218.262619,186.776657 218.518295,186.647919 218.877930,186.657623 
z"/>
<path fill="transparent" opacity="1.000000" stroke="none" 
	d="
M231.605118,157.151733 
	C231.473801,157.467041 231.342499,157.782333 230.923477,158.462769 
	C229.095047,159.277100 227.554337,159.726288 226.013611,160.175461 
	C204.362885,164.880051 182.711777,169.582886 161.062042,174.291992 
	C158.963074,174.748550 156.872574,175.244064 154.228790,175.709747 
	C153.407181,175.577942 153.145081,175.438721 152.893158,175.280334 
	C152.893158,175.280334 152.972122,175.153763 152.953705,174.748413 
	C152.822311,173.866089 152.709320,173.389130 152.596344,172.912170 
	C152.650894,142.109467 152.709183,111.306778 152.757721,80.504074 
	C152.772415,71.178909 152.674332,61.852688 152.783768,52.528782 
	C152.898239,42.775490 151.269684,44.846386 160.825058,43.211483 
	C179.809891,39.963215 198.877136,37.177868 217.948059,34.466694 
	C221.957718,33.896667 226.129944,34.470165 230.640656,35.057587 
	C231.084061,36.068729 231.114075,36.539032 230.820526,37.092842 
	C230.771225,37.768440 231.045517,38.360531 231.304199,39.423824 
	C231.281433,76.334961 231.267227,112.774895 231.281723,149.214828 
	C231.282776,151.860504 231.492447,154.506104 231.605118,157.151733 
z"/>
<path fill="transparent" opacity="1.000000" stroke="none" 
	d="
M138.928925,175.881409 
	C119.991867,171.587189 101.056602,167.285049 82.116753,163.003220 
	C75.824379,161.580673 69.520218,160.210373 63.015827,158.770676 
	C62.901539,157.071304 62.717239,155.605331 62.716877,154.139328 
	C62.707478,116.187027 62.702126,78.234711 62.736553,40.282436 
	C62.743313,32.829456 62.980347,32.588997 70.407135,33.707455 
	C92.905846,37.095703 115.391006,40.574211 137.874146,44.064587 
	C138.941544,44.230297 139.938873,44.847363 141.044098,46.065369 
	C141.099518,49.538292 141.062668,52.200077 141.062363,54.861866 
	C141.057968,93.461868 141.086182,132.061951 140.967560,170.661591 
	C140.962189,172.403595 139.638550,174.141556 138.928925,175.881409 
z"/>
<path fill="#ffffff" opacity="1.000000" stroke="none" 
	d="
M53.000885,32.982098 
	C53.000885,32.982098 53.498699,32.983387 53.747559,32.981701 
	C54.997940,34.642838 56.850437,36.293011 56.875362,37.970345 
	C57.376167,71.669792 57.690880,105.372169 57.979317,139.074493 
	C58.038170,145.950851 57.872421,152.830200 57.707310,159.705719 
	C57.690845,160.391342 56.954826,161.059677 56.265358,161.878296 
	C55.660191,161.552231 55.342430,161.083908 54.988106,160.015121 
	C54.622501,158.942078 54.293457,158.469467 53.907364,157.582993 
	C53.560696,155.215393 53.020554,153.261963 53.018425,151.307922 
	C52.975521,111.866028 52.994408,72.424057 53.000885,32.982098 
z"/>
<path fill="#ffffff" opacity="1.000000" stroke="none" 
	d="
M143.872467,48.945656 
	C147.199829,48.738598 147.016159,51.013531 147.012268,53.275627 
	C146.988174,67.271164 147.000626,81.266777 147.000565,95.262360 
	C147.000458,119.254799 147.006699,143.247238 146.988892,167.239655 
	C146.987228,169.471878 147.677795,172.265961 143.396454,171.535812 
	C142.955292,132.107162 142.941513,93.142715 142.990570,54.178352 
	C142.992767,52.433750 143.565491,50.689869 143.872467,48.945656 
z"/>
<path fill="#ffffff" opacity="1.000000" stroke="none" 
	d="
M231.144104,37.009331 
	C231.114075,36.539032 231.084061,36.068729 231.012115,35.246052 
	C231.901535,32.038872 233.102448,33.278000 233.690338,34.920399 
	C234.171417,36.264400 233.985703,37.870010 233.986328,39.359688 
	C234.001694,76.132919 234.033325,112.906235 233.933716,149.679184 
	C233.927353,152.029770 232.884415,154.377533 231.964401,156.939178 
	C231.492447,154.506104 231.282776,151.860504 231.281723,149.214828 
	C231.267227,112.774895 231.281433,76.334961 231.526215,39.283604 
	C231.557236,38.117893 231.350677,37.563614 231.144104,37.009331 
z"/>
<path fill="#ffffff" opacity="1.000000" stroke="none" 
	d="
M143.888306,48.605488 
	C143.565491,50.689869 142.992767,52.433750 142.990570,54.178352 
	C142.941513,93.142715 142.955292,132.107162 142.973175,171.541290 
	C142.974152,172.754944 142.959152,173.498917 142.936279,174.937866 
	C142.894394,176.060730 142.860397,176.488632 142.826385,176.916534 
	C141.640549,176.736969 140.454712,176.557419 139.098907,176.129639 
	C139.638550,174.141556 140.962189,172.403595 140.967560,170.661591 
	C141.086182,132.061951 141.057968,93.461868 141.062363,54.861866 
	C141.062668,52.200077 141.099518,49.538292 141.226044,46.415520 
	C142.189850,46.724796 143.046982,47.495056 143.888306,48.605488 
z"/>
<path fill="transparent" opacity="1.000000" stroke="none" 
	d="
M226.292877,160.417908 
	C227.554337,159.726288 229.095047,159.277100 230.957336,158.720566 
	C231.317017,159.305069 231.355148,159.996902 231.393280,160.688751 
	C229.786240,160.679291 228.179199,160.669815 226.292877,160.417908 
z"/>
<path fill="transparent" opacity="1.000000" stroke="none" 
	d="
M71.063187,22.473316 
	C71.861961,22.177586 72.726547,22.212723 73.858025,22.440056 
	C73.126282,22.689562 72.127640,22.746872 71.063187,22.473316 
z"/>
<path fill="transparent" opacity="1.000000" stroke="none" 
	d="
M155.810760,186.758408 
	C155.205063,187.287552 154.415726,187.567978 153.308868,187.795990 
	C153.869934,187.332291 154.748520,186.920990 155.810760,186.758408 
z"/>
<path fill="transparent" opacity="1.000000" stroke="none" 
	d="
M143.144714,176.913513 
	C142.860397,176.488632 142.894394,176.060730 142.940689,175.310120 
	C143.487015,175.235794 144.021072,175.484207 144.555115,175.732605 
	C144.191086,176.125229 143.827057,176.517868 143.144714,176.913513 
z"/>
<path fill="transparent" opacity="1.000000" stroke="none" 
	d="
M152.334869,172.973419 
	C152.709320,173.389130 152.822311,173.866089 152.889053,174.711182 
	C152.586334,174.397781 152.329865,173.716232 152.334869,172.973419 
z"/>
<path fill="transparent" opacity="1.000000" stroke="none" 
	d="
M152.994522,175.515045 
	C153.145081,175.438721 153.407181,175.577942 153.861816,175.824310 
	C153.728104,175.883667 153.411987,175.816696 152.994522,175.515045 
z"/>
<path fill="#ffffff" opacity="1.000000" stroke="none" 
	d="
M31.389454,163.989502 
	C30.525656,163.675980 30.057039,163.352310 29.289574,163.001923 
	C28.987555,162.543060 28.984386,162.110901 29.384020,161.255463 
	C30.190399,158.999481 30.942389,157.167465 30.946022,155.333969 
	C31.016266,119.889984 30.998932,84.445808 30.999619,49.001678 
	C32.332405,50.770523 34.816162,52.531796 34.827854,54.309322 
	C35.056644,89.097549 35.044827,123.887932 34.860855,158.676697 
	C34.851479,160.449631 32.855606,162.212036 31.389454,163.989502 
z"/>
<path fill="#ffffff" opacity="1.000000" stroke="none" 
	d="
M38.338490,45.964268 
	C38.780560,60.081604 38.905701,74.203186 38.922562,88.324898 
	C38.951138,112.261131 38.911369,136.197449 38.797600,160.597504 
	C38.140717,159.342255 37.108051,157.624588 37.103165,155.904007 
	C37.007874,122.347115 37.045494,88.789871 37.005405,55.232754 
	C37.002468,52.774086 36.501198,50.316612 36.485332,47.856945 
	C36.481289,47.230709 37.450714,46.598198 38.338490,45.964268 
z"/>
<path fill="#ffffff" opacity="1.000000" stroke="none" 
	d="
M30.956352,48.679626 
	C30.998932,84.445808 31.016266,119.889984 30.946022,155.333969 
	C30.942389,157.167465 30.190399,158.999481 29.390146,160.931122 
	C28.981934,123.326378 28.970396,85.622696 28.972092,47.447777 
	C29.627911,47.436886 30.270496,47.897232 30.956352,48.679626 
z"/>
<path fill="#ffffff" opacity="1.000000" stroke="none" 
	d="
M36.041992,38.319584 
	C36.003036,37.547482 36.007172,37.097393 36.139996,36.471657 
	C37.147785,37.300793 38.026886,38.305580 38.782764,39.682510 
	C37.801388,39.583637 36.943233,39.112621 36.041992,38.319584 
z"/>
<path fill="#ffffff" opacity="1.000000" stroke="none" 
	d="
M254.998444,41.756470 
	C254.817841,41.734806 254.711731,41.459152 254.762939,41.089550 
	C254.971130,41.164558 255.022034,41.333519 254.998444,41.756470 
z"/>
<path fill="#ffffff" opacity="1.000000" stroke="none" 
	d="
M52.992737,32.569756 
	C52.994408,72.424057 52.975521,111.866028 53.018425,151.307922 
	C53.020554,153.261963 53.560696,155.215393 53.897453,157.908234 
	C53.913750,159.079041 53.882912,159.510742 53.852081,159.942444 
	C53.531120,160.906036 53.210159,161.869614 52.835350,163.228729 
	C52.202629,161.087296 51.125950,158.551636 51.119392,156.013214 
	C51.017403,116.552467 51.029652,77.091301 51.110451,37.630436 
	C51.116146,34.849308 51.863857,32.069698 52.603630,29.071949 
	C52.955349,29.955481 52.969967,31.056448 52.992737,32.569756 
z"/>
<path fill="transparent" opacity="1.000000" stroke="none" 
	d="
M54.133518,159.967590 
	C53.882912,159.510742 53.913750,159.079041 53.954498,158.322113 
	C54.293457,158.469467 54.622501,158.942078 54.965401,159.718964 
	C54.791153,160.013077 54.603054,160.002914 54.133518,159.967590 
z"/>
<path fill="transparent" opacity="1.000000" stroke="none" 
	d="
M230.820526,37.092842 
	C231.350677,37.563614 231.557236,38.117893 231.541809,38.812397 
	C231.045517,38.360531 230.771225,37.768440 230.820526,37.092842 
z"/>
</svg>