<?xml version="1.0" standalone="no"?>
<!DOCTYPE svg PUBLIC "-//W3C//DTD SVG 20010904//EN"
 "http://www.w3.org/TR/2001/REC-SVG-20010904/DTD/svg10.dtd">
<svg version="1.0" xmlns="http://www.w3.org/2000/svg"
 width="80" height="80" viewBox="0 0 900.000000 810.000000"
 preserveAspectRatio="xMidYMid meet">
<metadata>
Created by potrace 1.10, written by Peter Selinger 2001-2011
</metadata>
<g transform="translate(0.000000,810.000000) scale(0.100000,-0.100000)"
fill="#FFFFFF" stroke="none">
<path d="M4260 7718 c-25 -5 -90 -12 -146 -17 -55 -4 -110 -13 -122 -20 -11
-6 -41 -11 -67 -11 -25 0 -62 -7 -82 -15 -19 -8 -49 -15 -65 -15 -16 0 -45 -7
-65 -15 -19 -8 -47 -15 -62 -15 -14 -1 -37 -7 -51 -15 -14 -8 -37 -14 -51 -15
-15 0 -40 -7 -55 -15 -16 -8 -38 -15 -49 -15 -11 0 -29 -7 -39 -15 -11 -8 -30
-15 -42 -15 -12 0 -35 -6 -51 -14 -47 -24 -100 -46 -113 -46 -6 0 -49 -18 -96
-40 -47 -22 -89 -40 -94 -40 -8 0 -61 -25 -151 -71 -73 -38 -208 -116 -274
-159 -33 -22 -67 -43 -75 -46 -20 -10 -224 -161 -320 -238 -94 -75 -262 -236
-400 -382 -89 -95 -300 -363 -300 -382 0 -6 -6 -15 -13 -19 -13 -9 -107 -147
-107 -158 0 -3 -11 -21 -24 -38 -44 -59 -237 -451 -270 -549 -9 -26 -20 -56
-25 -65 -12 -25 -31 -81 -41 -121 -4 -18 -12 -38 -18 -45 -5 -7 -12 -25 -15
-42 -2 -16 -10 -45 -16 -62 -6 -18 -16 -48 -22 -65 -6 -18 -14 -53 -18 -78 -4
-25 -13 -55 -19 -67 -7 -12 -12 -37 -12 -56 0 -19 -7 -51 -15 -70 -8 -20 -15
-56 -15 -79 0 -24 -7 -65 -15 -93 -9 -27 -13 -56 -10 -64 5 -12 -13 -173 -31
-288 -4 -27 -19 -42 -84 -88 -87 -61 -146 -125 -180 -191 -11 -24 -25 -46 -31
-49 -5 -4 -9 -16 -9 -28 0 -13 -6 -31 -13 -42 -29 -42 -38 -243 -37 -825 0
-565 8 -741 34 -805 74 -177 178 -296 318 -363 107 -50 164 -65 267 -70 254
-11 529 164 602 383 7 22 16 45 20 50 25 34 30 213 27 880 -3 643 -4 703 -21
734 -9 19 -17 40 -17 48 0 18 -63 126 -103 176 -16 21 -66 66 -111 99 -45 33
-84 66 -89 73 -4 7 -2 44 4 82 6 37 14 109 18 158 5 50 13 103 20 118 6 16 11
46 11 68 0 22 5 50 11 61 6 11 15 44 19 72 4 28 13 65 18 81 6 17 16 50 23 75
16 62 67 219 84 255 7 17 16 41 20 55 16 56 197 410 249 489 31 46 56 85 56
87 0 4 104 147 168 230 80 104 260 292 375 392 126 110 309 251 347 269 8 4
44 27 80 52 36 25 101 64 145 88 130 69 366 183 381 183 5 0 31 9 59 19 27 11
97 34 155 51 58 17 119 36 135 42 17 5 50 14 75 18 25 4 58 12 73 19 16 6 43
11 61 11 19 0 53 7 76 15 23 8 68 15 99 15 31 1 83 7 116 15 86 21 572 21 670
0 38 -8 92 -15 120 -15 27 -1 68 -7 90 -15 22 -8 57 -15 78 -15 21 0 54 -7 74
-15 19 -8 50 -15 69 -15 18 0 35 -4 39 -9 3 -6 27 -13 53 -17 26 -3 52 -10 57
-13 6 -4 35 -14 65 -24 146 -44 146 -44 273 -101 32 -14 60 -26 62 -26 9 0
200 -92 205 -99 3 -3 27 -17 53 -31 118 -61 466 -303 517 -360 8 -9 52 -49 98
-90 130 -116 472 -513 472 -548 0 -4 13 -23 30 -42 16 -19 29 -38 30 -42 0 -4
18 -36 39 -71 21 -35 58 -102 81 -148 23 -46 45 -91 50 -99 5 -8 23 -46 40
-85 18 -38 38 -82 46 -97 8 -14 14 -35 14 -46 0 -11 6 -25 14 -31 8 -6 16 -24
19 -39 6 -33 25 -88 43 -124 8 -14 14 -37 14 -50 1 -12 7 -34 15 -48 8 -14 14
-39 15 -57 0 -17 5 -35 10 -38 6 -3 10 -22 10 -41 0 -19 7 -51 15 -71 8 -19
15 -52 15 -72 0 -20 5 -52 11 -71 6 -19 15 -75 19 -125 5 -49 12 -124 16 -165
l6 -75 -58 -40 c-77 -52 -139 -110 -174 -160 -45 -65 -80 -132 -80 -152 0 -11
-4 -23 -9 -28 -6 -6 -12 -28 -16 -50 -22 -160 -11 -1533 13 -1557 6 -6 12 -24
12 -39 0 -23 -11 -35 -67 -70 -97 -62 -89 -58 -235 -131 -161 -80 -201 -98
-221 -98 -9 0 -18 -4 -21 -9 -3 -5 -18 -12 -33 -15 -16 -4 -41 -13 -58 -20
-16 -8 -50 -19 -75 -26 -25 -6 -58 -16 -75 -22 -16 -5 -46 -13 -65 -18 -72
-16 -136 -32 -180 -46 -25 -7 -58 -13 -75 -12 -16 0 -49 -5 -72 -11 -24 -6
-66 -13 -95 -15 -29 -2 -80 -9 -113 -15 -89 -16 -97 -15 -140 29 -49 50 -96
81 -157 104 -41 15 -87 17 -373 17 -352 0 -369 -2 -455 -57 -64 -42 -121 -118
-135 -183 -3 -17 -11 -33 -16 -36 -15 -10 -10 -133 8 -188 9 -29 26 -68 39
-87 31 -52 129 -137 164 -145 16 -4 32 -11 35 -16 4 -5 153 -9 358 -9 l352 1
52 27 c56 29 117 81 151 129 16 23 31 32 64 36 24 3 81 13 128 21 46 9 92 13
102 10 9 -3 41 2 69 10 29 9 66 16 83 16 31 0 131 21 220 46 26 8 59 14 72 14
12 0 26 5 29 10 3 5 17 10 31 10 14 0 35 5 47 12 12 6 38 15 57 19 43 9 96 27
132 45 14 8 35 14 46 14 11 0 25 7 32 15 7 8 21 15 30 15 10 0 31 6 47 14 15
8 84 42 153 75 149 73 265 136 311 172 76 58 97 61 177 23 86 -40 160 -58 257
-60 275 -6 516 157 614 417 37 95 44 284 37 924 -3 325 -9 610 -12 635 -16
128 -116 292 -230 377 -116 86 -109 74 -128 208 -9 66 -19 152 -20 191 -2 39
-9 81 -15 92 -6 11 -11 41 -11 67 0 25 -7 62 -15 82 -8 19 -15 49 -15 66 0 17
-7 55 -16 86 -9 31 -20 72 -24 91 -36 144 -110 366 -161 480 -11 25 -26 59
-34 75 -20 45 -55 118 -65 135 -4 8 -19 36 -32 62 -57 113 -103 196 -129 232
-16 22 -29 43 -29 47 0 16 -159 243 -245 349 -128 158 -420 457 -524 537 -47
37 -90 71 -96 77 -31 33 -336 247 -410 287 -16 9 -59 33 -95 53 -60 34 -209
108 -290 143 -19 9 -43 20 -54 25 -39 20 -252 98 -266 98 -9 0 -24 6 -35 14
-11 7 -33 16 -50 18 -16 3 -45 11 -62 17 -18 6 -48 16 -65 22 -18 6 -51 15
-73 19 -22 4 -53 12 -68 19 -16 6 -41 11 -56 11 -16 0 -45 7 -64 15 -20 8 -56
15 -80 15 -25 0 -64 7 -87 15 -23 8 -70 15 -104 15 -33 0 -81 5 -106 11 -52
12 -632 18 -700 7z"/>
<path d="M4395 6750 c-27 -4 -82 -9 -121 -9 -39 -1 -91 -8 -114 -16 -23 -8
-60 -15 -82 -15 -21 0 -55 -7 -75 -15 -19 -8 -50 -15 -67 -15 -17 -1 -42 -7
-56 -15 -14 -8 -38 -15 -55 -15 -16 0 -39 -7 -49 -15 -11 -8 -32 -15 -46 -15
-14 0 -35 -7 -46 -15 -10 -8 -27 -15 -36 -15 -10 0 -47 -13 -81 -30 -35 -16
-69 -30 -75 -30 -5 0 -32 -11 -59 -24 -26 -12 -68 -33 -93 -45 -25 -12 -54
-27 -65 -33 -40 -23 -51 -28 -97 -53 -55 -29 -261 -167 -284 -189 -8 -9 -19
-16 -22 -16 -4 0 -21 -12 -38 -27 -16 -16 -77 -69 -135 -120 -57 -51 -141
-134 -185 -185 -45 -51 -93 -105 -105 -119 -23 -25 -54 -67 -133 -179 -48 -68
-148 -236 -182 -304 -14 -28 -29 -58 -34 -66 -4 -8 -16 -33 -25 -55 -23 -57
-30 -74 -55 -130 -34 -77 -57 -142 -69 -190 -4 -17 -13 -40 -19 -52 -7 -12
-12 -34 -12 -50 -1 -15 -7 -39 -15 -53 -8 -14 -14 -40 -15 -58 0 -18 -5 -43
-12 -55 -6 -12 -15 -53 -19 -92 -5 -38 -11 -81 -14 -95 -5 -20 3 -35 41 -75
70 -75 140 -174 180 -256 20 -41 40 -82 45 -91 5 -10 9 -28 9 -40 1 -13 7 -34
15 -48 8 -14 14 -41 15 -60 0 -19 5 -51 12 -70 9 -26 14 -227 18 -745 l5 -710
37 -90 c56 -137 256 -530 278 -545 4 -3 17 -23 29 -45 29 -53 82 -139 90 -145
3 -3 30 -41 60 -85 57 -84 172 -226 252 -310 26 -27 57 -62 68 -77 26 -32 249
-232 306 -272 22 -16 45 -34 50 -40 6 -7 28 -23 50 -36 22 -13 42 -27 45 -30
15 -20 164 -107 272 -160 67 -33 131 -65 140 -70 10 -6 23 -10 29 -10 6 0 25
-6 42 -14 36 -16 112 -40 172 -54 22 -6 60 -15 85 -22 25 -6 74 -15 110 -20
36 -4 88 -13 115 -18 76 -16 358 -13 438 4 38 8 86 14 108 14 22 0 50 5 61 11
11 6 44 15 72 19 80 14 109 21 143 36 17 8 40 14 51 14 12 0 23 4 26 9 3 5 18
12 33 15 25 6 298 139 348 169 30 18 133 96 139 105 2 4 -168 7 -377 7 -420 0
-430 1 -560 67 -223 112 -351 265 -418 500 -25 89 -27 305 -3 387 72 247 203
407 414 508 167 78 148 76 588 75 340 -1 400 -4 445 -19 65 -21 234 -100 242
-113 9 -15 84 -12 130 5 22 8 55 14 74 15 19 0 48 4 65 9 45 13 115 31 161 41
51 10 108 30 303 106 67 26 136 56 152 66 l30 18 0 672 c1 402 5 691 11 718 5
25 13 70 18 100 8 52 14 71 49 165 38 102 86 183 177 293 92 112 86 101 70
156 -8 27 -15 67 -15 88 0 21 -7 55 -15 75 -8 19 -15 47 -15 61 0 14 -4 39 -9
56 -39 125 -103 318 -116 351 -28 67 -66 149 -76 165 -5 8 -12 22 -15 30 -3 8
-10 22 -15 30 -5 8 -12 22 -16 30 -22 50 -202 333 -215 338 -5 2 -15 17 -23
33 -9 16 -34 51 -58 78 -23 27 -75 87 -116 134 -40 47 -114 120 -164 163 -49
44 -116 102 -147 129 -51 45 -293 215 -306 215 -2 0 -22 11 -44 25 -40 25
-214 113 -280 142 -19 8 -48 21 -65 29 -16 7 -42 16 -58 20 -15 3 -30 10 -33
15 -3 5 -15 9 -28 9 -12 0 -31 7 -42 15 -10 8 -31 15 -45 15 -14 0 -34 7 -45
15 -10 8 -32 15 -49 15 -16 0 -41 7 -55 15 -14 8 -40 14 -58 15 -18 0 -49 7
-69 15 -19 8 -53 15 -74 15 -21 0 -50 5 -66 11 -59 24 -538 46 -638 29z"/>
</g>
</svg>
