<svg id="Camada_1" data-name="Camada 1" xmlns="http://www.w3.org/2000/svg" viewBox="0 0 36.85 28.39"><defs><style>.cls-1,.cls-2{fill:none;stroke:#ffffff;stroke-linecap:round;stroke-miterlimit:10;}.cls-1{stroke-width:1.41px;}.cls-2{stroke-width:1.47px;}.cls-3{fill:#ffffff;}</style></defs><path class="cls-1" d="M1.45,13.35H8a1.08,1.08,0,0,1,1.18.93v2.44"/><line class="cls-2" x1="9.2" y1="21.84" x2="9.2" y2="25.74"/><polyline class="cls-1" points="32.46 14.87 33.96 13.17 35.36 14.87"/><line class="cls-1" x1="33.95" y1="13.48" x2="33.93" y2="25.67"/><polyline class="cls-1" points="35.4 24.65 33.91 26.35 32.5 24.65"/><path class="cls-1" d="M14.12,19,13,15.76a1.07,1.07,0,0,1,.49-1.3L19.8,11a1.05,1.05,0,0,1,1.07,0l6.42,3.86a1.08,1.08,0,0,1,.45,1.32L26.64,19"/><line class="cls-1" x1="20.38" y1="13.83" x2="20.38" y2="18.98"/><line class="cls-1" x1="14.26" y1="17.73" x2="17.77" y2="15.47"/><line class="cls-1" x1="26.52" y1="17.85" x2="23.01" y2="15.59"/><path class="cls-1" d="M15,13.29V8.59a.67.67,0,0,1,.66-.67h9.25a.57.57,0,0,1,.57.58v5.08"/><path class="cls-1" d="M17.77,7.57l1-2.43a1.45,1.45,0,0,1,1.34-.9h.46a1.46,1.46,0,0,1,1.36.93l.93,2.4"/><path class="cls-1" d="M19.63,3.86V2.8A.76.76,0,0,1,20.38,2h0a.75.75,0,0,1,.74.75V3.86"/><path class="cls-3" d="M32.81,20.24l1.48-.72-.47-1.67L32,18.7a3,3,0,0,1-2.66,0,4.75,4.75,0,0,0-4.19,0,3,3,0,0,1-2.67,0,4.75,4.75,0,0,0-4.19,0,3,3,0,0,1-2.66,0,4.77,4.77,0,0,0-4.2,0,3,3,0,0,1-2.66,0l-1.72-.85-.76,1.53L8,20.24a4.77,4.77,0,0,0,4.2,0,3,3,0,0,1,2.66,0,4.77,4.77,0,0,0,4.2,0,3,3,0,0,1,2.66,0,4.72,4.72,0,0,0,4.19,0,3,3,0,0,1,2.67,0,4.75,4.75,0,0,0,4.19,0Z"/><path class="cls-1" d="M14.26,19s2.43,5,6,7.16c0,0,5.05-2.69,6.27-7.16"/></svg>