<?xml version="1.0" standalone="no"?>
<!DOCTYPE svg PUBLIC "-//W3C//DTD SVG 20010904//EN"
 "http://www.w3.org/TR/2001/REC-SVG-20010904/DTD/svg10.dtd">
<svg version="1.0" xmlns="http://www.w3.org/2000/svg"
 width="90%" height="80%" viewBox="0 0 264.000000 198.000000"
 preserveAspectRatio="xMidYMid meet">

<g transform="translate(0.000000,198.000000) scale(0.100000,-0.100000)"
fill="#ffffff" stroke="none">
<path d="M1900 1575 c-172 -157 -315 -285 -319 -285 -4 0 -111 101 -238 225
-137 133 -239 225 -250 225 -10 -1 -173 -114 -363 -253 -318 -232 -345 -255
-348 -284 -4 -42 35 -72 73 -55 14 7 160 111 325 232 165 121 303 220 307 220
4 0 111 -103 238 -230 161 -161 238 -230 253 -230 24 0 687 594 710 637 10 18
10 28 1 46 -37 70 -49 63 -389 -248z"/>
<path d="M1025 1126 c-37 -17 -80 -62 -94 -99 -7 -18 -11 -152 -11 -368 0
-373 1 -383 59 -432 86 -72 204 -54 268 42 23 34 23 36 23 388 0 384 0 381
-57 435 -50 48 -126 62 -188 34z m122 -136 c15 -30 18 -614 4 -653 -11 -29
-41 -42 -76 -33 -42 11 -47 54 -43 384 3 290 4 304 23 318 30 22 77 14 92 -16z"/>
<path d="M1985 1126 c-37 -17 -80 -62 -94 -99 -7 -18 -11 -152 -11 -368 0
-373 1 -383 59 -432 86 -72 204 -54 268 42 23 34 23 36 23 388 0 384 0 381
-57 435 -50 48 -126 62 -188 34z m122 -136 c15 -30 18 -614 4 -653 -11 -29
-41 -42 -76 -33 -42 11 -47 54 -43 384 3 290 4 304 23 318 30 22 77 14 92 -16z"/>
<path d="M1505 886 c-37 -17 -80 -62 -94 -99 -7 -17 -11 -117 -11 -248 0 -242
4 -266 59 -312 86 -72 204 -54 268 42 22 33 23 41 23 268 0 253 -2 263 -57
315 -50 48 -126 62 -188 34z m111 -120 c17 -13 19 -30 22 -198 2 -100 1 -198
-3 -216 -12 -63 -93 -70 -114 -11 -14 41 -15 358 0 396 17 45 56 57 95 29z"/>
<path d="M545 766 c-37 -17 -80 -62 -94 -99 -16 -43 -14 -340 3 -380 27 -67
118 -116 189 -103 45 8 96 43 124 85 22 32 23 44 23 208 0 188 -4 205 -57 255
-50 48 -126 62 -188 34z m111 -120 c17 -13 19 -29 22 -136 2 -68 1 -138 -3
-157 -12 -64 -93 -72 -114 -12 -14 41 -14 239 0 276 17 45 56 57 95 29z"/>
</g>
</svg>
