<svg version="1.1" id="Layer_1" xmlns="http://www.w3.org/2000/svg" xmlns:xlink="http://www.w3.org/1999/xlink" x="0px" y="0px"
	 width="100%" viewBox="0 0 204 201" enable-background="new 0 0 204 201" xml:space="preserve">
<path fill="transparent" opacity="1.000000" stroke="none" 
	d="
M1.000000,75.000000 
	C1.000000,50.000008 1.000000,25.500011 1.000000,1.000013 
	C68.999977,1.000009 136.999954,1.000009 204.999954,1.000004 
	C204.999969,67.999962 204.999969,134.999924 204.999985,201.999908 
	C137.000061,201.999939 69.000107,201.999939 1.000081,201.999969 
	C1.000000,159.833328 1.000000,117.666664 1.000000,75.000000 
M153.428543,21.052610 
	C132.519791,8.803707 110.124573,4.053460 86.265686,8.958967 
	C47.934666,16.840017 22.156397,39.787991 11.664575,77.250168 
	C1.169123,114.725281 10.845449,148.376038 40.058784,174.261536 
	C70.868347,201.561417 106.916115,206.835922 144.183090,189.554596 
	C180.546997,172.692047 199.313217,142.301178 199.364151,102.288063 
	C199.408401,67.535622 183.338943,40.439415 153.428543,21.052610 
z"/>
<path fill="#FFF" opacity="1.000000" stroke="none" 
	d="
M153.736603,21.245575 
	C183.338943,40.439415 199.408401,67.535622 199.364151,102.288063 
	C199.313217,142.301178 180.546997,172.692047 144.183090,189.554596 
	C106.916115,206.835922 70.868347,201.561417 40.058784,174.261536 
	C10.845449,148.376038 1.169123,114.725281 11.664575,77.250168 
	C22.156397,39.787991 47.934666,16.840017 86.265686,8.958967 
	C110.124573,4.053460 132.519791,8.803707 153.736603,21.245575 
M185.279251,82.441597 
	C181.842651,68.957970 175.737793,56.724857 166.162994,46.705605 
	C141.589737,20.991646 111.580276,12.415260 77.811310,23.293165 
	C43.936356,34.205212 24.643784,58.878040 20.251472,94.185310 
	C13.250651,150.460892 66.603432,197.846191 121.862862,185.178726 
	C168.313232,174.530640 196.420639,128.670715 185.279251,82.441597 
z"/>
<path fill="transparent" opacity="1.000000" stroke="none" 
	d="
M185.385559,82.843689 
	C196.420639,128.670715 168.313232,174.530640 121.862862,185.178726 
	C66.603432,197.846191 13.250651,150.460892 20.251472,94.185310 
	C24.643784,58.878040 43.936356,34.205212 77.811310,23.293165 
	C111.580276,12.415260 141.589737,20.991646 166.162994,46.705605 
	C175.737793,56.724857 181.842651,68.957970 185.385559,82.843689 
M109.557190,69.500259 
	C109.556068,63.008305 109.555824,56.516346 109.553497,50.024391 
	C109.552116,46.186260 108.140099,43.429276 103.863747,43.391434 
	C99.366577,43.351631 97.904022,46.062614 97.910126,50.220474 
	C97.935280,67.364868 97.732727,84.511124 97.968994,101.651802 
	C97.999748,103.883476 99.521370,106.904869 101.326767,108.169456 
	C112.494072,115.991570 123.936935,123.420555 135.296097,130.968338 
	C138.386932,133.022110 141.542679,133.638840 144.195587,130.430359 
	C146.466522,127.683830 145.233627,123.847916 141.431717,121.259697 
	C132.501404,115.180222 123.656380,108.963234 114.538483,103.177551 
	C110.901344,100.869629 109.229515,98.413155 109.449486,93.965790 
	C109.835495,86.161255 109.557114,78.323868 109.557190,69.500259 
z"/>
<path fill="#FFF" opacity="1.000000" stroke="none" 
	d="
M109.557106,70.000244 
	C109.557114,78.323868 109.835495,86.161255 109.449486,93.965790 
	C109.229515,98.413155 110.901344,100.869629 114.538483,103.177551 
	C123.656380,108.963234 132.501404,115.180222 141.431717,121.259697 
	C145.233627,123.847916 146.466522,127.683830 144.195587,130.430359 
	C141.542679,133.638840 138.386932,133.022110 135.296097,130.968338 
	C123.936935,123.420555 112.494072,115.991570 101.326767,108.169456 
	C99.521370,106.904869 97.999748,103.883476 97.968994,101.651802 
	C97.732727,84.511124 97.935280,67.364868 97.910126,50.220474 
	C97.904022,46.062614 99.366577,43.351631 103.863747,43.391434 
	C108.140099,43.429276 109.552116,46.186260 109.553497,50.024391 
	C109.555824,56.516346 109.556068,63.008305 109.557106,70.000244 
z"/>
</svg>