<svg id="Camada_1" data-name="Camada 1" xmlns="http://www.w3.org/2000/svg" viewBox="0 0 28.71 28.39"><defs><style>.cls-1,.cls-2,.cls-4{fill:#264775;stroke:#FFFFFF;stroke-miterlimit:10;}.cls-1{stroke-width:1.19px;}.cls-2{stroke-width:0.35px;}.cls-3{fill:#ffffff;}.cls-4{stroke-width:1.19px;}.cls-5{fill:#ffffff;}</style></defs><circle class="cls-1" cx="14.36" cy="14.2" r="13.31"/><circle class="cls-2" cx="14.36" cy="14.2" r="11.7"/><path class="cls-3" d="M14.14,5.21l-2.6,8.92a.15.15,0,0,0,0,.13l2.6,8.92a.22.22,0,0,0,.43,0l2.61-8.92a.29.29,0,0,0,0-.13L14.57,5.21A.23.23,0,0,0,14.14,5.21Z"/><polygon class="cls-3" points="7.8 8.1 9.17 9.95 9.64 9.48 7.8 8.1"/><polygon class="cls-3" points="20.79 20.22 19.42 18.38 18.95 18.85 20.79 20.22"/><polygon class="cls-3" points="20.89 8.17 19.05 9.54 19.52 10.01 20.89 8.17"/><polygon class="cls-3" points="7.8 19.98 9.64 18.61 9.17 18.14 7.8 19.98"/><path class="cls-3" d="M14.36,10.25A3.95,3.95,0,1,0,18.3,14.2,4,4,0,0,0,14.36,10.25Zm0,5.37a1.42,1.42,0,1,1,1.42-1.42A1.42,1.42,0,0,1,14.36,15.62Z"/><circle class="cls-4" cx="14.36" cy="14.2" r="6.56"/><circle class="cls-5" cx="14.36" cy="14.2" r="1.54"/><path class="cls-3" d="M7.8,13.14l-3.16.91a.14.14,0,0,0,0,.26l3.16.94Z"/><path class="cls-3" d="M20.91,15.25l3.17-.9a.14.14,0,0,0,0-.27l-3.17-.94Z"/></svg>