<svg version="1.1" id="Layer_1" xmlns="http://www.w3.org/2000/svg" xmlns:xlink="http://www.w3.org/1999/xlink" x="0px" y="0px"
	 width="100%" viewBox="0 0 192 185" enable-background="new 0 0 192 185" xml:space="preserve">
<path fill="transparent" opacity="1.000000" stroke="none" 
	d="
M104.000000,186.000000 
	C69.333336,186.000000 35.166672,186.000000 1.000005,186.000000 
	C1.000003,124.333336 1.000003,62.666679 1.000002,1.000013 
	C64.999992,1.000009 128.999985,1.000009 192.999969,1.000004 
	C192.999985,62.666653 192.999985,124.333305 193.000000,185.999969 
	C163.500000,186.000000 134.000000,186.000000 104.000000,186.000000 
M178.652039,169.068253 
	C180.001709,165.027725 182.498154,160.994720 182.524673,156.945526 
	C182.808350,113.624268 182.780243,70.300209 182.645386,26.977509 
	C182.612137,16.297178 176.163376,9.598516 165.620773,8.341831 
	C164.467010,8.204303 163.295212,8.169041 162.131760,8.168803 
	C119.641777,8.160155 77.151764,8.134316 34.661827,8.178555 
	C22.898371,8.190802 14.981516,15.243108 14.953461,26.129372 
	C14.840094,70.118698 14.848803,114.108643 14.954645,158.098022 
	C14.977275,167.503418 22.113665,175.467010 31.388130,175.678055 
	C48.534889,176.068222 65.698692,175.712646 82.855270,175.638290 
	C83.111595,175.637177 83.366272,175.256973 83.619980,175.047256 
	C83.619980,156.483002 83.619980,137.918747 83.619980,118.851006 
	C75.685036,118.851006 68.110054,118.851006 60.577667,118.851006 
	C60.577667,109.613686 60.577667,100.890144 60.577667,91.593597 
	C68.527992,91.593597 76.104393,91.593597 84.663315,91.593597 
	C84.663315,81.876892 83.838882,72.647446 84.854965,63.625275 
	C86.410889,49.809593 94.088486,39.548080 108.034370,36.935871 
	C117.472923,35.167938 127.487839,36.410809 137.243149,36.501690 
	C138.228149,36.510864 140.026825,37.840652 140.050232,38.600639 
	C140.267822,45.663189 140.178925,52.735180 140.178925,59.614174 
	C134.042450,60.064514 128.738098,60.336594 123.461136,60.876320 
	C118.832863,61.349697 115.170708,64.225494 114.548210,68.461571 
	C113.434128,76.042923 113.562164,83.806808 113.147736,91.951103 
	C122.510124,91.951103 130.623093,91.951103 139.366272,91.951103 
	C137.947342,101.233543 136.606796,110.003242 135.208908,119.148117 
	C127.832870,119.148117 120.902145,119.148117 113.788757,119.148117 
	C113.788757,138.176392 113.788757,156.750763 113.788757,175.436447 
	C114.729530,175.601913 115.359779,175.809036 115.990211,175.809570 
	C132.319656,175.823364 148.668274,176.249115 164.966110,175.529373 
	C169.454910,175.331131 173.792221,171.702942 178.652039,169.068253 
z"/>
<path fill="#FFFFFF" opacity="1.000000" stroke="none" 
	d="
M178.425537,169.358414 
	C173.792221,171.702942 169.454910,175.331131 164.966110,175.529373 
	C148.668274,176.249115 132.319656,175.823364 115.990211,175.809570 
	C115.359779,175.809036 114.729530,175.601913 113.788757,175.436447 
	C113.788757,156.750763 113.788757,138.176392 113.788757,119.148117 
	C120.902145,119.148117 127.832870,119.148117 135.208908,119.148117 
	C136.606796,110.003242 137.947342,101.233543 139.366272,91.951103 
	C130.623093,91.951103 122.510124,91.951103 113.147736,91.951103 
	C113.562164,83.806808 113.434128,76.042923 114.548210,68.461571 
	C115.170708,64.225494 118.832863,61.349697 123.461136,60.876320 
	C128.738098,60.336594 134.042450,60.064514 140.178925,59.614174 
	C140.178925,52.735180 140.267822,45.663189 140.050232,38.600639 
	C140.026825,37.840652 138.228149,36.510864 137.243149,36.501690 
	C127.487839,36.410809 117.472923,35.167938 108.034370,36.935871 
	C94.088486,39.548080 86.410889,49.809593 84.854965,63.625275 
	C83.838882,72.647446 84.663315,81.876892 84.663315,91.593597 
	C76.104393,91.593597 68.527992,91.593597 60.577667,91.593597 
	C60.577667,100.890144 60.577667,109.613686 60.577667,118.851006 
	C68.110054,118.851006 75.685036,118.851006 83.619980,118.851006 
	C83.619980,137.918747 83.619980,156.483002 83.620850,175.050476 
	C83.366272,175.256973 83.111595,175.637177 82.855270,175.638290 
	C65.698692,175.712646 48.534889,176.068222 31.388130,175.678055 
	C22.113665,175.467010 14.977275,167.503418 14.954645,158.098022 
	C14.848803,114.108643 14.840094,70.118698 14.953461,26.129372 
	C14.981516,15.243108 22.898371,8.190802 34.661827,8.178555 
	C77.151764,8.134316 119.641777,8.160155 162.131760,8.168803 
	C163.295212,8.169041 164.467010,8.204303 165.620773,8.341831 
	C176.163376,9.598516 182.612137,16.297178 182.645386,26.977509 
	C182.780243,70.300209 182.808350,113.624268 182.524673,156.945526 
	C182.498154,160.994720 180.001709,165.027725 178.425537,169.358414 
z"/>
</svg>