<svg version="1.1" id="Layer_1" xmlns="http://www.w3.org/2000/svg" xmlns:xlink="http://www.w3.org/1999/xlink" x="0px" y="0px"
	 width="100%" viewBox="0 0 256 208" enable-background="new 0 0 256 208" xml:space="preserve">
<path fill="#023859" opacity="1.000000" stroke="none" 
	d="
M105.690292,155.993088 
	C108.073563,141.203751 102.394730,130.453094 92.919807,119.800026 
	C73.887787,98.401489 56.234604,75.778343 37.945908,53.715687 
	C33.612442,48.487988 32.136326,42.828636 35.072750,36.590118 
	C37.989124,30.394194 43.265305,27.633076 50.015903,27.607494 
	C93.508904,27.442675 137.001877,27.256330 180.495041,27.159815 
	C190.155838,27.138376 199.816925,27.520651 209.478729,27.580450 
	C216.403488,27.623310 221.952362,30.101542 224.943665,36.538502 
	C227.924881,42.953747 226.314499,48.735229 221.852386,54.099579 
	C200.973663,79.199974 180.255508,104.434174 159.316132,129.483612 
	C155.816025,133.670731 154.034454,137.879257 154.190948,143.461700 
	C154.555054,156.451050 154.190002,169.459167 154.378082,182.455933 
	C154.459625,188.090012 152.164795,192.160583 147.443359,194.798569 
	C142.613434,197.497147 137.662582,196.956879 133.334000,193.706299 
	C125.342979,187.705429 117.533401,181.461349 109.697342,175.256561 
	C106.913765,173.052475 105.645515,170.063721 105.694984,166.490448 
	C105.741119,163.158142 105.695602,159.824539 105.690292,155.993088 
M200.588394,59.100590 
	C203.875824,55.117054 207.204315,51.166344 210.429276,47.132862 
	C211.620529,45.642933 213.780273,44.284954 212.748062,42.023579 
	C211.720535,39.772491 209.294662,40.400196 207.374710,40.399204 
	C156.043030,40.372730 104.711319,40.375240 53.379646,40.406864 
	C51.294540,40.408150 48.681923,39.758198 47.578232,42.201393 
	C46.459396,44.678101 48.826958,46.106167 50.136490,47.701836 
	C71.592300,73.845764 93.034195,100.001495 114.618248,126.039322 
	C117.357262,129.343506 118.570015,132.695618 118.453178,136.948227 
	C118.228966,145.108368 118.383324,153.279160 118.401520,161.445496 
	C118.405556,163.259949 118.062363,165.278839 119.682022,166.592545 
	C126.595062,172.199677 133.571884,177.728165 141.240997,183.857239 
	C141.365814,181.861359 141.458771,181.069260 141.458435,180.277191 
	C141.452469,166.463440 141.538437,152.648392 141.367172,138.836578 
	C141.302521,133.621948 142.537415,129.345856 146.041473,125.168938 
	C164.241531,103.473969 182.136017,81.522636 200.588394,59.100590 
z"/>
</svg>