<?xml version="1.0" standalone="no"?>
<!DOCTYPE svg PUBLIC "-//W3C//DTD SVG 20010904//EN"
 "http://www.w3.org/TR/2001/REC-SVG-20010904/DTD/svg10.dtd">
<svg version="1.0" xmlns="http://www.w3.org/2000/svg"
 width="100%" height="75%" viewBox="0 0 230.000000 205.000000"
 preserveAspectRatio="xMidYMid meet">

<g transform="translate(0.000000,205.000000) scale(0.100000,-0.100000)"
fill="#fff" stroke="none">
<path d="M1043 1970 c-41 -25 -48 -39 -73 -151 -27 -123 -29 -129 -44 -129 -7
0 -44 -20 -82 -45 l-70 -44 -113 36 c-108 35 -115 36 -155 22 -37 -13 -47 -24
-113 -134 -40 -66 -75 -135 -79 -153 -10 -51 12 -87 102 -169 l84 -76 0 -97 0
-97 -84 -76 c-90 -82 -112 -118 -102 -169 4 -18 39 -87 79 -153 66 -110 76
-121 113 -134 40 -14 47 -13 155 22 l113 36 70 -44 c38 -25 75 -45 82 -45 15
0 17 -6 44 -129 25 -112 32 -126 73 -151 28 -17 51 -20 170 -20 200 0 214 10
252 180 14 62 25 115 25 117 0 1 5 3 12 3 6 0 43 20 83 45 l71 44 107 -34 c58
-19 117 -35 129 -35 49 0 84 36 154 156 59 102 69 126 69 168 0 49 0 49 -92
135 l-93 87 0 94 0 94 93 87 c92 86 92 86 92 135 0 42 -10 66 -69 168 -70 120
-105 156 -154 156 -12 0 -71 -16 -129 -35 l-107 -34 -71 44 c-40 25 -77 45
-83 45 -7 0 -12 2 -12 3 0 2 -11 55 -25 117 -38 170 -52 180 -252 180 -119 0
-142 -3 -170 -20z m312 -217 c15 -65 28 -124 30 -131 3 -7 37 -27 77 -46 40
-18 95 -50 122 -71 l49 -37 126 39 126 40 26 -41 c14 -23 40 -66 57 -97 l32
-56 -99 -89 c-97 -87 -99 -90 -93 -124 3 -19 6 -69 6 -110 0 -41 -3 -91 -6
-110 -6 -34 -4 -37 93 -124 l99 -89 -32 -56 c-17 -31 -43 -75 -57 -97 l-26
-42 -125 39 c-69 22 -130 36 -136 32 -55 -41 -129 -83 -176 -102 -32 -13 -59
-30 -62 -40 -2 -9 -16 -69 -31 -133 l-27 -118 -113 0 -113 0 -11 53 c-48 226
-42 208 -80 224 -75 30 -121 55 -165 89 l-46 35 -127 -40 c-71 -21 -129 -38
-130 -37 0 0 -26 44 -57 96 l-55 95 37 35 c21 19 65 61 100 92 l62 57 -10 74
c-8 52 -8 95 0 141 l10 67 -62 57 c-34 31 -79 73 -100 92 l-37 35 56 96 56 97
71 -23 c39 -12 96 -30 127 -40 l56 -18 56 42 c30 23 86 55 124 71 l68 29 16
73 c10 40 22 99 29 131 l11 57 114 0 113 0 27 -117z"/>
<path d="M1104 1342 c-93 -32 -172 -117 -204 -216 -20 -61 -8 -181 22 -241 32
-61 103 -129 166 -158 68 -31 188 -30 260 2 67 30 154 122 176 187 23 67 21
171 -5 239 -28 76 -108 156 -184 184 -69 26 -161 27 -231 3z m194 -117 c122
-52 163 -201 87 -317 -56 -84 -189 -109 -281 -52 -138 85 -125 298 21 365 49
23 123 24 173 4z"/>
</g>
</svg>
