<svg version="1.1" id="Layer_1" xmlns="http://www.w3.org/2000/svg" xmlns:xlink="http://www.w3.org/1999/xlink" x="0px" y="0px"
	 width="100%" viewBox="0 0 241 213" enable-background="new 0 0 241 213" xml:space="preserve">
<path fill="transparent" opacity="1.000000" stroke="none" 
	d="
M144.000000,214.000000 
	C96.000000,214.000000 48.500004,214.000000 1.000006,214.000000 
	C1.000004,143.000000 1.000004,72.000015 1.000002,1.000016 
	C81.333321,1.000011 161.666641,1.000011 241.999969,1.000005 
	C241.999985,71.999985 241.999985,142.999969 242.000000,213.999969 
	C209.500000,214.000000 177.000000,214.000000 144.000000,214.000000 
M126.187325,13.187232 
	C122.025177,9.511837 118.684448,11.554555 115.277634,14.565721 
	C86.081009,40.371601 56.842922,66.130554 27.620687,91.907455 
	C23.749508,95.322220 19.851900,98.709129 16.052454,102.202385 
	C13.354963,104.682503 12.735771,107.642700 15.146618,110.616676 
	C17.677567,113.738792 20.648691,113.199860 23.489992,110.966026 
	C25.187489,109.631470 26.746651,108.122009 28.384789,106.710663 
	C31.175377,104.306435 33.979195,101.917542 37.694759,98.736992 
	C37.694759,101.694862 37.694756,103.314682 37.694759,104.934509 
	C37.694820,127.098152 37.653996,149.261887 37.707405,171.425415 
	C37.753147,190.408325 50.149483,202.770844 69.022224,202.772766 
	C103.850807,202.776291 138.679382,202.776489 173.507965,202.770126 
	C193.188248,202.766525 205.368423,190.653305 205.383896,171.045303 
	C205.401398,148.881683 205.380798,126.718018 205.400726,104.554398 
	C205.402222,102.900917 205.595978,101.247620 205.752640,98.766327 
	C210.724289,103.175934 214.776047,106.853989 218.924530,110.419487 
	C221.687073,112.793785 224.752121,114.164230 227.634766,110.734520 
	C230.425323,107.414352 229.553635,104.316490 226.443222,101.595139 
	C220.553345,96.441963 214.494202,91.456116 208.935303,85.965477 
	C207.078308,84.131256 205.596725,80.988571 205.542587,78.410423 
	C205.227737,63.419094 205.434967,48.417557 205.368912,33.419895 
	C205.339447,26.729042 202.228516,23.058270 195.963150,22.897844 
	C186.304550,22.650537 176.630371,22.660208 166.971573,22.906055 
	C161.308182,23.050207 158.235733,26.394411 157.815704,32.115120 
	C157.638916,34.522923 157.786255,36.954525 157.786255,40.897316 
	C146.647308,31.135803 136.686401,22.406664 126.187325,13.187232 
z"/>
<path fill="#FFFFFF" opacity="1.000000" stroke="none" 
	d="
M126.456421,13.432378 
	C136.686401,22.406664 146.647308,31.135803 157.786255,40.897316 
	C157.786255,36.954525 157.638916,34.522923 157.815704,32.115120 
	C158.235733,26.394411 161.308182,23.050207 166.971573,22.906055 
	C176.630371,22.660208 186.304550,22.650537 195.963150,22.897844 
	C202.228516,23.058270 205.339447,26.729042 205.368912,33.419895 
	C205.434967,48.417557 205.227737,63.419094 205.542587,78.410423 
	C205.596725,80.988571 207.078308,84.131256 208.935303,85.965477 
	C214.494202,91.456116 220.553345,96.441963 226.443222,101.595139 
	C229.553635,104.316490 230.425323,107.414352 227.634766,110.734520 
	C224.752121,114.164230 221.687073,112.793785 218.924530,110.419487 
	C214.776047,106.853989 210.724289,103.175934 205.752640,98.766327 
	C205.595978,101.247620 205.402222,102.900917 205.400726,104.554398 
	C205.380798,126.718018 205.401398,148.881683 205.383896,171.045303 
	C205.368423,190.653305 193.188248,202.766525 173.507965,202.770126 
	C138.679382,202.776489 103.850807,202.776291 69.022224,202.772766 
	C50.149483,202.770844 37.753147,190.408325 37.707405,171.425415 
	C37.653996,149.261887 37.694820,127.098152 37.694759,104.934509 
	C37.694756,103.314682 37.694759,101.694862 37.694759,98.736992 
	C33.979195,101.917542 31.175377,104.306435 28.384789,106.710663 
	C26.746651,108.122009 25.187489,109.631470 23.489992,110.966026 
	C20.648691,113.199860 17.677567,113.738792 15.146618,110.616676 
	C12.735771,107.642700 13.354963,104.682503 16.052454,102.202385 
	C19.851900,98.709129 23.749508,95.322220 27.620687,91.907455 
	C56.842922,66.130554 86.081009,40.371601 115.277634,14.565721 
	C118.684448,11.554555 122.025177,9.511837 126.456421,13.432378 
M151.575546,187.393753 
	C151.170212,190.265457 152.456055,191.127563 155.261063,191.046478 
	C161.418594,190.868500 167.584854,190.995758 173.747543,190.990845 
	C186.260239,190.980881 193.733093,183.651764 193.747589,171.255264 
	C193.777969,145.272049 193.688141,119.288376 193.837128,93.305984 
	C193.857391,89.774254 192.665833,87.467163 190.096619,85.208206 
	C168.473648,66.196373 146.946716,47.075321 125.384018,27.994902 
	C124.183411,26.932503 122.922081,25.938725 121.497589,24.753771 
	C97.841309,45.686890 74.528244,66.285599 51.300568,86.980148 
	C50.351337,87.825867 49.755505,89.572083 49.751717,90.900909 
	C49.672394,118.715813 49.581882,146.531921 49.784916,174.345657 
	C49.845158,182.597702 55.826183,189.806976 64.048645,190.594589 
	C73.052361,191.457047 82.202499,190.790863 91.821976,190.790863 
	C91.821976,188.506180 91.821960,186.714294 91.821976,184.922424 
	C91.822159,167.766815 91.812836,150.611206 91.826088,133.455597 
	C91.834129,123.045486 95.745552,119.065407 106.324333,118.948959 
	C115.983612,118.842636 125.645012,118.906960 135.305389,118.929573 
	C147.656174,118.958473 151.525879,122.730621 151.562378,134.947647 
	C151.613632,152.103088 151.575134,169.258820 151.575546,187.393753 
M115.527267,130.975433 
	C111.719376,130.975433 107.911491,130.975433 103.785645,130.975433 
	C103.785645,151.075394 103.785645,170.810028 103.785645,190.721985 
	C115.732445,190.721985 127.449432,190.721985 139.290512,190.721985 
	C139.290512,170.722519 139.290512,151.005569 139.290512,130.975418 
	C131.476593,130.975418 123.997345,130.975418 115.527267,130.975433 
M193.736176,36.951466 
	C193.110382,36.306316 192.494583,35.111660 191.857254,35.100067 
	C184.586594,34.967854 177.312683,35.016022 170.221832,35.016022 
	C168.446381,45.421597 168.870255,54.414993 178.942245,60.070843 
	C181.220016,61.349907 183.028168,63.468117 185.044296,65.209541 
	C187.599365,67.416466 190.146088,69.633072 193.771561,72.778214 
	C193.771561,60.077862 193.771561,48.978107 193.736176,36.951466 
z"/>
<path fill="transparent" opacity="1.000000" stroke="none" 
	d="
M151.575287,186.904083 
	C151.575134,169.258820 151.613632,152.103088 151.562378,134.947647 
	C151.525879,122.730621 147.656174,118.958473 135.305389,118.929573 
	C125.645012,118.906960 115.983612,118.842636 106.324333,118.948959 
	C95.745552,119.065407 91.834129,123.045486 91.826088,133.455597 
	C91.812836,150.611206 91.822159,167.766815 91.821976,184.922424 
	C91.821960,186.714294 91.821976,188.506180 91.821976,190.790863 
	C82.202499,190.790863 73.052361,191.457047 64.048645,190.594589 
	C55.826183,189.806976 49.845158,182.597702 49.784916,174.345657 
	C49.581882,146.531921 49.672394,118.715813 49.751717,90.900909 
	C49.755505,89.572083 50.351337,87.825867 51.300568,86.980148 
	C74.528244,66.285599 97.841309,45.686890 121.497589,24.753771 
	C122.922081,25.938725 124.183411,26.932503 125.384018,27.994902 
	C146.946716,47.075321 168.473648,66.196373 190.096619,85.208206 
	C192.665833,87.467163 193.857391,89.774254 193.837128,93.305984 
	C193.688141,119.288376 193.777969,145.272049 193.747589,171.255264 
	C193.733093,183.651764 186.260239,190.980881 173.747543,190.990845 
	C167.584854,190.995758 161.418594,190.868500 155.261063,191.046478 
	C152.456055,191.127563 151.170212,190.265457 151.575287,186.904083 
z"/>
<path fill="transparent" opacity="1.000000" stroke="none" 
	d="
M116.022675,130.975433 
	C123.997345,130.975418 131.476593,130.975418 139.290512,130.975418 
	C139.290512,151.005569 139.290512,170.722519 139.290512,190.721985 
	C127.449432,190.721985 115.732445,190.721985 103.785645,190.721985 
	C103.785645,170.810028 103.785645,151.075394 103.785645,130.975433 
	C107.911491,130.975433 111.719376,130.975433 116.022675,130.975433 
z"/>
<path fill="transparent" opacity="1.000000" stroke="none" 
	d="
M193.753876,37.414909 
	C193.771561,48.978107 193.771561,60.077862 193.771561,72.778214 
	C190.146088,69.633072 187.599365,67.416466 185.044296,65.209541 
	C183.028168,63.468117 181.220016,61.349907 178.942245,60.070843 
	C168.870255,54.414993 168.446381,45.421597 170.221832,35.016022 
	C177.312683,35.016022 184.586594,34.967854 191.857254,35.100067 
	C192.494583,35.111660 193.110382,36.306316 193.753876,37.414909 
z"/>
</svg>