<svg version="1.1" id="Layer_1" xmlns="http://www.w3.org/2000/svg" xmlns:xlink="http://www.w3.org/1999/xlink" x="0px" y="0px"
	 width="100%" viewBox="0 0 72 122" enable-background="new 0 0 72 122" xml:space="preserve">
<path fill="transparent" opacity="1.000000" stroke="none" 
	d="
M1.000000,41.000000 
	C1.000000,27.699705 1.000000,14.399408 1.000000,1.049556 
	C24.907410,1.049556 48.814945,1.049556 73.000000,1.049556 
	C73.000000,22.353426 73.000000,43.708054 72.713234,65.863663 
	C71.963165,66.043037 71.306328,65.488304 71.065079,64.789993 
	C65.989616,50.098938 55.537746,41.259815 40.871704,37.042187 
	C39.766357,36.724319 38.490185,37.000435 37.293423,37.000435 
	C38.604347,38.508190 39.924995,39.252769 41.342056,39.580570 
	C55.672424,42.895554 69.201660,59.545712 67.397881,77.507019 
	C65.384476,97.555733 53.327251,110.107201 34.125641,112.412453 
	C25.445744,113.454506 25.002010,113.969337 25.000000,123.000000 
	C17.036634,123.000000 9.073268,123.000000 1.000000,123.000000 
	C1.000000,99.312538 1.000000,75.624931 1.338486,51.140984 
	C2.132464,51.673256 2.735625,52.970982 3.020851,54.335186 
	C6.257848,69.817314 14.569642,81.342331 29.278093,87.735207 
	C32.169956,88.992119 35.391827,89.489754 38.461494,90.337563 
	C38.650356,89.786057 38.839214,89.234550 39.028076,88.683044 
	C37.061989,87.870789 35.138622,86.928413 33.123104,86.266724 
	C16.098486,80.677681 6.086103,63.180340 9.091908,44.180073 
	C11.818552,26.944422 26.730207,13.928470 44.082981,14.122581 
	C48.522896,14.172247 50.633041,12.916411 50.651745,8.446766 
	C50.658550,6.820565 50.897530,5.195334 51.106182,2.645930 
	C45.942917,2.932250 41.077503,2.584903 36.495544,3.564030 
	C17.656408,7.589802 7.283451,20.049217 2.970410,38.280136 
	C2.732479,39.285854 1.675656,40.097839 1.000000,41.000000 
M55.486931,83.385971 
	C55.460487,83.931801 55.434040,84.477631 55.028168,85.685211 
	C52.707039,95.449455 45.895672,100.860588 36.153576,104.192535 
	C33.126247,104.506599 30.098921,104.820663 27.071592,105.134727 
	C27.140526,105.812988 27.209459,106.491249 27.278395,107.169502 
	C30.555115,106.928154 33.831833,106.686798 37.910881,106.458107 
	C53.334866,102.478210 62.924633,90.877846 63.172649,75.899925 
	C63.411663,61.465771 53.751972,48.257965 39.837952,44.185238 
	C38.047855,43.661263 35.176785,41.887184 34.922485,45.672985 
	C34.713947,48.777493 30.940617,52.821968 36.510998,54.927902 
	C51.120575,60.451195 56.202969,67.783623 55.486931,83.385971 
M30.096277,22.404760 
	C16.073162,30.768255 10.102012,44.855213 14.082860,60.183136 
	C17.170544,72.072006 29.208918,82.239746 40.768742,82.431694 
	C41.280918,79.111626 41.799480,75.750175 42.297638,72.520988 
	C26.303259,65.797417 19.386610,57.490372 20.159536,46.120930 
	C20.661829,38.732361 22.932051,31.534052 29.105717,27.487803 
	C34.742588,23.793365 41.708828,22.127247 47.605503,19.761286 
	C42.214367,17.457205 36.538013,20.133766 30.096277,22.404760 
z"/>
<path fill="#F5F5F5" opacity="1.000000" stroke="none" 
	d="
M1.000000,41.454109 
	C1.675656,40.097839 2.732479,39.285854 2.970410,38.280136 
	C7.283451,20.049217 17.656408,7.589802 36.495544,3.564030 
	C41.077503,2.584903 45.942917,2.932250 51.106182,2.645930 
	C50.897530,5.195334 50.658550,6.820565 50.651745,8.446766 
	C50.633041,12.916411 48.522896,14.172247 44.082981,14.122581 
	C26.730207,13.928470 11.818552,26.944422 9.091908,44.180073 
	C6.086103,63.180340 16.098486,80.677681 33.123104,86.266724 
	C35.138622,86.928413 37.061989,87.870789 39.028076,88.683044 
	C38.839214,89.234550 38.650356,89.786057 38.461494,90.337563 
	C35.391827,89.489754 32.169956,88.992119 29.278093,87.735207 
	C14.569642,81.342331 6.257848,69.817314 3.020851,54.335186 
	C2.735625,52.970982 2.132464,51.673256 1.338486,50.672325 
	C1.000000,47.969406 1.000000,44.938812 1.000000,41.454109 
z"/>
<path fill="#F5F5F5" opacity="1.000000" stroke="none" 
	d="
M25.468403,123.000000 
	C25.002010,113.969337 25.445744,113.454506 34.125641,112.412453 
	C53.327251,110.107201 65.384476,97.555733 67.397881,77.507019 
	C69.201660,59.545712 55.672424,42.895554 41.342056,39.580570 
	C39.924995,39.252769 38.604347,38.508190 37.293423,37.000435 
	C38.490185,37.000435 39.766357,36.724319 40.871704,37.042187 
	C55.537746,41.259815 65.989616,50.098938 71.065079,64.789993 
	C71.306328,65.488304 71.963165,66.043037 72.713234,66.332321 
	C73.000000,75.020897 73.000000,84.041786 72.708054,93.212234 
	C72.140549,93.536217 71.702827,93.650528 71.612686,93.893684 
	C66.827606,106.801735 58.470932,116.271240 45.435566,121.317154 
	C45.120453,121.439140 45.137745,122.419823 45.000000,123.000000 
	C38.645603,123.000000 32.291203,123.000000 25.468403,123.000000 
z"/>
<path fill="transparent" opacity="1.000000" stroke="none" 
	d="
M45.468658,123.000000 
	C45.137745,122.419823 45.120453,121.439140 45.435566,121.317154 
	C58.470932,116.271240 66.827606,106.801735 71.612686,93.893684 
	C71.702827,93.650528 72.140549,93.536217 72.708054,93.680893 
	C73.000000,103.591843 73.000000,113.183693 73.000000,123.000000 
	C63.980347,123.000000 54.958832,123.000000 45.468658,123.000000 
z"/>
<path fill="#F3F3F3" opacity="1.000000" stroke="none" 
	d="
M30.444073,22.249695 
	C36.538013,20.133766 42.214367,17.457205 47.605503,19.761286 
	C41.708828,22.127247 34.742588,23.793365 29.105717,27.487803 
	C22.932051,31.534052 20.661829,38.732361 20.159536,46.120930 
	C19.386610,57.490372 26.303259,65.797417 42.297638,72.520988 
	C41.799480,75.750175 41.280918,79.111626 40.768742,82.431694 
	C29.208918,82.239746 17.170544,72.072006 14.082860,60.183136 
	C10.102012,44.855213 16.073162,30.768255 30.444073,22.249695 
z"/>
<path fill="#F5F5F5" opacity="1.000000" stroke="none" 
	d="
M37.015095,104.265694 
	C45.895672,100.860588 52.707039,95.449455 55.499325,85.313889 
	C56.415646,84.535561 56.860809,84.128555 57.305969,83.721558 
	C56.809467,83.464455 56.312965,83.207344 55.816460,82.950241 
	C56.202969,67.783623 51.120575,60.451195 36.510998,54.927902 
	C30.940617,52.821968 34.713947,48.777493 34.922485,45.672985 
	C35.176785,41.887184 38.047855,43.661263 39.837952,44.185238 
	C53.751972,48.257965 63.411663,61.465771 63.172649,75.899925 
	C62.924633,90.877846 53.334866,102.478210 37.490623,106.088623 
	C37.051941,105.234657 37.033520,104.750175 37.015095,104.265694 
M60.423080,81.483696 
	C60.423080,81.483696 60.528423,81.424118 60.423080,81.483696 
z"/>
<path fill="#EAEAEA" opacity="1.000000" stroke="none" 
	d="
M36.584335,104.229111 
	C37.033520,104.750175 37.051941,105.234657 37.089458,106.082291 
	C33.831833,106.686798 30.555115,106.928154 27.278395,107.169502 
	C27.209459,106.491249 27.140526,105.812988 27.071592,105.134727 
	C30.098921,104.820663 33.126247,104.506599 36.584335,104.229111 
z"/>
<path fill="#EAEAEA" opacity="1.000000" stroke="none" 
	d="
M55.651695,83.168106 
	C56.312965,83.207344 56.809467,83.464455 57.305969,83.721558 
	C56.860809,84.128555 56.415646,84.535561 55.689037,84.983017 
	C55.434040,84.477631 55.460487,83.931801 55.651695,83.168106 
z"/>
<path fill="#EAEAEA" opacity="1.000000" stroke="none" 
	d="
M60.475754,81.453903 
	C60.528423,81.424118 60.423080,81.483696 60.475754,81.453903 
z"/>
</svg>