<svg id="Camada_1" data-name="Camada 1" xmlns="http://www.w3.org/2000/svg" viewBox="0 0 81 80.57"><defs><style>.cls-1{fill:transparent;}.cls-2{fill:#fff;}</style></defs><circle class="cls-1" cx="40.5" cy="40.29" r="38.45"/><path class="cls-2" d="M51.54,68.06V25a.65.65,0,0,1,.65-.64h8.74a.65.65,0,0,1,.65.64v43a.65.65,0,0,1-.65.64H52.19A.65.65,0,0,1,51.54,68.06Zm8.75-42.39H52.83V67.41h7.46Z"/><path class="cls-2" d="M52.19,34.28a.65.65,0,0,0,.45-.19l8.75-8.61a.65.65,0,0,0-.91-.92l-8.74,8.61a.64.64,0,0,0,0,.91A.65.65,0,0,0,52.19,34.28Z"/><path class="cls-2" d="M52.19,42.88a.64.64,0,0,0,.45-.18l8.75-8.61a.65.65,0,0,0,0-.91.64.64,0,0,0-.91,0l-8.74,8.61a.64.64,0,0,0,.45,1.1Z"/><path class="cls-2" d="M52.19,51.49a.61.61,0,0,0,.45-.19l8.75-8.6a.66.66,0,0,0,0-.92.65.65,0,0,0-.91,0l-8.74,8.6a.65.65,0,0,0,0,.92A.63.63,0,0,0,52.19,51.49Z"/><path class="cls-2" d="M52.19,60.1a.65.65,0,0,0,.45-.19l8.75-8.61a.65.65,0,0,0-.91-.92L51.74,59a.64.64,0,0,0,0,.91A.65.65,0,0,0,52.19,60.1Z"/><path class="cls-2" d="M52.19,68.7a.64.64,0,0,0,.45-.18l8.75-8.61a.65.65,0,0,0,0-.91.64.64,0,0,0-.91,0L51.74,67.6a.64.64,0,0,0,.45,1.1Z"/><path class="cls-2" d="M60.93,34.28a.63.63,0,0,0,.46-.2.65.65,0,0,0,0-.91l-8.75-8.61a.65.65,0,0,0-.91,0,.64.64,0,0,0,0,.91l8.74,8.61A.67.67,0,0,0,60.93,34.28Z"/><path class="cls-2" d="M60.93,42.88a.62.62,0,0,0,.46-.19.65.65,0,0,0,0-.91l-8.75-8.61a.64.64,0,0,0-.9.92l8.74,8.61A.66.66,0,0,0,60.93,42.88Z"/><path class="cls-2" d="M60.93,51.49a.62.62,0,0,0,.46-.19.66.66,0,0,0,0-.92l-8.75-8.6a.64.64,0,1,0-.9.92l8.74,8.6A.63.63,0,0,0,60.93,51.49Z"/><path class="cls-2" d="M60.93,60.1a.63.63,0,0,0,.46-.2.65.65,0,0,0,0-.91l-8.75-8.61a.65.65,0,0,0-.91,0,.64.64,0,0,0,0,.91l8.74,8.61A.67.67,0,0,0,60.93,60.1Z"/><path class="cls-2" d="M60.93,68.7a.62.62,0,0,0,.46-.19.65.65,0,0,0,0-.91L52.64,59a.64.64,0,0,0-.9.92l8.74,8.61A.66.66,0,0,0,60.93,68.7Z"/><path class="cls-2" d="M52.19,34.28h8.74a.65.65,0,1,0,0-1.3H52.19a.65.65,0,1,0,0,1.3Z"/><path class="cls-2" d="M52.19,42.88h8.74a.65.65,0,1,0,0-1.29H52.19a.65.65,0,1,0,0,1.29Z"/><path class="cls-2" d="M52.19,51.49h8.74a.65.65,0,1,0,0-1.29H52.19a.65.65,0,1,0,0,1.29Z"/><path class="cls-2" d="M52.19,60.1h8.74a.65.65,0,0,0,.65-.65.64.64,0,0,0-.65-.64H52.19a.64.64,0,0,0-.65.64A.65.65,0,0,0,52.19,60.1Z"/><path class="cls-2" d="M23.67,25V22.19a.64.64,0,0,1,.64-.64H43.16a.64.64,0,0,1,.64.64V25a.65.65,0,0,1-.64.65H24.31A.64.64,0,0,1,23.67,25Zm18.84-2.18H25v1.54H42.51Z"/><path class="cls-2" d="M24.31,32.88a.65.65,0,0,0,.65-.64v-9a.65.65,0,0,0-.65-.65.64.64,0,0,0-.64.65v9A.64.64,0,0,0,24.31,32.88Z"/><path class="cls-2" d="M22.86,36.72h1.06a1.83,1.83,0,0,0,1.82-1.82.65.65,0,1,0-1.29,0,.53.53,0,0,1-.53.53H22.86a.52.52,0,0,1-.52-.53v-1a.52.52,0,0,1,.52-.53h1.45a.64.64,0,0,0,.65-.64V30.12a.64.64,0,0,0-.65-.64.63.63,0,0,0-.64.64v2h-.81a1.82,1.82,0,0,0-1.81,1.82v1A1.82,1.82,0,0,0,22.86,36.72Z"/><path class="cls-2" d="M17.69,42a.62.62,0,0,0,.44-.18L23,37.23l4.53,4.54a.65.65,0,0,0,.91,0,.64.64,0,0,0,0-.91l-5-5a.65.65,0,0,0-.9,0l-5.34,5a.65.65,0,0,0,0,.91A.64.64,0,0,0,17.69,42Z"/><path class="cls-2" d="M43.94,19l7.49-2.9a2.77,2.77,0,0,1,1-.19h7.72a1.4,1.4,0,0,1,1.4,1.39v8.41H42.51V21.05A2.25,2.25,0,0,1,43.94,19Z"/><rect class="cls-2" x="13.42" y="40.83" width="18.85" height="12.21" rx="0.65"/></svg>