<svg version="1.1" id="Layer_1" xmlns="http://www.w3.org/2000/svg" xmlns:xlink="http://www.w3.org/1999/xlink" x="0px" y="0px"
	 width="100%" viewBox="0 0 201 186" enable-background="new 0 0 201 186" xml:space="preserve">
<path fill="transparent" opacity="1.000000" stroke="none" 
	d="
M1.000000,73.000000 
	C1.000000,48.666672 1.000000,24.833345 1.000000,1.000013 
	C67.999977,1.000009 134.999954,1.000009 201.999954,1.000004 
	C201.999969,62.999966 201.999969,124.999931 201.999985,186.999908 
	C135.000046,186.999939 68.000107,186.999939 1.000079,186.999969 
	C1.000000,149.166672 1.000000,111.333336 1.000000,73.000000 
M154.638992,13.721460 
	C150.949356,12.801616 147.265930,11.114210 143.569077,11.084233 
	C115.800522,10.859064 88.014175,10.423228 60.265869,11.205459 
	C47.931511,11.553167 37.590137,18.036835 29.320993,27.489355 
	C19.601671,38.599583 18.249998,52.183098 18.174360,65.889862 
	C18.053188,87.847267 18.609327,109.808922 18.926018,131.768112 
	C19.273092,155.833878 36.994846,175.606339 61.109653,176.576614 
	C87.515137,177.639053 114.020821,177.742447 140.428635,176.778671 
	C166.097382,175.841888 183.846359,157.609650 184.793701,131.824738 
	C185.691010,107.400581 185.590546,82.914619 185.101685,58.472378 
	C184.685608,37.669804 174.943604,22.366446 154.638992,13.721460 
z"/>
<path fill="#FFFFFF" opacity="1.000000" stroke="none" 
	d="
M155.001373,13.867477 
	C174.943604,22.366446 184.685608,37.669804 185.101685,58.472378 
	C185.590546,82.914619 185.691010,107.400581 184.793701,131.824738 
	C183.846359,157.609650 166.097382,175.841888 140.428635,176.778671 
	C114.020821,177.742447 87.515137,177.639053 61.109653,176.576614 
	C36.994846,175.606339 19.273092,155.833878 18.926018,131.768112 
	C18.609327,109.808922 18.053188,87.847267 18.174360,65.889862 
	C18.249998,52.183098 19.601671,38.599583 29.320993,27.489355 
	C37.590137,18.036835 47.931511,11.553167 60.265869,11.205459 
	C88.014175,10.423228 115.800522,10.859064 143.569077,11.084233 
	C147.265930,11.114210 150.949356,12.801616 155.001373,13.867477 
M138.699326,162.350662 
	C159.538895,159.658096 168.498886,151.180954 169.847824,130.266724 
	C171.046371,111.683754 170.787491,92.996506 170.831512,74.354485 
	C170.848755,67.054977 170.367111,59.693710 169.362457,52.464832 
	C167.205170,36.942177 156.523026,26.686939 140.873230,26.114208 
	C118.083771,25.280184 95.260178,25.058943 72.454453,25.183310 
	C65.579735,25.220798 58.295448,26.179710 51.932861,28.625902 
	C37.719032,34.090626 33.346474,46.466019 33.149330,60.441650 
	C32.834499,82.760101 32.820717,105.090652 33.227100,127.406120 
	C33.333736,133.261627 34.546429,139.467621 36.832867,144.839462 
	C42.448830,158.033768 54.190704,162.284424 67.359512,162.475647 
	C90.836128,162.816589 114.322601,162.479294 138.699326,162.350662 
z"/>
<path fill="transparent" opacity="1.000000" stroke="none" 
	d="
M138.252136,162.388153 
	C114.322601,162.479294 90.836128,162.816589 67.359512,162.475647 
	C54.190704,162.284424 42.448830,158.033768 36.832867,144.839462 
	C34.546429,139.467621 33.333736,133.261627 33.227100,127.406120 
	C32.820717,105.090652 32.834499,82.760101 33.149330,60.441650 
	C33.346474,46.466019 37.719032,34.090626 51.932861,28.625902 
	C58.295448,26.179710 65.579735,25.220798 72.454453,25.183310 
	C95.260178,25.058943 118.083771,25.280184 140.873230,26.114208 
	C156.523026,26.686939 167.205170,36.942177 169.362457,52.464832 
	C170.367111,59.693710 170.848755,67.054977 170.831512,74.354485 
	C170.787491,92.996506 171.046371,111.683754 169.847824,130.266724 
	C168.498886,151.180954 159.538895,159.658096 138.252136,162.388153 
M82.321259,55.712921 
	C78.495811,58.607189 74.298302,61.124161 70.911926,64.463654 
	C58.836285,76.372131 55.479282,94.774445 62.085190,110.699287 
	C68.505806,126.177444 84.925621,137.075272 101.809753,137.064453 
	C118.645164,137.053665 135.140121,125.983986 141.358871,110.523323 
	C147.993103,94.029709 144.293015,75.720108 131.860962,63.523762 
	C118.587097,50.501564 100.857918,47.535507 82.321259,55.712921 
M144.263138,39.675480 
	C139.546951,40.706711 137.058746,43.935059 136.822067,48.453854 
	C136.614029,52.425510 138.146271,56.007202 142.126358,57.822258 
	C146.304337,59.727558 150.289597,59.244144 153.593781,56.008205 
	C156.773926,52.893742 157.306763,48.933659 155.595673,44.980072 
	C153.637451,40.455490 149.760071,38.952248 144.263138,39.675480 
z"/>
<path fill="#FFFFFF" opacity="1.000000" stroke="none" 
	d="
M82.647614,55.528992 
	C100.857918,47.535507 118.587097,50.501564 131.860962,63.523762 
	C144.293015,75.720108 147.993103,94.029709 141.358871,110.523323 
	C135.140121,125.983986 118.645164,137.053665 101.809753,137.064453 
	C84.925621,137.075272 68.505806,126.177444 62.085190,110.699287 
	C55.479282,94.774445 58.836285,76.372131 70.911926,64.463654 
	C74.298302,61.124161 78.495811,58.607189 82.647614,55.528992 
M119.993027,72.442711 
	C118.913872,71.666931 117.877907,70.820976 116.748840,70.126320 
	C106.309326,63.703377 93.337395,64.456619 84.056557,71.995644 
	C74.555412,79.713638 71.017120,92.171013 75.111458,103.488914 
	C79.308571,115.090927 89.941742,122.519142 102.454620,122.125008 
	C114.417038,121.748222 123.266891,115.871582 127.683182,104.873985 
	C132.474380,92.942795 129.995239,81.994370 119.993027,72.442711 
z"/>
<path fill="#FFFFFF" opacity="1.000000" stroke="none" 
	d="
M144.633148,39.566154 
	C149.760071,38.952248 153.637451,40.455490 155.595673,44.980072 
	C157.306763,48.933659 156.773926,52.893742 153.593781,56.008205 
	C150.289597,59.244144 146.304337,59.727558 142.126358,57.822258 
	C138.146271,56.007202 136.614029,52.425510 136.822067,48.453854 
	C137.058746,43.935059 139.546951,40.706711 144.633148,39.566154 
z"/>
<path fill="transparent" opacity="1.000000" stroke="none" 
	d="
M120.255226,72.690819 
	C129.995239,81.994370 132.474380,92.942795 127.683182,104.873985 
	C123.266891,115.871582 114.417038,121.748222 102.454620,122.125008 
	C89.941742,122.519142 79.308571,115.090927 75.111458,103.488914 
	C71.017120,92.171013 74.555412,79.713638 84.056557,71.995644 
	C93.337395,64.456619 106.309326,63.703377 116.748840,70.126320 
	C117.877907,70.820976 118.913872,71.666931 120.255226,72.690819 
z"/>
</svg>