<svg version="1.1" id="Layer_1" xmlns="http://www.w3.org/2000/svg" xmlns:xlink="http://www.w3.org/1999/xlink" x="0px" y="0px"
	 width="100%" viewBox="0 0 182 190" enable-background="new 0 0 182 190" xml:space="preserve">
<path fill="transparent" opacity="1.000000" stroke="none" 
	d="
M95.000000,191.000000 
	C63.333336,191.000000 32.166672,191.000000 1.000004,191.000000 
	C1.000003,127.666672 1.000003,64.333344 1.000001,1.000013 
	C61.666656,1.000008 122.333313,1.000008 182.999969,1.000004 
	C182.999985,64.333321 182.999985,127.666634 183.000000,190.999969 
	C153.833328,191.000000 124.666664,191.000000 95.000000,191.000000 
M113.500038,12.170113 
	C83.178772,12.170267 52.857479,12.144779 22.536272,12.185543 
	C12.913587,12.198481 8.802833,16.330807 8.800069,25.836340 
	C8.786509,72.484634 8.788017,119.132935 8.798960,165.781235 
	C8.801305,175.781021 12.794469,179.803574 22.650793,179.804321 
	C69.132492,179.807877 115.614189,179.805649 162.095886,179.805832 
	C172.281250,179.805878 176.417862,175.784973 176.422363,165.685852 
	C176.443039,119.204163 176.443085,72.722450 176.421631,26.240767 
	C176.417084,16.360121 172.270462,12.197581 162.481140,12.178866 
	C146.487503,12.148292 130.493744,12.170307 113.500038,12.170113 
z"/>
<path fill="#264775" opacity="1.000000" stroke="none" 
	d="
M114.000046,12.170124 
	C130.493744,12.170307 146.487503,12.148292 162.481140,12.178866 
	C172.270462,12.197581 176.417084,16.360121 176.421631,26.240767 
	C176.443085,72.722450 176.443039,119.204163 176.422363,165.685852 
	C176.417862,175.784973 172.281250,179.805878 162.095886,179.805832 
	C115.614189,179.805649 69.132492,179.807877 22.650793,179.804321 
	C12.794469,179.803574 8.801305,175.781021 8.798960,165.781235 
	C8.788017,119.132935 8.786509,72.484634 8.800069,25.836340 
	C8.802833,16.330807 12.913587,12.198481 22.536272,12.185543 
	C52.857479,12.144779 83.178772,12.170267 114.000046,12.170124 
M143.505783,79.946129 
	C127.911224,70.367928 113.220879,71.006897 99.294533,84.590935 
	C99.092896,81.313690 98.936028,78.764069 98.764725,75.979950 
	C90.722359,75.979950 83.017601,75.979950 75.248886,75.979950 
	C75.248886,102.897324 75.248886,129.429794 75.248886,155.840790 
	C83.729004,155.840790 91.820396,155.840790 100.160789,155.840790 
	C100.160789,141.689865 100.050758,127.882805 100.238525,114.079796 
	C100.285172,110.650543 100.915161,107.114624 101.947380,103.838982 
	C103.704826,98.261909 108.213120,95.743484 114.911278,95.928947 
	C121.154358,96.101791 124.739883,98.520599 126.104378,104.471695 
	C127.093605,108.786072 127.535179,113.301918 127.602631,117.737328 
	C127.794594,130.358124 127.670006,142.983719 127.670006,155.895752 
	C136.085434,155.895752 144.154587,155.895752 152.250046,155.895752 
	C152.448700,155.209641 152.697845,154.749374 152.698578,154.288727 
	C152.725296,137.792282 153.014633,121.288971 152.620544,104.802078 
	C152.408539,95.932739 150.691605,87.207779 143.505783,79.946129 
M59.761032,128.500076 
	C59.761131,112.369652 59.825294,96.238556 59.656094,80.109909 
	C59.640251,78.600075 58.207787,75.841835 57.336090,75.802315 
	C49.757664,75.458778 42.157074,75.604156 34.508579,75.604156 
	C34.508579,102.857941 34.508579,129.369217 34.508579,155.784058 
	C43.053928,155.784058 51.267056,155.784058 59.760998,155.784058 
	C59.760998,146.748749 59.760998,138.124420 59.761032,128.500076 
M38.886845,38.140366 
	C38.127766,38.783157 37.304676,39.364586 36.620029,40.078739 
	C32.303783,44.580994 31.132740,49.822773 33.289490,55.670208 
	C35.233585,60.941078 39.109070,64.107475 44.654018,64.907181 
	C50.836136,65.798782 55.696537,63.453278 59.164093,58.259323 
	C62.574543,53.150917 62.082798,46.021328 57.998421,41.105038 
	C53.367306,35.530651 47.118813,34.388500 38.886845,38.140366 
z"/>
<path fill="transparent" opacity="1.000000" stroke="none" 
	d="
M143.787354,80.173798 
	C150.691605,87.207779 152.408539,95.932739 152.620544,104.802078 
	C153.014633,121.288971 152.725296,137.792282 152.698578,154.288727 
	C152.697845,154.749374 152.448700,155.209641 152.250046,155.895752 
	C144.154587,155.895752 136.085434,155.895752 127.670006,155.895752 
	C127.670006,142.983719 127.794594,130.358124 127.602631,117.737328 
	C127.535179,113.301918 127.093605,108.786072 126.104378,104.471695 
	C124.739883,98.520599 121.154358,96.101791 114.911278,95.928947 
	C108.213120,95.743484 103.704826,98.261909 101.947380,103.838982 
	C100.915161,107.114624 100.285172,110.650543 100.238525,114.079796 
	C100.050758,127.882805 100.160789,141.689865 100.160789,155.840790 
	C91.820396,155.840790 83.729004,155.840790 75.248886,155.840790 
	C75.248886,129.429794 75.248886,102.897324 75.248886,75.979950 
	C83.017601,75.979950 90.722359,75.979950 98.764725,75.979950 
	C98.936028,78.764069 99.092896,81.313690 99.294533,84.590935 
	C113.220879,71.006897 127.911224,70.367928 143.787354,80.173798 
z"/>
<path fill="transparent" opacity="1.000000" stroke="none" 
	d="
M59.761017,129.000092 
	C59.760998,138.124420 59.760998,146.748749 59.760998,155.784058 
	C51.267056,155.784058 43.053928,155.784058 34.508579,155.784058 
	C34.508579,129.369217 34.508579,102.857941 34.508579,75.604156 
	C42.157074,75.604156 49.757664,75.458778 57.336090,75.802315 
	C58.207787,75.841835 59.640251,78.600075 59.656094,80.109909 
	C59.825294,96.238556 59.761131,112.369652 59.761017,129.000092 
z"/>
<path fill="transparent" opacity="1.000000" stroke="none" 
	d="
M39.213409,37.935703 
	C47.118813,34.388500 53.367306,35.530651 57.998421,41.105038 
	C62.082798,46.021328 62.574543,53.150917 59.164093,58.259323 
	C55.696537,63.453278 50.836136,65.798782 44.654018,64.907181 
	C39.109070,64.107475 35.233585,60.941078 33.289490,55.670208 
	C31.132740,49.822773 32.303783,44.580994 36.620029,40.078739 
	C37.304676,39.364586 38.127766,38.783157 39.213409,37.935703 
z"/>
</svg>