<svg version="1.1" id="Layer_1" xmlns="http://www.w3.org/2000/svg" xmlns:xlink="http://www.w3.org/1999/xlink" x="0px" y="0px"
	 width="100%" viewBox="0 0 237 202" enable-background="new 0 0 237 202" xml:space="preserve">
<path fill="transparent" opacity="1.000000" stroke="none" 
	d="
M163.000000,203.000000 
	C109.027039,203.000000 55.054081,203.000000 1.040560,203.000000 
	C1.040560,135.727448 1.040560,68.454857 1.040560,1.091134 
	C79.899590,1.091134 158.799316,1.091134 237.849518,1.091134 
	C237.849518,68.333099 237.849518,135.666504 237.849518,203.000000 
	C214.580673,203.000000 191.258987,203.000000 167.662399,202.688446 
	C186.856003,194.655746 206.334488,186.959549 225.784821,179.192856 
	C229.799896,177.589615 231.448288,174.408066 231.443298,170.114410 
	C231.404800,136.949234 231.465225,103.783913 231.392563,70.618851 
	C231.374786,62.507141 225.935547,58.947731 218.279739,61.911869 
	C207.116547,66.233971 196.252533,71.544357 184.803467,74.847748 
	C174.695663,77.764130 172.033752,85.605194 167.861664,94.426521 
	C185.559830,87.419838 202.269714,80.804405 219.778992,73.872505 
	C219.778992,76.358452 219.778992,77.970024 219.778992,79.581596 
	C219.779007,104.747169 219.779007,129.912735 219.779007,155.078308 
	C219.779007,168.862869 219.804871,168.926804 207.234604,174.014496 
	C195.709946,178.679031 184.121231,183.185303 171.856201,188.040176 
	C171.856201,185.674103 171.856186,184.066437 171.856201,182.458771 
	C171.856369,164.626221 171.878937,146.793594 171.825027,128.961197 
	C171.819077,126.993599 171.971909,124.623695 170.983383,123.162865 
	C169.755341,121.348099 167.240601,119.002274 165.600800,119.225952 
	C163.592377,119.499916 161.497604,121.935280 160.239319,123.938194 
	C159.391678,125.287422 159.856979,127.505646 159.855148,129.335236 
	C159.837189,147.334427 159.844452,165.333649 159.844559,183.332855 
	C159.844559,185.084991 159.844559,186.837112 159.844559,188.865402 
	C158.487839,188.708832 157.826416,188.722672 157.218399,188.549286 
	C135.002243,182.214294 112.806671,175.806000 90.560219,169.579498 
	C87.627014,168.758545 87.689339,166.973557 87.696472,164.725494 
	C87.735031,152.559479 87.732254,140.393234 87.694382,128.227219 
	C87.689240,126.577278 87.964165,124.520378 87.124428,123.372452 
	C85.800941,121.563255 83.539871,119.099190 81.862747,119.234283 
	C79.839470,119.397263 77.593903,121.693565 76.245995,123.625603 
	C75.349251,124.910973 75.754135,127.174477 75.749229,129.000641 
	C75.717468,140.833359 75.595940,152.668823 75.819855,164.497406 
	C75.884140,167.892975 74.799393,169.591797 71.666473,170.795029 
	C58.317608,175.921829 45.052254,181.265839 31.742914,186.496231 
	C30.609150,186.941788 29.375799,187.133926 27.632744,187.588943 
	C27.632744,185.180969 27.632744,183.374939 27.632744,181.568909 
	C27.632742,154.736755 27.571949,127.904373 27.666351,101.072548 
	C27.698551,91.920517 25.948963,93.672661 35.448517,89.906975 
	C47.157074,85.265610 58.850433,80.585876 70.797775,75.824112 
	C69.577072,71.956245 68.497009,68.533997 67.374771,64.978127 
	C66.497734,65.121384 65.816635,65.113342 65.230957,65.345757 
	C50.850670,71.052238 36.470680,76.759766 22.114016,82.525307 
	C17.274151,84.468971 15.825911,88.288422 15.842747,93.317490 
	C15.950430,125.482391 15.887946,157.647827 15.902348,189.813095 
	C15.906761,199.672562 21.415953,203.536545 30.535885,199.920746 
	C46.146923,193.731400 61.649349,187.263702 77.326927,181.250641 
	C80.163338,180.162766 83.856285,179.826462 86.754013,180.614029 
	C110.335884,187.023544 133.828674,193.761887 157.327286,200.474701 
	C159.297852,201.037628 161.112762,202.145370 163.000000,203.000000 
M124.406631,11.037989 
	C121.600685,11.338694 118.786217,11.575683 115.990135,11.950067 
	C91.026558,15.292592 73.367386,41.766163 80.753052,65.883858 
	C88.114815,89.923515 103.857864,109.117134 119.159897,128.409653 
	C121.751549,131.677170 126.276230,131.138000 129.142685,127.541908 
	C142.639038,110.610077 155.478760,93.230492 164.314499,73.270355 
	C169.814941,60.844757 170.087540,48.365070 163.946411,36.153973 
	C156.003082,20.359322 142.716660,12.451007 124.406631,11.037989 
z"/>
<path fill="#FFFFFF" opacity="1.000000" stroke="none" 
	d="
M163.399994,203.000000 
	C161.112762,202.145370 159.297852,201.037628 157.327286,200.474701 
	C133.828674,193.761887 110.335884,187.023544 86.754013,180.614029 
	C83.856285,179.826462 80.163338,180.162766 77.326927,181.250641 
	C61.649349,187.263702 46.146923,193.731400 30.535885,199.920746 
	C21.415953,203.536545 15.906761,199.672562 15.902348,189.813095 
	C15.887946,157.647827 15.950430,125.482391 15.842747,93.317490 
	C15.825911,88.288422 17.274151,84.468971 22.114016,82.525307 
	C36.470680,76.759766 50.850670,71.052238 65.230957,65.345757 
	C65.816635,65.113342 66.497734,65.121384 67.374771,64.978127 
	C68.497009,68.533997 69.577072,71.956245 70.797775,75.824112 
	C58.850433,80.585876 47.157074,85.265610 35.448517,89.906975 
	C25.948963,93.672661 27.698551,91.920517 27.666351,101.072548 
	C27.571949,127.904373 27.632742,154.736755 27.632744,181.568909 
	C27.632744,183.374939 27.632744,185.180969 27.632744,187.588943 
	C29.375799,187.133926 30.609150,186.941788 31.742914,186.496231 
	C45.052254,181.265839 58.317608,175.921829 71.666473,170.795029 
	C74.799393,169.591797 75.884140,167.892975 75.819855,164.497406 
	C75.595940,152.668823 75.717468,140.833359 75.749229,129.000641 
	C75.754135,127.174477 75.349251,124.910973 76.245995,123.625603 
	C77.593903,121.693565 79.839470,119.397263 81.862747,119.234283 
	C83.539871,119.099190 85.800941,121.563255 87.124428,123.372452 
	C87.964165,124.520378 87.689240,126.577278 87.694382,128.227219 
	C87.732254,140.393234 87.735031,152.559479 87.696472,164.725494 
	C87.689339,166.973557 87.627014,168.758545 90.560219,169.579498 
	C112.806671,175.806000 135.002243,182.214294 157.218399,188.549286 
	C157.826416,188.722672 158.487839,188.708832 159.844559,188.865402 
	C159.844559,186.837112 159.844559,185.084991 159.844559,183.332855 
	C159.844452,165.333649 159.837189,147.334427 159.855148,129.335236 
	C159.856979,127.505646 159.391678,125.287422 160.239319,123.938194 
	C161.497604,121.935280 163.592377,119.499916 165.600800,119.225952 
	C167.240601,119.002274 169.755341,121.348099 170.983383,123.162865 
	C171.971909,124.623695 171.819077,126.993599 171.825027,128.961197 
	C171.878937,146.793594 171.856369,164.626221 171.856201,182.458771 
	C171.856186,184.066437 171.856201,185.674103 171.856201,188.040176 
	C184.121231,183.185303 195.709946,178.679031 207.234604,174.014496 
	C219.804871,168.926804 219.779007,168.862869 219.779007,155.078308 
	C219.779007,129.912735 219.779007,104.747169 219.778992,79.581596 
	C219.778992,77.970024 219.778992,76.358452 219.778992,73.872505 
	C202.269714,80.804405 185.559830,87.419838 167.861664,94.426521 
	C172.033752,85.605194 174.695663,77.764130 184.803467,74.847748 
	C196.252533,71.544357 207.116547,66.233971 218.279739,61.911869 
	C225.935547,58.947731 231.374786,62.507141 231.392563,70.618851 
	C231.465225,103.783913 231.404800,136.949234 231.443298,170.114410 
	C231.448288,174.408066 229.799896,177.589615 225.784821,179.192856 
	C206.334488,186.959549 186.856003,194.655746 167.193741,202.688446 
	C165.933334,203.000000 164.866653,203.000000 163.399994,203.000000 
z"/>
<path fill="#FFFFFF" opacity="1.000000" stroke="none" 
	d="
M124.859230,11.041687 
	C142.716660,12.451007 156.003082,20.359322 163.946411,36.153973 
	C170.087540,48.365070 169.814941,60.844757 164.314499,73.270355 
	C155.478760,93.230492 142.639038,110.610077 129.142685,127.541908 
	C126.276230,131.138000 121.751549,131.677170 119.159897,128.409653 
	C103.857864,109.117134 88.114815,89.923515 80.753052,65.883858 
	C73.367386,41.766163 91.026558,15.292592 115.990135,11.950067 
	C118.786217,11.575683 121.600685,11.338694 124.859230,11.041687 
M152.261566,39.384014 
	C151.538925,38.268101 150.888046,37.097271 150.082718,36.044621 
	C140.029892,22.904434 122.036369,19.162790 107.551598,27.125219 
	C96.290070,33.315796 85.838966,49.597324 93.152031,66.952156 
	C100.464211,84.304863 111.216812,99.431168 122.541702,114.240463 
	C122.879143,114.681740 123.606964,114.824501 124.385284,115.226540 
	C135.433838,100.173279 146.426651,85.403709 153.764618,68.252258 
	C157.926514,58.524452 157.773514,49.238415 152.261566,39.384014 
z"/>
<path fill="#264775" opacity="1.000000" stroke="none" 
	d="
M152.469452,39.693939 
	C157.773514,49.238415 157.926514,58.524452 153.764618,68.252258 
	C146.426651,85.403709 135.433838,100.173279 124.385284,115.226540 
	C123.606964,114.824501 122.879143,114.681740 122.541702,114.240463 
	C111.216812,99.431168 100.464211,84.304863 93.152031,66.952156 
	C85.838966,49.597324 96.290070,33.315796 107.551598,27.125219 
	C122.036369,19.162790 140.029892,22.904434 150.082718,36.044621 
	C150.888046,37.097271 151.538925,38.268101 152.469452,39.693939 
M116.853729,58.458172 
	C120.098808,61.889187 123.818893,62.820751 128.087387,60.498615 
	C131.565704,58.606358 133.397720,55.313892 132.115509,51.820045 
	C131.107269,49.072693 128.622437,45.756500 126.096024,44.989010 
	C123.562881,44.219479 119.513512,45.498581 117.300941,47.310932 
	C114.041069,49.981148 114.355431,54.097843 116.853729,58.458172 
z"/>
<path fill="#FFFFFF" opacity="1.000000" stroke="none" 
	d="
M116.624710,58.142311 
	C114.355431,54.097843 114.041069,49.981148 117.300941,47.310932 
	C119.513512,45.498581 123.562881,44.219479 126.096024,44.989010 
	C128.622437,45.756500 131.107269,49.072693 132.115509,51.820045 
	C133.397720,55.313892 131.565704,58.606358 128.087387,60.498615 
	C123.818893,62.820751 120.098808,61.889187 116.624710,58.142311 
z"/>
</svg>