<svg version="1.1" id="Layer_1" xmlns="http://www.w3.org/2000/svg" xmlns:xlink="http://www.w3.org/1999/xlink" x="0px" y="0px"
	 width="100%" viewBox="0 0 240 224" enable-background="new 0 0 240 224" xml:space="preserve">
<path fill="#FFFFFF" opacity="1.000000" stroke="none" 
	d="
M82.658661,23.524910 
	C123.957825,4.083154 171.723343,22.199829 188.758957,62.267036 
	C200.378677,89.596283 197.846695,116.274666 180.372833,140.857727 
	C178.308289,143.762238 178.308365,145.487183 180.841385,148.013855 
	C196.521729,163.654892 212.057281,179.441071 227.641739,195.178253 
	C228.227585,195.769821 228.839981,196.336075 229.409103,196.943115 
	C232.117447,199.831909 233.260010,202.964417 230.062088,206.142181 
	C226.913498,209.270950 223.514572,208.981583 220.315643,206.068085 
	C218.470078,204.387207 216.713425,202.607681 214.936966,200.852112 
	C200.487915,186.572769 185.962311,172.369171 171.665955,157.938507 
	C168.775085,155.020493 166.978745,154.641846 163.448090,157.210312 
	C120.384361,188.538223 59.556953,169.056808 42.995010,118.884193 
	C30.872915,82.161629 47.182552,40.826424 82.658661,23.524910 
M171.294388,56.204151 
	C155.302704,33.475143 127.216499,23.606594 99.691330,31.045231 
	C64.230011,40.628601 44.732601,76.824509 55.146221,113.740868 
	C64.494987,146.882309 101.688423,166.817780 135.748932,156.943481 
	C178.417374,144.573700 196.444992,94.365158 171.294388,56.204151 
z"/>
</svg>