<?xml version="1.0" standalone="no"?>
<!DOCTYPE svg PUBLIC "-//W3C//DTD SVG 20010904//EN"
 "http://www.w3.org/TR/2001/REC-SVG-20010904/DTD/svg10.dtd">
<svg version="1.0" xmlns="http://www.w3.org/2000/svg"
 width="100%" viewBox="0 0 210.000000 168.000000"
 preserveAspectRatio="xMidYMid meet">

<g transform="translate(0.000000,168.000000) scale(0.100000,-0.100000)"
fill="#ffffff" stroke="none">
<path d="M1025 1629 c-63 -15 -117 -59 -150 -119 -70 -131 -13 -295 122 -346
l43 -17 0 -53 0 -54 -110 0 c-106 0 -110 -1 -126 -25 -15 -23 -15 -27 0 -50
16 -24 20 -25 126 -25 l110 0 0 -400 0 -400 -78 0 c-146 0 -242 38 -338 134
-91 92 -134 200 -134 338 l0 61 69 -66 c38 -37 76 -67 83 -67 18 0 48 32 48
51 0 18 -231 249 -249 249 -15 0 -226 -203 -242 -233 -12 -22 4 -53 31 -62 16
-5 36 8 88 56 l67 63 8 -84 c14 -163 63 -275 163 -375 77 -77 173 -128 282
-150 68 -14 124 -16 295 -13 196 4 218 6 283 30 229 81 373 289 374 537 l0 64
69 -66 c38 -37 76 -67 83 -67 18 0 48 32 48 51 0 18 -231 249 -249 249 -15 0
-226 -203 -242 -232 -12 -23 4 -54 31 -63 16 -5 36 8 88 56 l67 63 3 -69 c5
-121 -46 -244 -138 -332 -84 -81 -197 -123 -332 -123 l-78 0 0 400 0 400 109
0 c116 0 141 9 141 50 0 41 -25 50 -141 50 l-109 0 1 53 0 52 60 29 c222 105
159 440 -86 461 -28 2 -68 0 -90 -6z m143 -109 c45 -28 72 -76 72 -130 0 -111
-108 -180 -214 -136 -108 45 -110 225 -2 272 45 19 106 17 144 -6z"/>
</g>
</svg>
