<svg version="1.1" id="Layer_1" xmlns="http://www.w3.org/2000/svg" xmlns:xlink="http://www.w3.org/1999/xlink" x="0px" y="0px"
	 width="100%" viewBox="0 0 152 206" enable-background="new 0 0 152 206" xml:space="preserve">
<path fill="transparent" opacity="1.000000" stroke="none" 
	d="
M153.000000,177.000000 
	C153.000000,186.992813 153.000000,196.985626 153.000000,206.983826 
	C102.376938,206.989227 51.753880,206.989227 1.065408,206.989227 
	C1.065408,138.426346 1.065408,69.852615 1.065408,1.139442 
	C51.666420,1.139442 102.333153,1.139442 153.000000,1.139442 
	C153.000000,23.761896 153.000000,46.412289 152.689117,69.519333 
	C152.170914,69.970383 151.963577,69.964790 151.549377,69.651718 
	C150.857086,63.621231 148.372223,58.892345 144.331406,54.865520 
	C131.123398,41.703278 117.917816,28.538195 104.785339,15.300765 
	C99.934814,10.411483 94.092979,8.076016 87.328033,8.053342 
	C69.179543,7.992513 51.030025,7.936019 32.882225,8.063621 
	C18.123613,8.167393 7.915149,18.603390 7.905944,33.428181 
	C7.876790,80.381676 7.878999,127.335205 7.904448,174.288712 
	C7.912857,189.805054 18.035801,199.774124 33.655510,199.774750 
	C63.625835,199.775940 93.596161,199.773193 123.566490,199.774170 
	C138.847824,199.774673 145.756836,195.079849 151.408417,180.750107 
	C151.728409,179.289185 151.800797,178.092773 151.838593,176.888443 
	C151.804001,176.880508 151.784729,176.812210 152.087036,176.868927 
	C152.592896,176.950439 152.796448,176.975220 153.000000,177.000000 
z"/>
<path fill="transparent" opacity="1.000000" stroke="none" 
	d="
M153.000000,176.531342 
	C152.796448,176.975220 152.592896,176.950439 152.006165,176.419449 
	C151.667404,140.595230 151.711838,105.277214 151.756256,69.959206 
	C151.963577,69.964790 152.170914,69.970383 152.689117,69.987991 
	C153.000000,105.354225 153.000000,140.708450 153.000000,176.531342 
z"/>
<path fill="#FFFFFF" opacity="1.000000" stroke="none" 
	d="
M151.549377,69.651718 
	C151.711838,105.277214 151.667404,140.595230 151.703857,176.362732 
	C151.784729,176.812210 151.804001,176.880508 151.608795,177.162872 
	C151.329315,178.635025 151.245056,179.824829 151.160797,181.014633 
	C145.756836,195.079849 138.847824,199.774673 123.566490,199.774170 
	C93.596161,199.773193 63.625835,199.775940 33.655510,199.774750 
	C18.035801,199.774124 7.912857,189.805054 7.904448,174.288712 
	C7.878999,127.335205 7.876790,80.381676 7.905944,33.428181 
	C7.915149,18.603390 18.123613,8.167393 32.882225,8.063621 
	C51.030025,7.936019 69.179543,7.992513 87.328033,8.053342 
	C94.092979,8.076016 99.934814,10.411483 104.785339,15.300765 
	C117.917816,28.538195 131.123398,41.703278 144.331406,54.865520 
	C148.372223,58.892345 150.857086,63.621231 151.549377,69.651718 
M139.954803,130.500000 
	C139.954803,113.752884 139.954803,97.005768 139.954803,79.934914 
	C125.971786,79.934914 112.669899,79.976379 99.368401,79.922577 
	C87.429604,79.874283 80.033195,72.473999 80.006233,60.619873 
	C79.978584,48.462994 79.888870,36.304329 80.070740,24.150103 
	C80.122932,20.661669 79.029602,19.512917 75.533104,19.554140 
	C62.212284,19.711191 48.888287,19.569807 35.565876,19.629034 
	C23.375753,19.683228 19.405329,23.624840 19.394478,35.846500 
	C19.353966,81.476646 19.353193,127.106873 19.394766,172.737015 
	C19.405205,184.194229 23.280397,188.125046 34.631454,188.148758 
	C64.607353,188.211411 94.583527,188.202316 124.559479,188.154205 
	C136.272888,188.135406 139.913956,184.372391 139.946136,172.467209 
	C139.983063,158.811569 139.954758,145.155746 139.954803,130.500000 
M93.915398,66.834328 
	C95.823906,67.282745 97.728737,68.100273 99.641533,68.119385 
	C111.637741,68.239258 123.635773,68.193771 135.633072,68.160133 
	C136.680420,68.157204 137.726913,67.845261 140.162201,67.453499 
	C124.037086,51.009865 108.759468,35.391205 92.390762,20.790314 
	C91.713829,34.961452 91.668816,48.565262 91.782730,62.167744 
	C91.794250,63.542961 92.764832,64.910149 93.915398,66.834328 
z"/>
<path fill="transparent" opacity="1.000000" stroke="none" 
	d="
M151.408417,180.750107 
	C151.245056,179.824829 151.329315,178.635025 151.643387,177.170807 
	C151.800797,178.092773 151.728409,179.289185 151.408417,180.750107 
z"/>
<path fill="transparent" opacity="1.000000" stroke="none" 
	d="
M139.954803,131.000000 
	C139.954758,145.155746 139.983063,158.811569 139.946136,172.467209 
	C139.913956,184.372391 136.272888,188.135406 124.559479,188.154205 
	C94.583527,188.202316 64.607353,188.211411 34.631454,188.148758 
	C23.280397,188.125046 19.405205,184.194229 19.394766,172.737015 
	C19.353193,127.106873 19.353966,81.476646 19.394478,35.846500 
	C19.405329,23.624840 23.375753,19.683228 35.565876,19.629034 
	C48.888287,19.569807 62.212284,19.711191 75.533104,19.554140 
	C79.029602,19.512917 80.122932,20.661669 80.070740,24.150103 
	C79.888870,36.304329 79.978584,48.462994 80.006233,60.619873 
	C80.033195,72.473999 87.429604,79.874283 99.368401,79.922577 
	C112.669899,79.976379 125.971786,79.934914 139.954803,79.934914 
	C139.954803,97.005768 139.954803,113.752884 139.954803,131.000000 
M84.317467,94.371483 
	C81.924347,93.864944 79.154099,92.399879 77.254341,93.147316 
	C75.660370,93.774445 74.188530,97.004974 74.241295,99.041969 
	C74.347473,103.141411 73.062706,104.643684 68.975830,105.566231 
	C61.230553,107.314613 56.802681,112.749939 56.186749,119.699623 
	C55.482265,127.648415 57.764256,131.944809 66.137100,135.575882 
	C71.879929,138.066376 78.183060,139.233643 84.126892,141.304749 
	C87.203598,142.376816 92.132629,142.428009 91.676987,147.017014 
	C91.231453,151.504196 86.471718,151.389267 82.965546,152.094070 
	C81.842995,152.319702 80.601265,152.368057 79.486023,152.142181 
	C74.777954,151.188705 70.057373,150.250900 65.416969,149.021912 
	C60.434326,147.702301 57.441223,148.659714 56.434891,152.310257 
	C55.346470,156.258575 57.016476,158.755310 61.856094,160.179306 
	C65.801010,161.340042 69.783707,162.372314 74.053520,163.544998 
	C74.053520,165.433762 74.146103,167.082962 74.035423,168.718384 
	C73.751640,172.911743 75.501846,175.786301 79.787521,175.794495 
	C84.146294,175.802826 85.923546,172.632156 85.544724,168.654160 
	C85.175751,164.779572 86.509552,163.279129 90.350121,162.284225 
	C98.372498,160.206055 103.027626,154.336990 103.458191,147.189667 
	C103.937729,139.229706 99.313255,134.775177 92.626495,132.234375 
	C86.280533,129.823074 79.594772,128.303406 73.258835,125.869873 
	C71.123161,125.049599 69.601677,122.630234 67.799492,120.941696 
	C69.908127,119.374870 71.904465,117.608345 74.175926,116.331070 
	C75.208817,115.750259 76.808754,115.956039 78.112465,116.118378 
	C82.876961,116.711678 87.618217,117.490776 92.381638,118.093941 
	C95.695374,118.513550 98.477272,116.895943 98.517204,113.778648 
	C98.546318,111.506035 96.565239,107.377350 95.137215,107.221588 
	C87.449196,106.383034 84.593437,102.184189 84.317467,94.371483 
M32.074253,63.165920 
	C32.884869,66.360764 34.988537,67.845055 38.232906,67.842537 
	C45.872353,67.836609 53.512474,67.897705 61.150982,67.812172 
	C65.076607,67.768211 67.374382,65.868645 67.293449,61.673058 
	C67.213676,57.537975 64.584114,56.258335 61.043430,56.225445 
	C53.570694,56.156025 46.096725,56.232323 38.623497,56.198067 
	C34.423664,56.178810 32.027775,58.014397 32.074253,63.165920 
M53.448486,32.003719 
	C48.126381,32.081299 42.798546,32.034904 37.484192,32.280296 
	C33.974800,32.442345 31.904135,34.532742 31.979759,38.098202 
	C32.048836,41.355076 33.944168,43.585526 37.231865,43.658737 
	C45.544724,43.843857 53.868027,43.860836 62.179630,43.649479 
	C65.396820,43.567665 67.310059,41.503784 67.353745,38.089104 
	C67.396935,34.713318 65.706459,32.713341 62.390118,32.355709 
	C59.753326,32.071362 57.081818,32.109020 53.448486,32.003719 
z"/>
<path fill="transparent" opacity="1.000000" stroke="none" 
	d="
M93.602867,66.557693 
	C92.764832,64.910149 91.794250,63.542961 91.782730,62.167744 
	C91.668816,48.565262 91.713829,34.961452 92.390762,20.790314 
	C108.759468,35.391205 124.037086,51.009865 140.162201,67.453499 
	C137.726913,67.845261 136.680420,68.157204 135.633072,68.160133 
	C123.635773,68.193771 111.637741,68.239258 99.641533,68.119385 
	C97.728737,68.100273 95.823906,67.282745 93.602867,66.557693 
z"/>
<path fill="#FFFFFF" opacity="1.000000" stroke="none" 
	d="
M84.524155,94.708786 
	C84.593437,102.184189 87.449196,106.383034 95.137215,107.221588 
	C96.565239,107.377350 98.546318,111.506035 98.517204,113.778648 
	C98.477272,116.895943 95.695374,118.513550 92.381638,118.093941 
	C87.618217,117.490776 82.876961,116.711678 78.112465,116.118378 
	C76.808754,115.956039 75.208817,115.750259 74.175926,116.331070 
	C71.904465,117.608345 69.908127,119.374870 67.799492,120.941696 
	C69.601677,122.630234 71.123161,125.049599 73.258835,125.869873 
	C79.594772,128.303406 86.280533,129.823074 92.626495,132.234375 
	C99.313255,134.775177 103.937729,139.229706 103.458191,147.189667 
	C103.027626,154.336990 98.372498,160.206055 90.350121,162.284225 
	C86.509552,163.279129 85.175751,164.779572 85.544724,168.654160 
	C85.923546,172.632156 84.146294,175.802826 79.787521,175.794495 
	C75.501846,175.786301 73.751640,172.911743 74.035423,168.718384 
	C74.146103,167.082962 74.053520,165.433762 74.053520,163.544998 
	C69.783707,162.372314 65.801010,161.340042 61.856094,160.179306 
	C57.016476,158.755310 55.346470,156.258575 56.434891,152.310257 
	C57.441223,148.659714 60.434326,147.702301 65.416969,149.021912 
	C70.057373,150.250900 74.777954,151.188705 79.486023,152.142181 
	C80.601265,152.368057 81.842995,152.319702 82.965546,152.094070 
	C86.471718,151.389267 91.231453,151.504196 91.676987,147.017014 
	C92.132629,142.428009 87.203598,142.376816 84.126892,141.304749 
	C78.183060,139.233643 71.879929,138.066376 66.137100,135.575882 
	C57.764256,131.944809 55.482265,127.648415 56.186749,119.699623 
	C56.802681,112.749939 61.230553,107.314613 68.975830,105.566231 
	C73.062706,104.643684 74.347473,103.141411 74.241295,99.041969 
	C74.188530,97.004974 75.660370,93.774445 77.254341,93.147316 
	C79.154099,92.399879 81.924347,93.864944 84.524155,94.708786 
z"/>
<path fill="#FFFFFF" opacity="1.000000" stroke="none" 
	d="
M31.999882,62.774715 
	C32.027775,58.014397 34.423664,56.178810 38.623497,56.198067 
	C46.096725,56.232323 53.570694,56.156025 61.043430,56.225445 
	C64.584114,56.258335 67.213676,57.537975 67.293449,61.673058 
	C67.374382,65.868645 65.076607,67.768211 61.150982,67.812172 
	C53.512474,67.897705 45.872353,67.836609 38.232906,67.842537 
	C34.988537,67.845055 32.884869,66.360764 31.999882,62.774715 
z"/>
<path fill="#FFFFFF" opacity="1.000000" stroke="none" 
	d="
M53.937103,32.003719 
	C57.081818,32.109020 59.753326,32.071362 62.390118,32.355709 
	C65.706459,32.713341 67.396935,34.713318 67.353745,38.089104 
	C67.310059,41.503784 65.396820,43.567665 62.179630,43.649479 
	C53.868027,43.860836 45.544724,43.843857 37.231865,43.658737 
	C33.944168,43.585526 32.048836,41.355076 31.979759,38.098202 
	C31.904135,34.532742 33.974800,32.442345 37.484192,32.280296 
	C42.798546,32.034904 48.126381,32.081299 53.937103,32.003719 
z"/>
</svg>