<svg version="1.1" id="Layer_1" xmlns="http://www.w3.org/2000/svg" xmlns:xlink="http://www.w3.org/1999/xlink" x="0px" y="0px"
	 width="100%" viewBox="0 0 167 193" enable-background="new 0 0 167 193" xml:space="preserve">
<path fill="transparent" opacity="1.000000" stroke="none" 
	d="
M67.000000,194.000000 
	C44.666668,194.000000 22.833336,194.000000 1.000003,194.000000 
	C1.000002,129.666672 1.000002,65.333344 1.000001,1.000011 
	C56.666656,1.000008 112.333313,1.000008 167.999969,1.000004 
	C167.999985,65.333321 167.999985,129.666641 168.000000,193.999985 
	C134.500000,194.000000 101.000000,194.000000 67.000000,194.000000 
M122.500008,89.078331 
	C111.732819,89.078331 100.965630,89.078331 89.766464,89.078331 
	C89.766464,76.258507 89.766174,63.971313 89.766556,51.684120 
	C89.766830,42.691368 89.848930,33.697628 89.739006,24.706230 
	C89.670807,19.127567 86.604874,16.394299 82.105995,17.534588 
	C78.390472,18.476332 77.908585,21.268623 77.913864,24.494286 
	C77.946045,44.145061 77.936874,63.795921 77.920570,83.446739 
	C77.919106,85.211693 77.768852,86.976509 77.681419,88.877914 
	C75.816483,88.961266 74.504784,89.070236 73.193008,89.070969 
	C53.375656,89.082123 33.558262,89.060318 13.740951,89.091583 
	C8.305213,89.100159 5.590070,91.203712 5.955101,95.241508 
	C6.387025,100.019226 9.674654,100.793709 13.817172,100.771049 
	C33.300888,100.664467 52.787495,100.872910 72.268372,100.614487 
	C76.977364,100.552025 78.149490,102.035179 78.033371,106.551544 
	C77.729568,118.367538 77.931725,130.196518 77.931061,142.020325 
	C77.930611,150.013885 77.968338,158.007721 77.909622,166.000870 
	C77.880852,169.916779 79.482880,172.642944 83.524170,172.820114 
	C87.633545,173.000275 89.331787,170.157043 89.710815,166.424942 
	C89.844826,165.105408 89.765038,163.763123 89.765198,162.431213 
	C89.767410,143.779587 89.766556,125.127945 89.766457,106.476311 
	C89.766441,104.712112 89.766457,102.947922 89.766457,100.722191 
	C92.265785,100.722191 94.061562,100.722160 95.857330,100.722198 
	C115.341629,100.722595 134.825974,100.744858 154.310196,100.708878 
	C159.541290,100.699219 162.094879,98.230225 161.378922,94.097359 
	C160.647202,89.873444 157.599747,89.071060 153.975449,89.075630 
	C143.816986,89.088440 133.658493,89.079002 122.500008,89.078331 
z"/>
<path fill="#023859" opacity="1.000000" stroke="none" 
	d="
M123.000015,89.078339 
	C133.658493,89.079002 143.816986,89.088440 153.975449,89.075630 
	C157.599747,89.071060 160.647202,89.873444 161.378922,94.097359 
	C162.094879,98.230225 159.541290,100.699219 154.310196,100.708878 
	C134.825974,100.744858 115.341629,100.722595 95.857330,100.722198 
	C94.061562,100.722160 92.265785,100.722191 89.766457,100.722191 
	C89.766457,102.947922 89.766441,104.712112 89.766457,106.476311 
	C89.766556,125.127945 89.767410,143.779587 89.765198,162.431213 
	C89.765038,163.763123 89.844826,165.105408 89.710815,166.424942 
	C89.331787,170.157043 87.633545,173.000275 83.524170,172.820114 
	C79.482880,172.642944 77.880852,169.916779 77.909622,166.000870 
	C77.968338,158.007721 77.930611,150.013885 77.931061,142.020325 
	C77.931725,130.196518 77.729568,118.367538 78.033371,106.551544 
	C78.149490,102.035179 76.977364,100.552025 72.268372,100.614487 
	C52.787495,100.872910 33.300888,100.664467 13.817172,100.771049 
	C9.674654,100.793709 6.387025,100.019226 5.955101,95.241508 
	C5.590070,91.203712 8.305213,89.100159 13.740951,89.091583 
	C33.558262,89.060318 53.375656,89.082123 73.193008,89.070969 
	C74.504784,89.070236 75.816483,88.961266 77.681419,88.877914 
	C77.768852,86.976509 77.919106,85.211693 77.920570,83.446739 
	C77.936874,63.795921 77.946045,44.145061 77.913864,24.494286 
	C77.908585,21.268623 78.390472,18.476332 82.105995,17.534588 
	C86.604874,16.394299 89.670807,19.127567 89.739006,24.706230 
	C89.848930,33.697628 89.766830,42.691368 89.766556,51.684120 
	C89.766174,63.971313 89.766464,76.258507 89.766464,89.078331 
	C100.965630,89.078331 111.732819,89.078331 123.000015,89.078339 
z"/>
</svg>