<svg id="Camada_1" data-name="Camada 1" xmlns="http://www.w3.org/2000/svg" viewBox="0 0 30.61 28.39"><defs><style>.cls-1{fill:none;stroke:#ffffff;stroke-linecap:round;stroke-miterlimit:10;stroke-width:1.19px;}.cls-2{fill:#ffffff;}</style></defs><path class="cls-1" d="M5.57.79V3.28H4V6.52H8.82V3.28H7.19V.79Z"/><path class="cls-2" d="M27,27.14l1.68-.81L28,24.88l-1.67.81a2.86,2.86,0,0,1-2.52,0,4.47,4.47,0,0,0-4,0,2.86,2.86,0,0,1-2.52,0,4.47,4.47,0,0,0-4,0,2.86,2.86,0,0,1-2.52,0,4.47,4.47,0,0,0-4,0,2.86,2.86,0,0,1-2.52,0l-1.62-.81L2,26.33l1.63.81a4.47,4.47,0,0,0,4,0,2.78,2.78,0,0,1,2.51,0,4.47,4.47,0,0,0,4,0,2.8,2.8,0,0,1,2.52,0,4.51,4.51,0,0,0,4,0,2.8,2.8,0,0,1,2.52,0,4.47,4.47,0,0,0,4,0Z"/><path class="cls-1" d="M7.56,23.89a2.84,2.84,0,0,1,2.51,0,4.41,4.41,0,0,0,4,0,2.86,2.86,0,0,1,2.52,0,4.43,4.43,0,0,0,4,0,2.86,2.86,0,0,1,2.52,0,4.41,4.41,0,0,0,4,0l1.68-.81L28,21.63l-1.67.81a2.92,2.92,0,0,1-.56.21l3.41-6.4H1.46v6.61l2.13,1A4.41,4.41,0,0,0,7.56,23.89ZM21,18.69H22.6v1.62H21Zm-3.24,0h1.62v1.62H17.74Zm-3.25,0h1.62v1.62H14.49Zm-3.24,0h1.62v1.62H11.25ZM8,18.69H9.63v1.62H8Zm-3.24,0H6.38v1.62H4.76Z"/><path class="cls-1" d="M3.14,8.14H9.63v6.49H3.14Z"/><path class="cls-1" d="M11.25,11.39h4.86v3.24H11.25Z"/><path class="cls-1" d="M17.74,11.39H22.6v3.24H17.74Z"/><path class="cls-1" d="M14.49,6.52h4.87V9.76H14.49Z"/><path class="cls-1" d="M21,6.52h4.87V9.76H21Z"/><path class="cls-1" d="M24.23,11.39h4.92v3.24H24.23Z"/></svg>