<svg version="1.1" id="Layer_1" xmlns="http://www.w3.org/2000/svg" xmlns:xlink="http://www.w3.org/1999/xlink" x="0px" y="0px"
	 width="100%" viewBox="0 0 432 432" enable-background="new 0 0 432 432" xml:space="preserve">
<path fill="#264775" opacity="1.000000" stroke="none" 
	d="
M75.071045,222.087708 
	C86.510773,207.701996 100.949173,198.276047 117.894844,192.494125 
	C122.466698,190.934189 127.019905,189.314224 131.625610,187.861145 
	C133.964890,187.123108 134.670670,185.963058 134.216125,183.431183 
	C130.412079,162.242020 143.542206,145.717758 162.267090,143.728622 
	C164.796478,143.459930 165.412674,142.082474 165.816727,139.815811 
	C169.352036,119.983871 183.656723,109.442322 203.924515,112.015900 
	C207.426208,112.460541 208.635361,111.433395 209.644348,108.458328 
	C213.704468,96.486832 217.465576,84.435066 224.600677,73.710457 
	C257.592590,24.121033 328.445679,18.657482 368.504211,62.741722 
	C401.298004,98.831154 400.410156,153.251694 366.323914,188.058426 
	C356.639252,197.947830 345.198151,205.290253 332.090668,209.914322 
	C328.478149,211.188782 324.847504,212.412186 321.219849,213.643417 
	C313.006561,216.430954 313.005219,216.426987 313.924561,225.009430 
	C315.574280,240.409851 304.352509,255.731308 288.448059,259.142487 
	C284.131897,260.068237 282.117767,261.669861 281.169403,266.198517 
	C277.463562,283.894501 261.285614,294.606873 243.418457,291.382660 
	C239.695099,290.710754 238.079712,291.467926 236.977661,295.156555 
	C233.032410,308.361633 227.644363,321.159424 227.849838,335.366638 
	C228.060913,349.962067 232.311691,362.810822 242.339645,373.636993 
	C247.827026,379.561157 247.849060,385.586212 242.236374,391.355530 
	C232.593399,401.267731 222.802460,411.039368 212.928940,420.722504 
	C207.908615,425.646027 201.941101,425.502930 197.048996,420.453674 
	C184.075089,407.063232 174.807144,391.412964 169.376694,373.587494 
	C168.267822,369.947571 166.709930,368.930664 162.967651,369.570343 
	C104.675133,379.534393 53.631847,335.843262 54.999481,276.762695 
	C55.465652,256.624756 62.049744,238.240707 75.071045,222.087708 
M369.688171,145.123291 
	C374.385590,129.443253 373.879303,113.887550 368.158539,98.596848 
	C357.468262,70.023514 327.462708,49.469643 294.216705,53.075325 
	C272.398376,55.441616 255.151276,65.404556 242.479248,83.277557 
	C234.016708,95.213394 231.162018,109.456177 226.388535,122.904076 
	C225.868927,124.367943 226.013565,125.926689 227.199707,127.111038 
	C232.926437,132.829147 238.681229,138.519165 244.767075,144.557449 
	C245.543259,142.995102 246.162430,142.030396 246.523819,140.977234 
	C249.656281,131.848465 252.802902,122.723732 255.825684,113.558350 
	C258.961151,104.051376 263.416931,95.335190 271.458710,89.077896 
	C286.292328,77.535858 302.567322,74.079239 320.069153,82.242508 
	C336.854858,90.071747 346.451660,103.445732 347.182098,122.121429 
	C348.027771,143.742294 335.163055,161.514282 314.604523,168.471359 
	C303.454102,172.244720 292.324280,176.078964 280.140198,180.242859 
	C286.695374,186.750565 292.655579,192.683380 298.637115,198.594666 
	C300.114685,200.054916 301.797455,199.273361 303.337341,198.772308 
	C308.878265,196.969391 314.342712,194.920029 319.919159,193.239532 
	C344.476257,185.839066 361.029297,170.117386 369.688171,145.123291 
M161.786011,348.729462 
	C162.214005,348.253357 163.010666,347.780701 163.015106,347.300690 
	C163.091461,339.063812 163.069977,330.825989 163.069977,322.585205 
	C160.690063,322.067291 159.018356,323.035034 157.295609,323.496063 
	C135.005402,329.461090 111.710701,317.708313 103.123009,296.122559 
	C94.515945,274.488129 103.431961,249.298462 123.614082,238.516144 
	C133.967361,232.984894 145.486954,230.623154 156.452576,226.754425 
	C159.693344,225.611053 163.138702,224.968491 166.755142,222.460648 
	C160.577637,216.385468 154.664703,210.610809 148.806183,204.781448 
	C147.288956,203.271774 145.753311,203.940598 144.183380,204.454086 
	C139.123123,206.109268 134.122528,207.970154 129.007004,209.429382 
	C93.360306,219.597702 71.986298,251.089813 75.026733,286.921356 
	C78.491982,327.759125 120.843124,358.821014 161.786011,348.729462 
M216.824188,208.676117 
	C213.887177,205.727280 210.958405,202.770172 208.011688,199.831085 
	C197.050232,188.898010 186.214081,177.834793 175.070023,167.091019 
	C168.049896,160.323044 158.168747,162.173096 154.310272,170.556503 
	C151.738419,176.144394 153.073700,181.567871 158.294937,186.790955 
	C173.241302,201.742767 188.181854,216.700394 203.130630,231.649796 
	C215.254211,243.773895 227.309631,255.967590 239.544388,267.978546 
	C246.538254,274.844452 255.481964,273.934937 260.425354,266.174377 
	C263.723969,260.995972 262.754211,254.740204 257.539856,249.478210 
	C244.181458,235.997803 230.736481,222.603195 216.824188,208.676117 
M241.689072,205.811081 
	C251.809540,215.933350 261.851501,226.135773 272.078583,236.149185 
	C278.689697,242.622162 288.972534,240.958817 293.271179,232.963181 
	C296.111969,227.679184 294.920044,222.402939 289.383820,216.849930 
	C271.288391,198.699615 253.143509,180.598663 235.018585,162.477783 
	C226.073914,153.535095 217.200516,144.519714 208.166580,135.668152 
	C200.552353,128.207657 189.537994,129.991791 186.077576,139.218506 
	C183.916336,144.981171 185.631012,149.828583 189.973785,154.136581 
	C207.107071,171.132660 224.127762,188.242294 241.689072,205.811081 
M208.084564,336.306427 
	C207.621826,320.300262 212.681915,305.471375 217.860596,290.678619 
	C222.208206,278.259735 222.302216,278.220093 213.073013,269.095367 
	C209.731857,265.792023 206.765823,262.000122 202.891296,259.404877 
	C200.972794,261.017029 200.787613,262.766357 200.271210,264.299225 
	C196.762421,274.714447 193.159866,285.102844 189.910446,295.599854 
	C181.392227,323.117279 180.232941,350.577454 191.434494,377.722992 
	C194.658768,385.536621 198.923874,392.787781 205.192581,399.797180 
	C210.784775,394.023773 215.958572,388.634491 221.194153,383.305939 
	C222.783386,381.688477 222.687347,380.212158 221.461182,378.439148 
	C212.886169,366.039856 208.586899,352.246490 208.084564,336.306427 
M131.314545,256.737488 
	C130.925598,257.051422 130.515457,257.342621 130.150818,257.682617 
	C120.891029,266.316956 117.828773,277.734802 121.882111,288.487457 
	C125.533821,298.174652 134.276062,304.614777 144.253723,304.967957 
	C157.714630,305.444366 166.602280,300.371429 171.585617,287.615845 
	C176.970993,273.831146 181.227051,259.607086 186.081314,245.611298 
	C186.865463,243.350418 186.223373,241.843170 184.734436,240.238678 
	C183.111282,238.489532 181.412766,238.444061 179.321060,239.210236 
	C175.258423,240.698303 171.084747,241.889877 167.048676,243.442444 
	C155.404083,247.921799 143.054749,250.480759 131.314545,256.737488 
M272.289612,126.723839 
	C268.913269,136.819153 265.564026,146.923660 262.137268,157.001831 
	C261.468353,158.969086 260.909271,160.695862 262.542084,162.557556 
	C264.278931,164.537903 266.161469,164.496201 268.386139,163.753922 
	C278.962463,160.224960 289.551056,156.732559 300.142120,153.248001 
	C305.191254,151.586823 310.474060,150.488541 314.972473,147.468414 
	C324.533905,141.049042 329.003265,132.116745 327.639862,120.592117 
	C326.457794,110.600418 318.855621,101.722389 309.634399,99.366821 
	C298.114410,96.424026 288.258362,99.070168 280.420471,108.305771 
	C276.064911,113.438065 274.940399,119.985527 272.289612,126.723839 
z"/>
</svg>