<svg version="1.1" id="Layer_1" xmlns="http://www.w3.org/2000/svg" xmlns:xlink="http://www.w3.org/1999/xlink" x="0px" y="0px"
	 width="100%" viewBox="0 0 240 208" enable-background="new 0 0 240 208" xml:space="preserve">
<path fill="#FFF" opacity="1.000000" stroke="none" 
	d="
M125.717896,163.170898 
	C119.441795,162.706879 117.775002,160.876648 117.756409,154.495529 
	C117.703461,136.330673 117.741264,118.165588 117.704582,100.000679 
	C117.691963,93.748634 117.400940,93.587753 111.495094,95.559227 
	C90.179680,102.674675 68.857811,109.770782 47.545563,116.895676 
	C38.645924,119.870918 37.909763,123.201950 44.754070,129.680603 
	C54.311527,138.727432 63.920200,147.720123 73.497597,156.745911 
	C75.468834,158.603638 77.328178,160.602417 76.991081,163.582504 
	C76.385872,168.932648 70.185951,171.364548 65.973061,167.509460 
	C54.423321,156.940689 42.716953,146.481598 31.921028,135.169373 
	C22.748306,125.557983 26.645084,111.156174 38.900620,105.999161 
	C39.359657,105.806000 39.854298,105.699326 40.322163,105.525002 
	C51.659927,101.300591 51.658215,101.299927 51.659748,88.891624 
	C51.661087,78.059296 51.611702,67.226601 51.684498,56.394741 
	C51.762711,44.757092 59.386074,36.993931 71.025078,36.642624 
	C75.188309,36.516964 79.360527,36.448002 83.521706,36.576939 
	C86.462013,36.668049 87.559792,35.647213 87.733025,32.574432 
	C88.489517,19.156063 95.437973,12.681224 108.812378,12.638056 
	C119.144630,12.604706 129.477097,12.644979 139.809464,12.637908 
	C152.814987,12.629007 159.674911,18.428421 161.006775,31.411119 
	C161.432541,35.561409 162.808594,36.975777 166.785858,36.653568 
	C169.765686,36.412170 172.781372,36.610744 175.781082,36.617870 
	C189.616806,36.650730 197.104523,43.994308 197.232132,57.911888 
	C197.349777,70.743004 197.433807,83.579346 197.174301,96.406128 
	C197.091614,100.492752 198.451431,102.605217 202.335663,103.494164 
	C204.596298,104.011536 206.805588,104.823631 208.971664,105.672401 
	C223.235626,111.261681 226.316422,126.614006 215.279892,137.446793 
	C209.813217,142.812546 204.133209,147.961014 198.546570,153.204437 
	C193.809830,157.650177 189.088089,162.112198 184.323013,166.527435 
	C180.579071,169.996506 176.578644,170.195953 173.784561,167.134384 
	C171.050644,164.138794 171.423340,160.781921 175.305923,157.108398 
	C185.227615,147.720932 195.311127,138.504364 205.223862,129.107574 
	C210.892670,123.733826 209.927994,119.665138 202.522995,117.207443 
	C180.720779,109.971359 158.903595,102.780350 137.084900,95.593987 
	C135.546234,95.087204 133.947739,94.762062 132.550140,94.397598 
	C130.537720,96.340454 131.183014,98.459435 131.176163,100.358398 
	C131.111893,118.189842 131.132721,136.021576 131.103073,153.853180 
	C131.096512,157.799820 130.859558,161.677139 125.717896,163.170898 
M77.608139,49.430424 
	C65.105873,49.424423 64.401642,50.130253 64.396255,62.729305 
	C64.392136,72.390427 64.544563,82.054810 64.331924,91.711235 
	C64.232986,96.203865 65.608215,97.298508 69.914070,95.836739 
	C84.409477,90.915764 99.051384,86.420967 113.502365,81.376694 
	C120.941254,78.780075 127.955849,78.751068 135.395935,81.398018 
	C149.345993,86.360985 163.461075,90.862068 177.525330,95.501244 
	C183.453568,97.456711 183.889313,97.141747 183.911285,91.101326 
	C183.951294,80.107773 183.962875,69.113846 183.917923,58.120350 
	C183.888397,50.897339 182.348770,49.414574 175.023682,49.413475 
	C142.875381,49.408669 110.727081,49.422455 77.608139,49.430424 
M118.628685,25.421293 
	C114.638794,25.511013 110.641045,25.475632 106.661194,25.725388 
	C102.622131,25.978855 100.358719,28.942207 100.500267,33.332054 
	C100.643013,37.759163 104.023308,36.535976 106.401268,36.534401 
	C118.545425,36.526348 130.697952,36.053425 142.829407,36.392387 
	C147.729401,36.529297 148.014679,34.323479 147.702164,30.736565 
	C147.311096,26.247980 144.044281,25.553276 140.564301,25.486588 
	C133.577087,25.352686 126.585793,25.431293 118.628685,25.421293 
z"/>
<path fill="#FFF" opacity="1.000000" stroke="none" 
	d="
M220.705444,203.472473 
	C212.639267,201.254028 205.928391,197.270493 199.754105,192.371689 
	C197.231842,190.370468 195.380081,190.403961 192.808044,192.509140 
	C189.611389,195.125580 186.011414,197.332870 182.358765,199.294388 
	C164.168396,209.062714 146.912888,206.350632 130.870544,194.456528 
	C126.118156,190.933014 123.113426,190.660156 118.134880,194.395020 
	C98.516243,209.112808 78.229134,208.889282 58.259853,193.975128 
	C53.894497,190.714844 50.921787,190.261719 46.830132,193.976532 
	C41.043346,199.230316 33.839767,201.985916 26.377913,203.997467 
	C21.048048,205.434265 17.839710,204.105545 16.531429,200.087082 
	C15.299188,196.302185 17.073759,193.668991 22.506033,192.098328 
	C31.698784,189.440369 39.479427,184.550217 46.304920,177.948196 
	C50.929714,173.474838 53.801655,173.493896 58.785950,177.982513 
	C66.050224,184.524384 73.733559,190.355270 83.796837,191.657211 
	C97.343773,193.409866 108.019211,187.393280 117.592247,178.682236 
	C123.554184,173.257141 125.620232,173.232315 131.454498,178.696899 
	C150.343430,196.388855 170.362823,196.407059 189.584335,178.749756 
	C195.566055,173.254822 197.603363,173.279175 203.430130,178.684082 
	C209.604828,184.411697 216.505066,188.973083 224.612152,191.542953 
	C231.818146,193.827209 233.594666,195.825073 232.386581,200.184189 
	C231.201416,204.460693 228.309067,205.328659 220.705444,203.472473 
z"/>
</svg>