<svg version="1.1" id="Layer_1" xmlns="http://www.w3.org/2000/svg" xmlns:xlink="http://www.w3.org/1999/xlink" x="0px" y="0px"
	 width="100%" viewBox="0 0 206 184" enable-background="new 0 0 206 184" xml:space="preserve">
<path fill="transparent" opacity="1.000000" stroke="none" 
	d="
M121.000000,185.000000 
	C80.692215,185.000000 40.884426,185.000000 1.038320,185.000000 
	C1.038320,123.731567 1.038320,62.463108 1.038320,1.097324 
	C69.557625,1.097324 138.115433,1.097324 206.836609,1.097324 
	C206.836609,62.332985 206.836609,123.666451 206.836609,185.000000 
	C178.463394,185.000000 149.981705,185.000000 121.000000,185.000000 
M109.705475,162.298096 
	C116.182663,158.936432 123.087997,156.200348 129.065903,152.109146 
	C162.028702,129.549911 178.634308,97.876022 179.897552,58.150986 
	C180.022354,54.226105 181.040543,51.933323 183.907593,49.407383 
	C188.961853,44.954449 193.436783,39.843967 198.154266,35.008778 
	C197.855484,34.727280 197.556702,34.445782 197.257935,34.164284 
	C191.265121,35.718166 185.272308,37.272053 179.279495,38.825939 
	C179.172485,38.368534 179.065475,37.911133 178.958466,37.453732 
	C185.488129,32.533974 190.696396,26.653137 193.527222,18.628597 
	C186.811386,20.985229 180.660889,22.979639 174.643372,25.316525 
	C171.033066,26.718582 168.584824,25.727068 165.708801,23.302614 
	C145.482254,6.251851 114.120903,13.846265 104.854202,38.441544 
	C102.137383,45.652443 102.032776,53.847542 100.608047,62.322449 
	C69.152527,60.415012 42.812527,46.186207 20.969538,21.564024 
	C11.306746,42.136303 16.199993,58.988491 31.324654,74.342628 
	C26.321661,72.925003 21.318668,71.507378 15.797067,69.942802 
	C17.082407,89.433693 27.106678,101.568031 44.857887,108.847954 
	C40.062588,109.133926 35.267284,109.419907 29.925028,109.738503 
	C36.285267,125.975212 48.218788,134.182205 66.103630,136.009552 
	C49.044186,149.305771 30.591988,153.508316 10.729525,153.613083 
	C42.142467,172.125656 74.941452,174.237442 109.705475,162.298096 
z"/>
<path fill="#FFFFFF" opacity="1.000000" stroke="none" 
	d="
M109.351280,162.462738 
	C74.941452,174.237442 42.142467,172.125656 10.729525,153.613083 
	C30.591988,153.508316 49.044186,149.305771 66.103630,136.009552 
	C48.218788,134.182205 36.285267,125.975212 29.925028,109.738503 
	C35.267284,109.419907 40.062588,109.133926 44.857887,108.847954 
	C27.106678,101.568031 17.082407,89.433693 15.797067,69.942802 
	C21.318668,71.507378 26.321661,72.925003 31.324654,74.342628 
	C16.199993,58.988491 11.306746,42.136303 20.969538,21.564024 
	C42.812527,46.186207 69.152527,60.415012 100.608047,62.322449 
	C102.032776,53.847542 102.137383,45.652443 104.854202,38.441544 
	C114.120903,13.846265 145.482254,6.251851 165.708801,23.302614 
	C168.584824,25.727068 171.033066,26.718582 174.643372,25.316525 
	C180.660889,22.979639 186.811386,20.985229 193.527222,18.628597 
	C190.696396,26.653137 185.488129,32.533974 178.958466,37.453732 
	C179.065475,37.911133 179.172485,38.368534 179.279495,38.825939 
	C185.272308,37.272053 191.265121,35.718166 197.257935,34.164284 
	C197.556702,34.445782 197.855484,34.727280 198.154266,35.008778 
	C193.436783,39.843967 188.961853,44.954449 183.907593,49.407383 
	C181.040543,51.933323 180.022354,54.226105 179.897552,58.150986 
	C178.634308,97.876022 162.028702,129.549911 129.065903,152.109146 
	C123.087997,156.200348 116.182663,158.936432 109.351280,162.462738 
z"/>
</svg>