<svg version="1.1" id="Layer_1" xmlns="http://www.w3.org/2000/svg" xmlns:xlink="http://www.w3.org/1999/xlink" x="0px" y="0px"
	 width="100%" viewBox="0 0 223 171" enable-background="new 0 0 223 171" xml:space="preserve">
<path fill="transparent" opacity="1.000000" stroke="none" 
	d="
M139.000000,172.000000 
	C92.666672,172.000000 46.833340,172.000000 1.000006,172.000000 
	C1.000004,115.000008 1.000004,58.000011 1.000002,1.000014 
	C75.333321,1.000009 149.666641,1.000009 223.999969,1.000005 
	C223.999985,57.999985 223.999985,114.999969 224.000000,171.999969 
	C195.833328,172.000000 167.666672,172.000000 139.000000,172.000000 
M89.018288,15.455096 
	C72.746788,16.317501 56.467003,17.049725 40.206406,18.083660 
	C27.286612,18.905170 17.132454,26.780039 14.401940,38.025166 
	C13.229670,42.852955 12.426400,47.820316 12.001265,52.771137 
	C9.831872,78.034302 9.670476,103.273232 12.919431,128.495361 
	C15.057922,145.096802 22.359665,152.992859 38.952583,155.695221 
	C41.414700,156.096222 43.902424,156.504456 46.387665,156.573807 
	C75.659874,157.390579 104.934952,158.745392 134.207001,158.692551 
	C152.459702,158.659607 170.739212,156.809280 188.948013,155.135941 
	C200.604126,154.064774 208.982239,146.117096 210.993973,134.546204 
	C216.393539,103.489365 216.443619,72.302231 211.244995,41.240051 
	C208.844696,26.898064 199.206635,19.056044 184.695602,18.066664 
	C171.590073,17.173115 158.479752,16.126678 145.355087,15.790937 
	C126.893791,15.318679 108.417290,15.440668 89.018288,15.455096 
z"/>
<path fill="#FFFFFF" opacity="1.000000" stroke="none" 
	d="
M89.482788,15.381815 
	C108.417290,15.440668 126.893791,15.318679 145.355087,15.790937 
	C158.479752,16.126678 171.590073,17.173115 184.695602,18.066664 
	C199.206635,19.056044 208.844696,26.898064 211.244995,41.240051 
	C216.443619,72.302231 216.393539,103.489365 210.993973,134.546204 
	C208.982239,146.117096 200.604126,154.064774 188.948013,155.135941 
	C170.739212,156.809280 152.459702,158.659607 134.207001,158.692551 
	C104.934952,158.745392 75.659874,157.390579 46.387665,156.573807 
	C43.902424,156.504456 41.414700,156.096222 38.952583,155.695221 
	C22.359665,152.992859 15.057922,145.096802 12.919431,128.495361 
	C9.670476,103.273232 9.831872,78.034302 12.001265,52.771137 
	C12.426400,47.820316 13.229670,42.852955 14.401940,38.025166 
	C17.132454,26.780039 27.286612,18.905170 40.206406,18.083660 
	C56.467003,17.049725 72.746788,16.317501 89.482788,15.381815 
M138.496277,82.991127 
	C123.129776,74.309952 107.763268,65.628784 91.987251,56.716259 
	C91.987251,77.403152 91.987251,97.093727 91.987251,117.666313 
	C109.962074,107.376266 127.269234,97.468445 145.337189,87.125076 
	C142.741211,85.525917 140.941833,84.417473 138.496277,82.991127 
z"/>
<path fill="transparent" opacity="1.000000" stroke="none" 
	d="
M138.819366,83.150078 
	C140.941833,84.417473 142.741211,85.525917 145.337189,87.125076 
	C127.269234,97.468445 109.962074,107.376266 91.987251,117.666313 
	C91.987251,97.093727 91.987251,77.403152 91.987251,56.716259 
	C107.763268,65.628784 123.129776,74.309952 138.819366,83.150078 
z"/>
</svg>